/* XPM */
static char * image_name[]={
"13 13 4 2",
"  	c #F08080",
". 	c #BFBFBF",
"X 	c #FF7256",
"o 	c #FF6347",
"                      . . ",
"      X X o X X       . . ",
"    X o o o o o X     . . ",
"  X o X X     X o X   . . ",
"  X o X         X X   . . ",
"  X o           X X   . . ",
"  X o X         X X   . . ",
"  X o o X     X o X   . . ",
"    X o o o o o X     . . ",
"      X X X X X       . . ",
"                      . . ",
". . . . . . . . . . . . . ",
". . . . . . . . . . . . . "
};
