/* XPM */
static char * image_name[]={
"8 17 12 2",
"  	c #F08080",
". 	c #BFBFBF",
"X 	c #DEB887",
"o 	c #FF7256",
"O 	c #91535D",
"+ 	c #9B7071",
"@ 	c #5C5C5C",
"# 	c #5E5E5E",
"$ 	c #616161",
"% 	c #666666",
"& 	c #636363",
"* 	c #696969",
"            . . ",
"          X . . ",
"            . . ",
"            . . ",
"o o o o o o . . ",
"O O + + + O . . ",
"@ @ @ # # $ . . ",
"O % & & % * . . ",
"O * % % * O . . ",
"% % % % % % . . ",
"O O O O O O . . ",
"+ + + + + + . . ",
"o o o o o o . . ",
"            . . ",
"            . . ",
". . . . . . . . ",
". . . . . . . . "
};
