/* XPM */
static char * image_name[]={
"15 15 14 2",
"  	c #9C9C9C",
". 	c #949494",
"X 	c #5A26B3",
"o 	c #BFBFBF",
"O 	c #9E9E9E",
"+ 	c #5773B8",
"@ 	c #0000FF",
"# 	c #919191",
"$ 	c #BD52BD",
"% 	c #969696",
"& 	c #5119B7",
"* 	c #5820B3",
"= 	c #735694",
"- 	c #3232CC",
"          . X .           o o ",
"        O + @ +           o o ",
"        O + @ +           o o ",
"        O + @ +           o o ",
"  O O O O # @ # O O O O   o o ",
". $ $ $ $ + @ + $ $ $ $ % o o ",
"& @ @ @ @ @ @ @ @ @ @ @ * o o ",
"$ = = = = = @ = = = = = $ o o ",
"          # @ #           o o ",
"        O + @ +           o o ",
"        O + @ +           o o ",
"        O + @ +           o o ",
"          # - #           o o ",
"o o o o o o o o o o o o o o o ",
"o o o o o o o o o o o o o o o "
};
