/* XPM */
static char * image_name[]={
"23 23 6 2",
"  	c #78D54B",
". 	c #509F69",
"X 	c #BFBFBF",
"o 	c #636363",
"O 	c #616161",
"+ 	c #545454",
"                  . . .                   X X ",
"            . . o o o o o . .             X X ",
"        . . O + + + + + + + O . .         X X ",
"      . o + + + + + + + + + + + o .       X X ",
"    . o + + + + + + + + + + + + + o .     X X ",
"    . + + + + + + + + + + + + + + + .     X X ",
"  . O + + + + + + + + + + + + + + + O .   X X ",
"  . + + + + + + + + + + + + + + + + + .   X X ",
"  o + + + + + + + + + + + + + + + + + o   X X ",
". o + + + + + + + + + + + + + + + + + o . X X ",
". o + + + + + + + + + + + + + + + + + o . X X ",
"  o + + + + + + + + + + + + + + + + + o . X X ",
"  o + + + + + + + + + + + + + + + + + o   X X ",
"  . + + + + + + + + + + + + + + + + + .   X X ",
"  . O + + + + + + + + + + + + + + + O .   X X ",
"    . + + + + + + + + + + + + + + + .     X X ",
"    . o + + + + + + + + + + + + + o .     X X ",
"      . o + + + + + + + + + + + o .       X X ",
"        . . O + + + + + + + O . .         X X ",
"            . . o o o o o . .             X X ",
"                  . . .                   X X ",
"X X X X X X X X X X X X X X X X X X X X X X X ",
"X X X X X X X X X X X X X X X X X X X X X X X "
};
