/* XPM */
static char * image_name[]={
"23 23 5 2",
"  	c #EFDF84",
". 	c #BFBFBF",
"X 	c #D1C166",
"o 	c #FFA07A",
"O 	c #FF7256",
"                                          . . ",
"              X o o o o o X               . . ",
"          X o O O O O O O O o X           . . ",
"        o O O O O O O O O O O O o         . . ",
"      o O O O O O O O O O O O O O o       . . ",
"    o O O O O O O O O O O O O O O O o     . . ",
"    o O O O O O O O O O O O O O O O o     . . ",
"  X O O O O O O O O O O O O O O O O O X   . . ",
"  o O O O O O O O O O O O O O O O O O o   . . ",
"  o O O O O O O O O O O O O O O O O O o   . . ",
"  o O O O O O O O O O O O O O O O O O o   . . ",
"  o O O O O O O O O O O O O O O O O O o   . . ",
"  o O O O O O O O O O O O O O O O O O o   . . ",
"  X O O O O O O O O O O O O O O O O O X   . . ",
"    o O O O O O O O O O O O O O O O o     . . ",
"    o O O O O O O O O O O O O O O O o     . . ",
"      o O O O O O O O O O O O O O o       . . ",
"        o O O O O O O O O O O O o         . . ",
"          X o O O O O O O O o o           . . ",
"              X o o o o o X               . . ",
"                                          . . ",
". . . . . . . . . . . . . . . . . . . . . . . ",
". . . . . . . . . . . . . . . . . . . . . . . "
};
