/* XPM */
static char * image_name[]={
"11 13 3 2",
"  	c #EFDF84",
". 	c #EEE8AA",
"X 	c #BFBFBF",
"  . . . . . . .   X X ",
"  . . . . . . .   X X ",
"  . . . . . . .   X X ",
"  . . . . . . .   X X ",
"  . . . . . . .   X X ",
"  . . . . . . .   X X ",
"  . . . . . . .   X X ",
"  . . . . . . .   X X ",
"  . . . . . . .   X X ",
"  . . . . . . .   X X ",
"  . . . . . . .   X X ",
"X X X X X X X X X X X ",
"X X X X X X X X X X X "
};
