/* XPM */
static char * image_name[]={
"19 19 49 2",
"  	c #7A7A7A",
". 	c #545454",
"X 	c #616161",
"o 	c #696969",
"O 	c #737373",
"+ 	c #7D7D7D",
"@ 	c #858585",
"# 	c #8F8F8F",
"$ 	c #8C8C8C",
"% 	c #878787",
"& 	c #828282",
"* 	c #BDBDBD",
"= 	c #D4D4D4",
"- 	c #B0B0B0",
"; 	c #BFBFBF",
": 	c #6B6B6B",
"> 	c #454545",
", 	c #525252",
"< 	c #5C5C5C",
"1 	c #6E6E6E",
"2 	c #949494",
"3 	c #C7C7C7",
"4 	c #CFCFCF",
"5 	c #A3A3A3",
"6 	c #424242",
"7 	c #787878",
"8 	c #636363",
"9 	c #666666",
"0 	c #B8B8B8",
"q 	c #CCCCCC",
"w 	c #999999",
"e 	c #8A8A8A",
"r 	c #575757",
"t 	c #9C9C9C",
"y 	c #ABABAB",
"u 	c #707070",
"i 	c #A6A6A6",
"p 	c #757575",
"a 	c #4D4D4D",
"s 	c #3D3D3D",
"d 	c #ADADAD",
"f 	c #7E7E7E",
"g 	c #B3B3B3",
"h 	c #5E5E5E",
"j 	c #A1A1A1",
"k 	c #9E9E9E",
"l 	c #919191",
"z 	c #595959",
"x 	c #7F7F7F",
"  . X o O O + @ # $ % & # * = = - ; ; ",
": > , < o 1 + + + 1 : 2 3 = 4 5 2 ; ; ",
"& 6 , X 1 7 + 7 8 9 # 0 4 q w @ @ ; ; ",
"e r o O + & 7 9 7 t y - - e 1 & 2 ; ; ",
"u + @ @ e @ + + e w t w O . 1 @ i ; ; ",
"X O @ # w 2 % 7 O   p r > < 7 2 i ; ; ",
": 1 # w 2 e + O X a s > X & t i y ; ; ",
"O 1 e 2 2 2 2 e 1 , r O # i - - d ; ; ",
"# . r o O 7 f 7 7 & w i y g 0 0 0 ; ; ",
"t h < o + # 2 w i y - g 0 0 0 0 0 ; ; ",
"t X O e w j i y y i y - - - y y y ; ; ",
"w < O e w t j j i j j j j k t t w ; ; ",
"2 h O & # 2 w w w t w 2 2 # e % @ ; ; ",
"l z + e 2 w 2 $ e # @ & & + O 1 1 ; ; ",
"w X 9 f e 2 2 2 2 2 # # $ % @ @ @ ; ; ",
"t 2 O : o o 1 1 O 7 u O O 1 7 7 u ; ; ",
"t t t t 2 e x f + O : o o o O + & ; ; ",
"; ; ; ; ; ; ; ; ; ; ; ; ; ; ; ; ; ; ; ",
"; ; ; ; ; ; ; ; ; ; ; ; ; ; ; ; ; ; ; "
};
