/* XPM */
static char * image_name[]={
"20 41 7 2",
"  	c #666666",
". 	c #91535D",
"X 	c #9B7071",
"o 	c #FF7256",
"O 	c #F08080",
"+ 	c #BFBFBF",
"@ 	c #696969",
"  . X X X o o O O O O O O O O O O O + + ",
". . X X X o o O O O O O O O O O O O + + ",
". X X X o o o O O O O O O O O O O O + + ",
"X X X o o o O O O O O O O O O O O O + + ",
"X X X o O O O O O O O O O O O O O O + + ",
"X X X o o O O O O O O O O O O O O O + + ",
"X X X o o O O O O O O O O O O O O O + + ",
"X X X o o O O O O O O O O O O O O O + + ",
"X X X X o O O O O O O O O O O O O O + + ",
"X X X X o o O O O O O O O O O O O O + + ",
"X X X X X o o O O O O O O O O O O O + + ",
"X X X X o o o O O O O O O O O O O O + + ",
"X X X o o o o O O O O O O O O O O O + + ",
". X o o o o O O O O O O O O O O O O + + ",
". X o o o O O O O O O O O O O O O O + + ",
". X X o o O O O O O O O O O O O O O + + ",
". X X o o O O O O O O O O O O O O O + + ",
"@ X X o o O O O O O O O O O O O O O + + ",
"@ X X o o O O O O O O O O O O O O O + + ",
". . X X o O O O O O O O O O O O O O + + ",
"X . X X o O O O O O O O O O O O O O + + ",
"o . X X o o O O O O O O O O O O O O + + ",
"O X X X o o O O O O O O O O O O O O + + ",
"O X . X o o O O O O O O O O O O O O + + ",
"o . . X o o O O O O O O O O O O O O + + ",
"o . . X o o O O O O O O O O O O O O + + ",
"o . X X o o O O O O O O O O O O O o + + ",
"o X X X X o o O O O O O O O O O O o + + ",
"o X X X X X X o o o O O O O O O O o + + ",
"X X X o o X X X X X o o O O O O O X + + ",
"X X X O O O O O o o o o o o O O O o + + ",
"X X o O O O O O O O O O O O O O o o + + ",
"X X o O O O O O O O O O O O O O o o + + ",
"X o O O O O o o o O O O O O O O o O + + ",
"X o O O O O O o o o O O O O O O o O + + ",
"o o O O O O O O O O O O O O O O X O + + ",
"o O O O O O O O O O O O O O o o X O + + ",
"o O O O O O O O O O O O O O o X o O + + ",
"X o O O O O O O O O O O O O O X O O + + ",
"+ + + + + + + + + + + + + + + + + + + + ",
"+ + + + + + + + + + + + + + + + + + + + "
};
