/* XPM */
static char * image_name[]={
"10 13 5 2",
"  	c #78D54B",
". 	c #509F69",
"X 	c #73DE78",
"o 	c #BFBFBF",
"O 	c #5DF370",
"  . . X X X . . o o ",
"  . X O O O O . o o ",
". . O O O O O . o o ",
". X O O O O O . o o ",
". O O O O O O . o o ",
". O O O O O O   o o ",
"  O O O O O O . o o ",
"X O O O O O O . o o ",
"X O O O O O O . o o ",
"O O O O O O O . o o ",
"O O O O O O O . o o ",
"o o o o o o o o o o ",
"o o o o o o o o o o "
};
