/* XPM */
static char * image_name[]={
"48 18 13 2",
"  	c #78D54B",
". 	c #509F69",
"X 	c #73DE78",
"o 	c #5DF370",
"O 	c #BFBFBF",
"+ 	c #5E5E5E",
"@ 	c #5C5C5C",
"# 	c #595959",
"$ 	c #575757",
"% 	c #616161",
"& 	c #545454",
"* 	c #525252",
"= 	c #4F4F4F",
"  . X X X X X X X X X o o o o o o o o o o o o o o o o o o o o o o o o o o o o o o o o o .   O O ",
"  . X X X X X X X o X o o o o o o o o o o o o o o o o o o o o o o o o o o o o o o o o o .   O O ",
"  . X X X X X X o X o o o o o o o o o o o o o o o o o o o o o o o o o o o o o o o o o o .   O O ",
"  .   X X X X X X X X o o o o o o o o o o o o o o o o o o o o o o o o o o o o o o o X X .   O O ",
"  . . . . . X X X X X o o o o o o o o o o o o o o o o o o o o o o o o o o X X X X X X . .   O O ",
"  .   X X X . . . . X X X X X X o o o o o o o o o o o o o o o o X X X X X     X X X X X .   O O ",
"  .   X X X X X X X     . . . . .   X X X   X X X X X X X X X     . .   X X X X X X X X .   O O ",
"  . X X X X X X X X X X X X X X X     . . . . . . . .       X X X X X X X X X X X X X X .   O O ",
"  . X X X X X X X X X X X X X X X X X X X X X X X X X X X X X X X X X X X X X X X X X X .   O O ",
"  . X X X X X X X X X X X X X X X X X X X X X X X X X X X X X X X X X X X X X X X X X X .   O O ",
"  . X X X X X X X X X X X X X X X X X X X X X X X X X X X X X X X X X X X X X X X X X o .   O O ",
"  . X X X X X X X X X X X           . .     X           X X X X X X X X X X X o o o o o .   O O ",
"  . X X X X X X X X   . . . . . . . . . . . . . . . . . . . . . . .   X X X X X X X X o .   O O ",
".   X X X X X X   . . . . . . . . . . . . . . . . . . . . . . . . . . . . X X X X X X X X . O O ",
". X X X X X X X . . . . . . . . + @ # $ # # # # # # # @ @ % . . . . . . . . X X X o o o X . O O ",
". X X X X X X X   . . . . . . . . . % # & * = * * & # % . . . . . . . . .   X X X o o o X . O O ",
"O O O O O O O O O O O O O O O O O O O O O O O O O O O O O O O O O O O O O O O O O O O O O O O O ",
"O O O O O O O O O O O O O O O O O O O O O O O O O O O O O O O O O O O O O O O O O O O O O O O O "
};
