/* XPM */
static char * image_name[]={
"34 20 6 2",
"  	c #EFDF84",
". 	c #BFBFBF",
"X 	c #D1C166",
"o 	c #EEDD82",
"O 	c #EEE8AA",
"+ 	c #FFA07A",
"                                                                . . ",
"X o   o o o o o                                                 . . ",
"          O O     o o o X o o o o o o o o o o o o o             . . ",
"    O O O O O O O O         O O O O O O               o o       . . ",
"O O O O O O O O O O O O O O O O O O O O O O O O O O O O O O O O . . ",
"O O O O O O O O O O O O O O O O O O O O O O O O O O O O O O O O . . ",
"O O O O O O O O O O O O O O O O O O O O O O O O O O O O O O O O . . ",
"O O O O O O O O O O O O O O O O O O O O O O O O O O O O O O O O . . ",
"O O O O O O O O O O O O O O O O O O O O O O O O O O   O O O O O . . ",
"O O O O O O O O O O O O   O O O O O O O O O O O O O   O O O O O . . ",
"O O O O O O                                                     . . ",
"O O O O O                                                       . . ",
"O O O O                           o                 o o o o o o . . ",
"O O O           o o X X X + + + + + + + + + + + X + + + + + + + . . ",
"O O         X + + + + + + + + + + + + + + + + + + + + + + + + + . . ",
"O         X + + + + + + + + X X X X X X X X X X o               . . ",
"        o + + o                                                 . . ",
"        X o                                                     . . ",
". . . . . . . . . . . . . . . . . . . . . . . . . . . . . . . . . . ",
". . . . . . . . . . . . . . . . . . . . . . . . . . . . . . . . . . "
};
