/* XPM */
static char * image_name[]={
"10 10 4 2",
"  	c #509F69",
". 	c #73DE78",
"X 	c #5DF370",
"o 	c #BFBFBF",
"  . X X X X X X o o ",
"  X X X X X X X o o ",
". X X X X X X X o o ",
"X X X X X X X X o o ",
"X X X X X X X X o o ",
"X X X X X X X . o o ",
"X X X X X X X   o o ",
"X X X X X X .   o o ",
"o o o o o o o o o o ",
"o o o o o o o o o o "
};
