/* XPM */
static char * image_name[]={
"10 15 11 2",
"  	c #BDBDBD",
". 	c #FFFFFF",
"X 	c #BFBFBF",
"o 	c #D4D4D4",
"O 	c #FCFCFC",
"+ 	c #EBEBEB",
"@ 	c #F5F5F5",
"# 	c #FAFAFA",
"$ 	c #E8E8E8",
"% 	c #A8A8A8",
"& 	c #969696",
"  . . . . . . . X X ",
"o . . . . . . O X X ",
"+ . . . . . . . X X ",
"@ . . . . . . O X X ",
"# . . . O . . . X X ",
". . O . . . . . X X ",
". . . . O . O # X X ",
"# . . . O . . @ X X ",
". . . . . . . $ X X ",
". . . . . O . o X X ",
". . . O . . . X X X ",
". . O . . O . % X X ",
"O . . . . O # & X X ",
"X X X X X X X X X X ",
"X X X X X X X X X X "
};
