/* XPM */
static char * image_name[]={
"19 19 8 2",
"  	c #509F69",
". 	c #73DE78",
"X 	c #5DF370",
"o 	c #BFBFBF",
"O 	c #616161",
"+ 	c #5E5E5E",
"@ 	c #78D54B",
"# 	c #5C5C5C",
"                          . X X . o o ",
"  O                     . X . .   o o ",
"  +                   . . .       o o ",
"                  @ . . .         o o ",
"                    @           . o o ",
"                        O       . o o ",
"                    # O     @ . . o o ",
"                          . . . . o o ",
"                      . . . . . . o o ",
"@               . . . . . . . . . o o ",
"@         . . . . . . . . . . . . o o ",
"          @ . . . . . . . @ @ @   o o ",
"                  @               o o ",
"                                  o o ",
"                                  o o ",
"@                                 o o ",
"@ @ @ @                           o o ",
"o o o o o o o o o o o o o o o o o o o ",
"o o o o o o o o o o o o o o o o o o o "
};
