/* XPM */
static char * image_name[]={
"50 16 2 2",
"  	c #F08080",
". 	c #BFBFBF",
"                                                                                                . . ",
"                                                                                                . . ",
"                                                                                                . . ",
"                                                                                                . . ",
"                                                                                                . . ",
"                                                                                                . . ",
"                                                                                                . . ",
"                                                                                                . . ",
"                                                                                                . . ",
"                                                                                                . . ",
"                                                                                                . . ",
"                                                                                                . . ",
"                                                                                                . . ",
"                                                                                                . . ",
". . . . . . . . . . . . . . . . . . . . . . . . . . . . . . . . . . . . . . . . . . . . . . . . . . ",
". . . . . . . . . . . . . . . . . . . . . . . . . . . . . . . . . . . . . . . . . . . . . . . . . . "
};
