/* XPM */
static char * image_name[]={
"10 10 14 2",
"  	c #8C8C8C",
". 	c #BDBDBD",
"X 	c #FAFAFA",
"o 	c #FFFFFF",
"O 	c #BFBFBF",
"+ 	c #8A8A8A",
"@ 	c #EBEBEB",
"# 	c #A6A6A6",
"$ 	c #FCFCFC",
"% 	c #DCDCDC",
"& 	c #F7F7F7",
"* 	c #D6D6D6",
"= 	c #F2F2F2",
"- 	c #D1D1D1",
"  . X o o o o o O O ",
"+ @ o o o o o o O O ",
"# X $ o o o o o O O ",
"% o o o o o o & O O ",
"X $ o o o o $ * O O ",
"o o $ o o o o # O O ",
"o o o o o o = + O O ",
"o o o o o o - + O O ",
"O O O O O O O O O O ",
"O O O O O O O O O O "
};
