/* XPM */
static char * image_name[]={
"10 13 19 2",
"  	c #878787",
". 	c #F0F0F0",
"X 	c #FCFCFC",
"o 	c #FFFFFF",
"O 	c #DBDBDB",
"+ 	c #BFBFBF",
"@ 	c #969696",
"# 	c #BDBDBD",
"$ 	c #B3B3B3",
"% 	c #ABABAB",
"& 	c #D4D4D4",
"* 	c #FAFAFA",
"= 	c #9C9C9C",
"- 	c #8F8F8F",
"; 	c #8A8A8A",
": 	c #E8E8E8",
"> 	c #CFCFCF",
", 	c #C2C2C2",
"< 	c #8C8C8C",
"  . X o o o o O + + ",
"@ X X o o o o # + + ",
"$ o o o o o o % + + ",
"& o o o o o * = + + ",
". o o o o o * - + + ",
"X o o o o o . ; + + ",
"o o o o o * :   + + ",
"o o o o o X O   + + ",
"o o o o o o > ; + + ",
"o o o o o o , < + + ",
"o o o o o o $ - + + ",
"+ + + + + + + + + + ",
"+ + + + + + + + + + "
};
