/* XPM */
static char * image_name[]={
"10 10 5 2",
"  	c #5DF370",
". 	c #78D54B",
"X 	c #509F69",
"o 	c #BFBFBF",
"O 	c #73DE78",
"          . X . o o ",
"            X . o o ",
"            X X o o ",
"O           O X o o ",
"O             X o o ",
"X             O o o ",
"X O             o o ",
"X O             o o ",
"o o o o o o o o o o ",
"o o o o o o o o o o "
};
