/* XPM */
static char * image_name[]={
"13 13 12 2",
"  	c #9C9C9C",
". 	c #BFBFBF",
"X 	c #9B7071",
"o 	c #FF6347",
"O 	c #DA322D",
"+ 	c #F5280A",
"@ 	c #B7644D",
"# 	c #9E9E9E",
"$ 	c #BC8F8F",
"% 	c #FF7256",
"& 	c #A1A1A1",
"* 	c #999999",
"                      . . ",
"      X o O o X       . . ",
"    o + O O + + @     . . ",
"  X O X # # $ O + $ # . . ",
"  o % #     # $ + % & . . ",
"  o X         * O o & . . ",
"  o o #       $ + % & . . ",
"  X O X     $ O O $ & . . ",
"    % O O O + O X   & . . ",
"    # $ o o % $ #   & . . ",
"  & & & & & & & #     . . ",
". . . . . . . . . . . . . ",
". . . . . . . . . . . . . "
};
