/* XPM */
static char * image_name[]={
"19 19 5 2",
"  	c #D1C166",
". 	c #FFA07A",
"X 	c #EEDD82",
"o 	c #EFDF84",
"O 	c #BFBFBF",
"  . . .       X o X X X o o o o o O O ",
". . . . . .       . . o o o o o o O O ",
"X . . . .       . . o o o o o X X O O ",
"X . .         .   o o o o X .   o O O ",
".   X X X X     X o o o   . . X o O O ",
".   X o o o X         . . .   o o O O ",
". . o o o X     . . . . .   o o o O O ",
"  . X o o o o X . . .   o o o o o O O ",
"o . . .           X o o o o o o o O O ",
"o . . .   o o o o o o o o o o o o O O ",
"o .   X o o o o o o o o o o o o o O O ",
"o .   X o o o o o o o o o o o o o O O ",
"o .     o o o o o o o o o o X X X O O ",
"o .   X o o o X X o X X       . . O O ",
"o . .   X o o o o o o o X X X X X O O ",
"o o   . . . . .     .     .     . O O ",
"o o o o o X         . . . .       O O ",
"O O O O O O O O O O O O O O O O O O O ",
"O O O O O O O O O O O O O O O O O O O "
};
