/* XPM */
static char * image_name[]={
"11 15 26 2",
"  	c #9C9C9C",
". 	c #919191",
"X 	c #8A8A8A",
"o 	c #969696",
"O 	c #BFBFBF",
"+ 	c #8F8F8F",
"@ 	c #A3A3A3",
"# 	c #C7C7C7",
"$ 	c #CCCCCC",
"% 	c #878787",
"& 	c #E8E8E8",
"* 	c #FAFAFA",
"= 	c #FFFFFF",
"- 	c #A6A6A6",
"; 	c #949494",
": 	c #999999",
"> 	c #9E9E9E",
", 	c #DBDBDB",
"< 	c #8C8C8C",
"1 	c #C2C2C2",
"2 	c #DEDEDE",
"3 	c #FCFCFC",
"4 	c #F5F5F5",
"5 	c #D9D9D9",
"6 	c #858585",
"7 	c #F0F0F0",
"    . X X X o     O O ",
"  + @ # $ # %     O O ",
"  % & * = * - ;   O O ",
": > * * = * , %   O O ",
"< 1 * = = = *   o O O ",
"% 2 * 3 = = = 1 X O O ",
"< 4 = = 3 = = 5 % O O ",
". * 3 = = = = & 6 O O ",
"  = = = 3 = = 7 X O O ",
"- = = = = = = * X O O ",
"- = = = = 3 = * + O O ",
"- = = = = = = * + O O ",
"- = 3 = = = = * + O O ",
"O O O O O O O O O O O ",
"O O O O O O O O O O O "
};
