/* XPM */
static char * image_name[]={
"10 13 5 2",
"  	c #5DF370",
". 	c #73DE78",
"X 	c #509F69",
"o 	c #BFBFBF",
"O 	c #78D54B",
"            . X o o ",
"              X o o ",
"              X o o ",
"              O o o ",
".             . o o ",
".               o o ",
"X               o o ",
"X               o o ",
"X               o o ",
"X .             o o ",
"X .             o o ",
"o o o o o o o o o o ",
"o o o o o o o o o o "
};
