/* XPM */
static char * image_name[]={
"14 13 38 2",
"  	c #9C9C9C",
". 	c #7D7D7D",
"X 	c #4F4F4F",
"o 	c #424242",
"O 	c #454545",
"+ 	c #4D4D4D",
"@ 	c #BFBFBF",
"# 	c #999999",
"$ 	c #828282",
"% 	c #575757",
"& 	c #3D3D3D",
"* 	c #8F8F8F",
"= 	c #949494",
"- 	c #6E6E6E",
"; 	c #858585",
": 	c #787878",
"> 	c #707070",
", 	c #616161",
"< 	c #737373",
"1 	c #7E7E7E",
"2 	c #7F7F7F",
"3 	c #A3A3A3",
"4 	c #A1A1A1",
"5 	c #9E9E9E",
"6 	c #919191",
"7 	c #878787",
"8 	c #BABABA",
"9 	c #B5B5B5",
"0 	c #B3B3B3",
"q 	c #B0B0B0",
"w 	c #A8A8A8",
"e 	c #A6A6A6",
"r 	c #C7C7C7",
"t 	c #C2C2C2",
"y 	c #B8B8B8",
"u 	c #CFCFCF",
"i 	c #CCCCCC",
"p 	c #BDBDBD",
"              . X o O + @ @ ",
"                # $ % & @ @ ",
"                      * @ @ ",
"                      = @ @ ",
"                    # - @ @ ",
"        # * ; : > > , + @ @ ",
"< > > - > : 1 $ 2 : - , @ @ ",
"3 4 5 5   4 4   # 6 * 7 @ @ ",
"8 9 9 0 q q q w e e 4 4 @ @ ",
"r t t t @ y y y 0 0 0 q @ @ ",
"u i r r r t t t p t y y @ @ ",
"@ @ @ @ @ @ @ @ @ @ @ @ @ @ ",
"@ @ @ @ @ @ @ @ @ @ @ @ @ @ "
};
