/* XPM */
static char * image_name[]={
"13 13 11 2",
"  	c #9C9C9C",
". 	c #BFBFBF",
"X 	c #9B7071",
"o 	c #FF6347",
"O 	c #DA322D",
"+ 	c #9E9E9E",
"@ 	c #B7644D",
"# 	c #F5280A",
"$ 	c #BC8F8F",
"% 	c #A1A1A1",
"& 	c #FF7256",
"                      . . ",
"      X o O o X       . . ",
"  + @ # # O O # o     . . ",
"+ $ # O $ +   X O X   . . ",
"% & # X +       & o + . . ",
"% o O $ +       X o + . . ",
"% & # X         & o + . . ",
"% $ O o $     X O X   . . ",
"%   X O O o O O @     . . ",
"    + $ & o & $ +     . . ",
"      % % % % % % %   . . ",
". . . . . . . . . . . . . ",
". . . . . . . . . . . . . "
};
