/* XPM */
static char * image_name[]={
"10 13 5 2",
"  	c #78D54B",
". 	c #BFBFBF",
"X 	c #509F69",
"o 	c #73DE78",
"O 	c #5DF370",
"                . . ",
"  X X X X X     . . ",
"X X o O O X X   . . ",
"X O O O O o X   . . ",
"X O O O O O o X . . ",
"X O O O O O O X . . ",
"X O O O O O O X . . ",
"X O O O O O O o . . ",
"X O O O O O O O . . ",
"X O O O O O O O . . ",
"X o O O O O O O . . ",
". . . . . . . . . . ",
". . . . . . . . . . "
};
