/* XPM */
static char * image_name[]={
"21 22 10 2",
"  	c #9C9C9C",
". 	c #9E9E9E",
"X 	c #BFBFBF",
"o 	c #FF7256",
"O 	c #FF0000",
"+ 	c #FF6347",
"@ 	c #F5280A",
"# 	c #BC8F8F",
"$ 	c #9B7071",
"% 	c #DA322D",
"                  . .                 X X ",
"                . o o                 X X ",
"                . O O                 X X ",
"                . O O                 X X ",
"                . O O                 X X ",
"                . O O                 X X ",
"                . O O                 X X ",
"                . O O                 X X ",
"  . . . . . . . . O O . . . . . . . . X X ",
"  + @ @ @ @ @ @ @ O O @ @ @ @ @ @ @ o X X ",
"  + O O O O O O O O O O O O O O O O + X X ",
"  # $ $ $ $ $ $ $ O O $ $ $ $ $ $ $ # X X ",
"  .             . O O               . X X ",
"                . O O                 X X ",
"                . O O                 X X ",
"                . O O                 X X ",
"                . O O                 X X ",
"                . O O                 X X ",
"                . % %                 X X ",
"                  . .                 X X ",
"X X X X X X X X X X X X X X X X X X X X X ",
"X X X X X X X X X X X X X X X X X X X X X "
};
