/* XPM */
static char * image_name[]={
"10 13 20 2",
"  	c #FAFAFA",
". 	c #FFFFFF",
"X 	c #FCFCFC",
"o 	c #CFCFCF",
"O 	c #8A8A8A",
"+ 	c #BFBFBF",
"@ 	c #EBEBEB",
"# 	c #878787",
"$ 	c #F5F5F5",
"% 	c #8C8C8C",
"& 	c #9E9E9E",
"* 	c #CCCCCC",
"= 	c #B8B8B8",
"- 	c #ABABAB",
"; 	c #DBDBDB",
": 	c #949494",
"> 	c #F0F0F0",
", 	c #D6D6D6",
"< 	c #BABABA",
"1 	c #A6A6A6",
"  . X . . . o O + + ",
"  . . . . . @ # + + ",
"  . . . . X $ % + + ",
"@ X . . . . . & + + ",
"* . . . X . . = + + ",
"- . . . . . . ; + + ",
":   . . . . . $ + + ",
"O > . . . . .   + + ",
"# , . . . . X . + + ",
"% < . . . . . . + + ",
": 1 . . . . X . + + ",
"+ + + + + + + + + + ",
"+ + + + + + + + + + "
};
