/* XPM */
static char * image_name[]={
"11 13 15 2",
"  	c #999999",
". 	c #FFFFFF",
"X 	c #FCFCFC",
"o 	c #FAFAFA",
"O 	c #A6A6A6",
"+ 	c #BFBFBF",
"@ 	c #A1A1A1",
"# 	c #A8A8A8",
"$ 	c #ABABAB",
"% 	c #B0B0B0",
"& 	c #B3B3B3",
"* 	c #B5B5B5",
"= 	c #B8B8B8",
"- 	c #C2C2C2",
"; 	c #C7C7C7",
"  . . . . X . o O + + ",
"@ X . . . . . . O + + ",
"O . . . . . . . O + + ",
"O X . . . . . . O + + ",
"O . . . . . . . O + + ",
"# . . . . . . . $ + + ",
"% . . . . . . . & + + ",
"* . . . . . . . & + + ",
"= . . . . . X . & + + ",
"- . . . . X . . & + + ",
"; . . . . . . . & + + ",
"+ + + + + + + + + + + ",
"+ + + + + + + + + + + "
};
