/* XPM */
static char * image_name[]={
"10 13 5 2",
"  	c #509F69",
". 	c #5DF370",
"X 	c #BFBFBF",
"o 	c #73DE78",
"O 	c #78D54B",
"  . . . . . . . X X ",
"  . . . . . . o X X ",
"o . . . . . . o X X ",
". . . . . . . O X X ",
". . . . . . .   X X ",
". . . . . . .   X X ",
". . . . . . .   X X ",
". . . . . . .   X X ",
". . . . . . o   X X ",
". . . . . . o   X X ",
". . . . . . o   X X ",
"X X X X X X X X X X ",
"X X X X X X X X X X "
};
