/* XPM */
static char * image_name[]={
"34 18 2 2",
"  	c #F08080",
". 	c #BFBFBF",
"                                                                . . ",
"                                                                . . ",
"                                                                . . ",
"                                                                . . ",
"                                                                . . ",
"                                                                . . ",
"                                                                . . ",
"                                                                . . ",
"                                                                . . ",
"                                                                . . ",
"                                                                . . ",
"                                                                . . ",
"                                                                . . ",
"                                                                . . ",
"                                                                . . ",
"                                                                . . ",
". . . . . . . . . . . . . . . . . . . . . . . . . . . . . . . . . . ",
". . . . . . . . . . . . . . . . . . . . . . . . . . . . . . . . . . "
};
