/* XPM */
static char * image_name[]={
"33 18 2 2",
"  	c #9C9C9C",
". 	c #BFBFBF",
"                                                              . . ",
"                                                              . . ",
"                                                              . . ",
"                                                              . . ",
"                                                              . . ",
"                                                              . . ",
"                                                              . . ",
"                                                              . . ",
"                                                              . . ",
"                                                              . . ",
"                                                              . . ",
"                                                              . . ",
"                                                              . . ",
"                                                              . . ",
"                                                              . . ",
"                                                              . . ",
". . . . . . . . . . . . . . . . . . . . . . . . . . . . . . . . . ",
". . . . . . . . . . . . . . . . . . . . . . . . . . . . . . . . . "
};
