/* XPM */
static char * image_name[]={
"18 31 5 2",
"  	c #FFA07A",
". 	c #D1C166",
"X 	c #EFDF84",
"o 	c #EEDD82",
"O 	c #BFBFBF",
"  . X X X X X X X X X X X X X o O O ",
"  . X X X X X X X X X X X X X o O O ",
"  . X X X X X X X X X X X X X . O O ",
"  . X X X X X X X X X X X X X . O O ",
"  . X X X X X X X X X X X X X . O O ",
"  o X X X X X X X X X X X X X . O O ",
"  . X X X X X X X X X X X X X . O O ",
"  o X X X X X X X X X X X X X . O O ",
"  o X X X X X X X X X X X X X . O O ",
"  o X X X X X X X X X X X X X . O O ",
"  o X X X X X X X X X X X X X . O O ",
"  o X X X X X X X X X X X X X o O O ",
"  o X X X X X X X X X X X X o o O O ",
"  o X X X X X X X X X X X X o X O O ",
"  o X X X X X X X X X X X X o X O O ",
"  o X X X X X X X X X X X X . X O O ",
"  o X X X X X X X X X X X X . X O O ",
"  o X X X X X X X X X X X X . X O O ",
"  o X X X X X X X X X X X X   X O O ",
"  . X X X X X X X X X X X o   X O O ",
"  . o X X X o X X X X X X . . X O O ",
"  . o X X X o X X X X X X o o X O O ",
"  . o o X X X X X X X X X X o X O O ",
"    . o o X X X X X X X X X o X O O ",
"    . o X X X X X X X X X X o X O O ",
"    . . X X X X X X X X o o . X O O ",
"    . . o X X X X X X X o o . X O O ",
"      . o X X X X X X X o o . X O O ",
"    . . o X X X X X X X X X X o O O ",
"O O O O O O O O O O O O O O O O O O ",
"O O O O O O O O O O O O O O O O O O "
};
