/* XPM */
static char * image_name[]={
"11 16 2 2",
"  	c #9C9C9C",
". 	c #BFBFBF",
"                  . . ",
"                  . . ",
"                  . . ",
"                  . . ",
"                  . . ",
"                  . . ",
"                  . . ",
"                  . . ",
"                  . . ",
"                  . . ",
"                  . . ",
"                  . . ",
"                  . . ",
"                  . . ",
". . . . . . . . . . . ",
". . . . . . . . . . . "
};
