/* XPM */
static char * image_name[]={
"30 30 4 2",
"  	c #EFDF84",
". 	c #BFBFBF",
"X 	c #FFDEAD",
"o 	c #EEE8AA",
"                                                        . . ",
"                      X o o o o X                       . . ",
"                X o X             o o X                 . . ",
"              o                         o               . . ",
"          X o                             o X           . . ",
"        X o                                 o X         . . ",
"        o                                     o         . . ",
"      o                                         o       . . ",
"    X                                             X     . . ",
"    o                                             o     . . ",
"    o                                             o     . . ",
"  X                                                 X   . . ",
"  o                                                 o   . . ",
"  o                                                 o   . . ",
"  o                                                 o   . . ",
"  o                                                 o   . . ",
"  X                                                 X   . . ",
"    X                                             X     . . ",
"    o                                             o     . . ",
"    X                                             X     . . ",
"      o                                         o       . . ",
"        o                                     o         . . ",
"        X o                                 o X         . . ",
"          X o                             o X           . . ",
"              o                         o               . . ",
"                o o X             o o o                 . . ",
"                      X o o o o X                       . . ",
"                                                        . . ",
". . . . . . . . . . . . . . . . . . . . . . . . . . . . . . ",
". . . . . . . . . . . . . . . . . . . . . . . . . . . . . . "
};
