/* XPM */
static char * image_name[]={
"15 15 7 2",
"  	c #EFDF84",
". 	c #F08080",
"X 	c #BFBFBF",
"o 	c #EEDD82",
"O 	c #FF69B4",
"+ 	c #DEB887",
"@ 	c #DB7093",
"            .             X X ",
"          o O o           X X ",
"          o O o           X X ",
"          o O o           X X ",
"            O             X X ",
"  + + + + o O o + + + +   X X ",
"@ O O O O O O O O O O O . X X ",
"+ + + + + + O + + + + + + X X ",
"            O             X X ",
"          o O o           X X ",
"          o O o           X X ",
"          o O o           X X ",
"            .             X X ",
"X X X X X X X X X X X X X X X ",
"X X X X X X X X X X X X X X X "
};
