/* XPM */
static char * image_name[]={
"10 16 9 2",
"  	c #FFFFFF",
". 	c #FCFCFC",
"X 	c #FAFAFA",
"o 	c #C7C7C7",
"O 	c #BFBFBF",
"+ 	c #CFCFCF",
"@ 	c #D4D4D4",
"# 	c #D9D9D9",
"$ 	c #EBEBEB",
"      . X     o O O ",
"    . X       o O O ",
"      X .     + O O ",
"              @ O O ",
"            X @ O O ",
"              @ O O ",
"              @ O O ",
"              @ O O ",
".   . .       + O O ",
"              + O O ",
"              @ O O ",
"              @ O O ",
"              # O O ",
"              $ O O ",
"O O O O O O O O O O ",
"O O O O O O O O O O "
};
