/* XPM */
static char * image_name[]={
"10 13 24 2",
"  	c #9C9C9C",
". 	c #BFBFBF",
"X 	c #969696",
"o 	c #8C8C8C",
"O 	c #878787",
"+ 	c #949494",
"@ 	c #8F8F8F",
"# 	c #999999",
"$ 	c #C2C2C2",
"% 	c #DCDCDC",
"& 	c #D9D9D9",
"* 	c #FAFAFA",
"= 	c #FFFFFF",
"- 	c #D1D1D1",
"; 	c #EBEBEB",
": 	c #A3A3A3",
"> 	c #8A8A8A",
", 	c #F5F5F5",
"< 	c #E0E0E0",
"1 	c #FCFCFC",
"2 	c #B5B5B5",
"3 	c #F0F0F0",
"4 	c #E3E3E3",
"5 	c #CFCFCF",
"                . . ",
"  X o O O +     . . ",
"@ # $ % & o #   . . ",
"O % * = = - O   . . ",
"O ; * = = * : + . . ",
"> , = * = = < O . . ",
"@ * = 1 = = * + . . ",
"@ * = = = = = 2 . . ",
"> 3 = = = = = % . . ",
"O 4 = = = = = , . . ",
"> 5 = = = = = = . . ",
". . . . . . . . . . ",
". . . . . . . . . . "
};
