/* XPM */
static char * image_name[]={
"38 46 5 2",
"  	c #5DF370",
". 	c #BFBFBF",
"X 	c #73DE78",
"o 	c #78D54B",
"O 	c #509F69",
"                                                                        . . ",
"                                                                        . . ",
"                                                                        . . ",
"                                                                        . . ",
"                                                                        . . ",
"                                                                        . . ",
"                                                                        . . ",
"                                                                      X . . ",
"X                                                                     X . . ",
"                                                                      X . . ",
"                                                                      X . . ",
"                                                                      X . . ",
"                                                                        . . ",
"                                                                        . . ",
"                                                                        . . ",
"                                                                        . . ",
"                                                                        . . ",
"                                                                        . . ",
"                                                                        . . ",
"X                                                                       . . ",
"X                                                                       . . ",
"o                                                                       . . ",
"O                                                                       . . ",
"O                                                                       . . ",
"O                                                                       . . ",
"O X                                                                     . . ",
"O X                                                                     . . ",
"O X                                                                     . . ",
"o O                                                                     . . ",
"o O                                                                     . . ",
"o O                                                                     . . ",
"o O X                                                                   . . ",
"o o O X                                                                 . . ",
"o o O O                                                                 . . ",
"o o o O X                                                               . . ",
"o o o O                                                                 . . ",
"o o o O                                                             X O . . ",
"o o o O                                                         X O O o . . ",
"o o o O                                                       o O o o o . . ",
"o o o O                                                     X O o o o o . . ",
"o o o O                                                     O o o o o o . . ",
"o o o O                                                     O o o o o o . . ",
"o o o O                                                   X O o o o o o . . ",
"o o o O                                                   o O o o o o o . . ",
". . . . . . . . . . . . . . . . . . . . . . . . . . . . . . . . . . . . . . ",
". . . . . . . . . . . . . . . . . . . . . . . . . . . . . . . . . . . . . . "
};
