/* XPM */
static char * image_name[]={
"32 15 5 2",
"  	c #F08080",
". 	c #BFBFBF",
"X 	c #FF7256",
"o 	c #DEB887",
"O 	c #9B7071",
"                                                            . . ",
"X X X X                                                     . . ",
"                    X X X X X                               . . ",
"o o o o o o o o o o o o o             X X X X X             . . ",
"o o o o o o o o o o o o o o o o o o o o o o           X X X . . ",
"o o o o o o o o o o o o o o o o o o o o o o o o o o o o o o . . ",
"o o o o o o o o o o o o o o o o o o o o o o o o o o o o o o . . ",
"o o o o o o o o o o o o o o o o o o o o o o o o o o o o o   . . ",
"o o o o o o o o   o o     o                                 . . ",
"                                                            . . ",
"                                                            . . ",
"X X X X X X X X O O O O X X O O X O X X X O O O O X X X     . . ",
"O O O O O O O O O O O O O O O O O O O O O O O O O O O O O X . . ",
". . . . . . . . . . . . . . . . . . . . . . . . . . . . . . . . ",
". . . . . . . . . . . . . . . . . . . . . . . . . . . . . . . . "
};
