/* XPM */
static char * image_name[]={
"34 20 71 2",
"  	c #9C9C9C",
". 	c #949494",
"X 	c #BFBFBF",
"o 	c #858585",
"O 	c #828282",
"+ 	c #8F8F8F",
"@ 	c #8A8A8A",
"# 	c #7A7A7A",
"$ 	c #999999",
"% 	c #878787",
"& 	c #7F7F7F",
"* 	c #A6A6A6",
"= 	c #C7C7C7",
"- 	c #D4D4D4",
"; 	c #D9D9D9",
": 	c #CCCCCC",
"> 	c #C2C2C2",
", 	c #B3B3B3",
"< 	c #A1A1A1",
"1 	c #8C8C8C",
"2 	c #CFCFCF",
"3 	c #DBDBDB",
"4 	c #DCDCDC",
"5 	c #E8E8E8",
"6 	c #EBEBEB",
"7 	c #E3E3E3",
"8 	c #DEDEDE",
"9 	c #F5F5F5",
"0 	c #F0F0F0",
"q 	c #FAFAFA",
"w 	c #F2F2F2",
"e 	c #EDEDED",
"r 	c #E0E0E0",
"t 	c #E5E5E5",
"y 	c #D6D6D6",
"u 	c #B8B8B8",
"i 	c #C4C4C4",
"p 	c #C9C9C9",
"a 	c #B0B0B0",
"s 	c #ABABAB",
"d 	c #ADADAD",
"f 	c #B5B5B5",
"g 	c #787878",
"h 	c #7D7D7D",
"j 	c #737373",
"k 	c #9E9E9E",
"l 	c #BABABA",
"z 	c #454545",
"x 	c #424242",
"c 	c #4A4A4A",
"v 	c #4D4D4D",
"b 	c #474747",
"n 	c #545454",
"m 	c #666666",
"M 	c #616161",
"N 	c #5C5C5C",
"B 	c #595959",
"V 	c #575757",
"C 	c #636363",
"Z 	c #696969",
"A 	c #6E6E6E",
"S 	c #404040",
"D 	c #3B3B3B",
"F 	c #3D3D3D",
"G 	c #525252",
"H 	c #5E5E5E",
"J 	c #6B6B6B",
"K 	c #BDBDBD",
"L 	c #7E7E7E",
"P 	c #969696",
"I 	c #A3A3A3",
"                                                          . .   X X ",
"                                              . o O O o o + @ # X X ",
"$         $ @ % % % % o O O O O O O O & O O o * = - ; - : = > , X X ",
"< . + o o 1 = 2 2 2 2 - 3 3 3 4 ; - 2 : > > ; 5 6 6 5 7 8 - 2 = X X ",
"9 9 0 0 6 7 9 9 0 0 0 0 6 6 6 0 6 5 7 8 8 8 7 0 0 0 0 0 6 7 3 - X X ",
"9 9 9 9 9 7 q q 9 0 9 9 w 9 0 0 0 6 6 6 6 5 6 0 0 w 9 0 0 6 5 7 X X ",
"w 9 9 9 9 7 0 9 0 0 0 0 9 0 0 0 0 e 0 0 0 6 e 0 0 0 0 0 0 0 0 6 X X ",
"0 e 0 0 6 3 6 0 6 0 0 0 0 0 6 6 e e 0 6 6 6 6 6 6 e 0 e 0 0 0 0 X X ",
"7 8 7 5 7 : r 5 t 6 6 5 5 6 7 7 5 t 6 5 7 7 5 6 5 t 6 e 0 0 0 0 X X ",
"4 3 ; 3 y = - 8 ; ; 3 3 r 8 ; ; 4 3 4 3 3 3 y ; ; ; r 5 6 e 0 9 X X ",
"2 2 2 : : u i : p p : p 2 2 : = : p = = = i > = = 2 - 4 t 5 e w X X ",
"a a a s s   * a d a a d a d a d d s d a d s a , f X = 2 3 8 5 0 X X ",
"g g # h h j O + + @ % o o o o o o @ 1 + + . $   k * a l = - r t X X ",
"z x z c v b n m M N B B V B V B N M C Z A j g h O @ . < , i 2 y X X ",
"m m m m m m M c x S D F F F D F F F S x c v G n H J g @   a > p X X ",
"            $ o h h h h h h h h h h Z m V n v z z c N j @ k d K X X ",
"                                            $ + o Z G C L +   d X X ",
"                                                    o H j o P I X X ",
"X X X X X X X X X X X X X X X X X X X X X X X X X X X X X X X X X X ",
"X X X X X X X X X X X X X X X X X X X X X X X X X X X X X X X X X X "
};
