/* XPM */
static char * image_name[]={
"21 21 5 2",
"  	c #F08080",
". 	c #FF7256",
"X 	c #DEB887",
"o 	c #BFBFBF",
"O 	c #9B7071",
"              . .     X   .           o o ",
"                O     X X   .         o o ",
"                .     X X X   .       o o ",
". .             .         X X   .     o o ",
"      . . . . .                 .     o o ",
"    X                             .   o o ",
".                                 . . o o ",
".   X                               . o o ",
"X X X                                 o o ",
"X X X X X                             o o ",
"  X X X   X     X X                   o o ",
"O   X X   X X X X X X X X X           o o ",
"  X X X X X X X X X X X X X X X X     o o ",
"X X X X X X X X X X X X X X X X       o o ",
"    X X X X X X X X X X X X X         o o ",
"O .   X X X X X X X X                 o o ",
"    X                                 o o ",
"        . . . . O O O O O O O O O O O o o ",
"O O O O O O O O O . . . O O O O O O . o o ",
"o o o o o o o o o o o o o o o o o o o o o ",
"o o o o o o o o o o o o o o o o o o o o o "
};
