/* XPM */
static char * image_name[]={
"17 12 26 2",
"  	c #9C9C9C",
". 	c #BFBFBF",
"X 	c #999999",
"o 	c #969696",
"O 	c #8F8F8F",
"+ 	c #A6A6A6",
"@ 	c #878787",
"# 	c #949494",
"$ 	c #F0F0F0",
"% 	c #FAFAFA",
"& 	c #FFFFFF",
"* 	c #CFCFCF",
"= 	c #8A8A8A",
"- 	c #DEDEDE",
"; 	c #F5F5F5",
": 	c #B8B8B8",
"> 	c #EBEBEB",
", 	c #FCFCFC",
"< 	c #C4C4C4",
"1 	c #D9D9D9",
"2 	c #EDEDED",
"3 	c #E3E3E3",
"4 	c #A1A1A1",
"5 	c #D4D4D4",
"6 	c #E8E8E8",
"7 	c #B3B3B3",
"                              . . ",
"    X o o o                   . . ",
"  O o + + + O @ o             . . ",
"# X $ % % & $ *   =           . . ",
"@ - % & & & & & ; : @ X       . . ",
"@ > , & & & & & & % * @ o     . . ",
"= < & & , & & & & & % 1 O #   . . ",
"X O 2 & & & & & & & & % 3 O X . . ",
"  O 4 $ & & & & & & & & & 5 @ . . ",
"    O   6 & & , & & & & & % 7 . . ",
". . . . . . . . . . . . . . . . . ",
". . . . . . . . . . . . . . . . . "
};
