/* XPM */
static char * image_name[]={
"10 15 19 2",
"  	c #8A8A8A",
". 	c #F0F0F0",
"X 	c #FFFFFF",
"o 	c #FAFAFA",
"O 	c #BFBFBF",
"+ 	c #A1A1A1",
"@ 	c #C2C2C2",
"# 	c #DEDEDE",
"$ 	c #FCFCFC",
"% 	c #F5F5F5",
"& 	c #F7F7F7",
"* 	c #E3E3E3",
"= 	c #C9C9C9",
"- 	c #B0B0B0",
"; 	c #999999",
": 	c #8C8C8C",
"> 	c #EBEBEB",
", 	c #878787",
"< 	c #D6D6D6",
"  . X X X X o X O O ",
"+ o X X X X X X O O ",
"@ X X X X X X X O O ",
"# X X X X X $ X O O ",
"% X X X X X X X O O ",
"o X X X X X X & O O ",
"X X X X X X X * O O ",
"X X X X X X X = O O ",
"X X X X X X X - O O ",
"X $ $ X $ X $ ; O O ",
"X X X X X X & : O O ",
"X X X X $ X > , O O ",
"X X o X X X < , O O ",
"O O O O O O O O O O ",
"O O O O O O O O O O "
};
