/* XPM */
static char * image_name[]={
"10 15 4 2",
"  	c #FF7256",
". 	c #DEB887",
"X 	c #BFBFBF",
"o 	c #F08080",
"  . . . . . . . X X ",
"o . . . . . . . X X ",
"o . . . . . . . X X ",
"o . . . . . . . X X ",
". . . . . . . . X X ",
". . . . . . . . X X ",
". . . . . . . o X X ",
". . . . . . . o X X ",
". . . . . . . o X X ",
". . . . . . . o X X ",
". . . . . . .   X X ",
". . . . . . .   X X ",
". . . . . . o   X X ",
"X X X X X X X X X X ",
"X X X X X X X X X X "
};
