/* XPM */
static char * image_name[]={
"50 16 2 2",
"  	c #9C9C9C",
". 	c #BFBFBF",
"                                                                                                . . ",
"                                                                                                . . ",
"                                                                                                . . ",
"                                                                                                . . ",
"                                                                                                . . ",
"                                                                                                . . ",
"                                                                                                . . ",
"                                                                                                . . ",
"                                                                                                . . ",
"                                                                                                . . ",
"                                                                                                . . ",
"                                                                                                . . ",
"                                                                                                . . ",
"                                                                                                . . ",
". . . . . . . . . . . . . . . . . . . . . . . . . . . . . . . . . . . . . . . . . . . . . . . . . . ",
". . . . . . . . . . . . . . . . . . . . . . . . . . . . . . . . . . . . . . . . . . . . . . . . . . "
};
