/* XPM */
static char * image_name[]={
"10 15 4 2",
"  	c #509F69",
". 	c #5DF370",
"X 	c #BFBFBF",
"o 	c #73DE78",
"  . . . . . . . X X ",
"o . . . . . . . X X ",
"o . . . . . . . X X ",
". . . . . . . . X X ",
". . . . . . . . X X ",
". . . . . . . . X X ",
". . . . . . . . X X ",
". . . . . . . o X X ",
". . . . . . . o X X ",
". . . . . . .   X X ",
". . . . . . .   X X ",
". . . . . . .   X X ",
". . . . . . .   X X ",
"X X X X X X X X X X ",
"X X X X X X X X X X "
};
