/* XPM */
static char * image_name[]={
"13 8 4 2",
"  	c #DEB887",
". 	c #FF7256",
"X 	c #F08080",
"o 	c #BFBFBF",
"                  . X o o ",
"                  X X o o ",
"X                 X . o o ",
". X               X . o o ",
"X . X               X o o ",
"X X X               X o o ",
"o o o o o o o o o o o o o ",
"o o o o o o o o o o o o o "
};
