/* XPM */
static char * image_name[]={
"19 19 8 2",
"  	c #73DE78",
". 	c #5DF370",
"X 	c #509F69",
"o 	c #BFBFBF",
"O 	c #5E5E5E",
"+ 	c #78D54B",
"@ 	c #616161",
"# 	c #5C5C5C",
"  . .   X X X X X X X X X X X X X o o ",
"X   . .   X X X X X X X X X X O X o o ",
"X X X       X X X X X X X X X O X o o ",
"X X X X       + X X X X X X X X X o o ",
"  X X X X X   + X X X X X X X X X o o ",
"  X X X @ X X X X X X X X X X X X o o ",
"    + X X O # X X X X X X + X X X o o ",
"        X X X X X X X X X X X X X o o ",
"            X X X X X X X X X X X o o ",
"                  X X X X X X X + o o ",
"                        + X X X + o o ",
"+ + + +               + X X X X X o o ",
"X X X X X X X + + X X X X X X X X o o ",
"X X X X X X X X X X X X X X X X X o o ",
"X X X X X X X X X X X X X X X X X o o ",
"X X X X X X X X X X X X X X X X + o o ",
"X X X X X X X X X X X X X + + + + o o ",
"o o o o o o o o o o o o o o o o o o o ",
"o o o o o o o o o o o o o o o o o o o "
};
