/* XPM */
static char * image_name[]={
"11 16 2 2",
"  	c #EFDF84",
". 	c #BFBFBF",
"                  . . ",
"                  . . ",
"                  . . ",
"                  . . ",
"                  . . ",
"                  . . ",
"                  . . ",
"                  . . ",
"                  . . ",
"                  . . ",
"                  . . ",
"                  . . ",
"                  . . ",
"                  . . ",
". . . . . . . . . . . ",
". . . . . . . . . . . "
};
