/* XPM */
static char * image_name[]={
"34 20 6 2",
"  	c #F08080",
". 	c #BFBFBF",
"X 	c #9B7071",
"o 	c #FF7256",
"O 	c #DEB887",
"+ 	c #91535D",
"                                                                . . ",
"X o o o o o o o                                                 . . ",
"                  o o o o o o o o o o o o o o o o o             . . ",
"          O O O O                                   o o o o     . . ",
"      O O O O O O         O O O O O O O O O O O O O   O O O O O . . ",
"  O O O O O O O O O O   O O O O O O O O O O O O O O O O O O O O . . ",
"O O O O O O O O O O O   O O O O O O O O O O O O O O O O O O O O . . ",
"O O O O O O O O O O O O O O O O O O O O O O O O O O   O O O O O . . ",
"O O O O O O O O O O         O O     O O O O O O O       O O O O . . ",
"O O O O O O                                                     . . ",
"O O O O                                                         . . ",
"O O O                                                           . . ",
"O O                         o o o o o o o         o o o o o o o . . ",
"O             o o o o X X X X X X X X X X X X X X X X X X X X X . . ",
"            o X X X X X X + + + + + + + + + + + X X X X X X X X . . ",
"          o X X X X X X X X o o o o o o o o o o o               . . ",
"        o X X o o                                               . . ",
"        X o                                                     . . ",
". . . . . . . . . . . . . . . . . . . . . . . . . . . . . . . . . . ",
". . . . . . . . . . . . . . . . . . . . . . . . . . . . . . . . . . "
};
