/* XPM */
static char * image_name[]={
"13 8 4 2",
"  	c #F08080",
". 	c #FF7256",
"X 	c #DEB887",
"o 	c #BFBFBF",
"  . X X X X X X X X X o o ",
"    X X X X X X X X X o o ",
".   X X X X X X X X   o o ",
".   X X X X X X X   . o o ",
"  X X X X X X X   .   o o ",
"  X X X X X X X       o o ",
"o o o o o o o o o o o o o ",
"o o o o o o o o o o o o o "
};
