/* XPM */
static char * image_name[]={
"32 15 67 2",
"  	c #9C9C9C",
". 	c #BFBFBF",
"X 	c #999999",
"o 	c #949494",
"O 	c #8F8F8F",
"+ 	c #878787",
"@ 	c #8C8C8C",
"# 	c #858585",
"$ 	c #A8A8A8",
"% 	c #B8B8B8",
"& 	c #C4C4C4",
"* 	c #DCDCDC",
"= 	c #ABABAB",
"- 	c #CCCCCC",
"; 	c #F0F0F0",
": 	c #FAFAFA",
"> 	c #F7F7F7",
", 	c #F5F5F5",
"< 	c #8A8A8A",
"1 	c #A1A1A1",
"2 	c #EBEBEB",
"3 	c #FFFFFF",
"4 	c #FCFCFC",
"5 	c #F2F2F2",
"6 	c #EDEDED",
"7 	c #E8E8E8",
"8 	c #E5E5E5",
"9 	c #D4D4D4",
"0 	c #D1D1D1",
"q 	c #CFCFCF",
"w 	c #D6D6D6",
"e 	c #D9D9D9",
"r 	c #E0E0E0",
"t 	c #E3E3E3",
"y 	c #C2C2C2",
"u 	c #BABABA",
"i 	c #B3B3B3",
"p 	c #B0B0B0",
"a 	c #B5B5B5",
"s 	c #BDBDBD",
"d 	c #C7C7C7",
"f 	c #C9C9C9",
"g 	c #DEDEDE",
"h 	c #919191",
"j 	c #969696",
"k 	c #A3A3A3",
"l 	c #787878",
"z 	c #696969",
"x 	c #666666",
"c 	c #636363",
"v 	c #616161",
"b 	c #6E6E6E",
"n 	c #737373",
"m 	c #7E7E7E",
"M 	c #828282",
"N 	c #7F7F7F",
"B 	c #5E5E5E",
"V 	c #545454",
"C 	c #4D4D4D",
"Z 	c #4F4F4F",
"A 	c #575757",
"S 	c #595959",
"D 	c #4A4A4A",
"F 	c #424242",
"G 	c #454545",
"H 	c #474747",
"J 	c #525252",
"                                                            . . ",
"                                            X o o o O + + + . . ",
"                          X o @ + # + @ X X $ % % % & * * * . . ",
"          o @ + # + @ X X = % - * ; : : : > : : : , : : : : . . ",
"# # < o 1 % - * 2 : : : 3 : : : : 3 3 3 : > : : : : > : : : . . ",
", , : : : : : : : : 3 3 4 : : 3 4 : 4 3 : , , : : , 5 , > : . . ",
", , , , , , : : > > > : > > : > : : : : : , , , 5 , 6 ; , 5 . . ",
"7 2 7 8 7 7 2 7 7 2 2 7 6 ; 6 ; 5 5 5 5 , , , ; ; 5 2 6 ; 6 . . ",
"9 0 9 9 9 0 q 0 9 0 9 9 w e e * r r t 7 8 7 2 6 2 6 2 2 2 2 . . ",
"y u % % % i i i p p p p p i a % u s y d f q 0 w * g g r g * . . ",
"i = 1   o o o O O h O O @ @ @ @ < < O h j   k $ p a u s s u . . ",
"k o # l z x c v c x x x x z x c v v c c x z z b n l m M M N . . ",
"# n B V C Z A A A A S A V D C C C C D F G G G H D D Z J J Z . . ",
". . . . . . . . . . . . . . . . . . . . . . . . . . . . . . . . ",
". . . . . . . . . . . . . . . . . . . . . . . . . . . . . . . . "
};
