/* XPM */
static char * image_name[]={
"10 10 4 2",
"  	c #EFDF84",
". 	c #EEE8AA",
"X 	c #BFBFBF",
"o 	c #EEDD82",
"      . . . . . X X ",
"  o   . . . . . X X ",
"    . . . . . . X X ",
"o   . . . . .   X X ",
"o . . . . . .   X X ",
"  . . . . . . o X X ",
". . . . . .   o X X ",
". . . . . .     X X ",
"X X X X X X X X X X ",
"X X X X X X X X X X "
};
