/* XPM */
static char * image_name[]={
"11 16 4 2",
"  	c #F08080",
". 	c #BFBFBF",
"X 	c #FF7256",
"o 	c #9B7071",
"                  . . ",
"                  . . ",
"                  . . ",
"                  . . ",
"                X . . ",
"                  . . ",
"                o . . ",
"                  . . ",
"                  . . ",
"                  . . ",
"                  . . ",
"                  . . ",
"                  . . ",
"                  . . ",
". . . . . . . . . . . ",
". . . . . . . . . . . "
};
