/* XPM */
static char * image_name[]={
"10 15 12 2",
"  	c #FFFFFF",
". 	c #FCFCFC",
"X 	c #B8B8B8",
"o 	c #BFBFBF",
"O 	c #CFCFCF",
"+ 	c #E3E3E3",
"@ 	c #FAFAFA",
"# 	c #F5F5F5",
"$ 	c #D4D4D4",
"% 	c #BDBDBD",
"& 	c #A6A6A6",
"* 	c #949494",
"      .   .   X o o ",
"              O o o ",
"            . + o o ",
"@             # o o ",
"                o o ",
"                o o ",
"@         .     o o ",
"#     .     .   o o ",
"+               o o ",
"$               o o ",
"%       .       o o ",
"&         @     o o ",
"* @             o o ",
"o o o o o o o o o o ",
"o o o o o o o o o o "
};
