/* XPM */
static char * image_name[]={
"20 41 7 2",
"  	c #73DE78",
". 	c #78D54B",
"X 	c #509F69",
"o 	c #5C5C5C",
"O 	c #BFBFBF",
"+ 	c #5E5E5E",
"@ 	c #616161",
"                    . X X X X X X o O O ",
"                    . X X X X X X + O O ",
"                    . X X X X X X X O O ",
"                    . . X X X X X X O O ",
"                        . X X X X X O O ",
". .                       . X X X X O O ",
". X . .                   X X X X X O O ",
"X . . . .                 X X X X X O O ",
"X . . . . .     .       . X X X X X O O ",
"X X . . . . . . X . . X X X X X X X O O ",
"X X X . . . . X X X X X X X X X X X O O ",
"X X . .   . . X . . X X X X X X X X O O ",
"X . . . . . .         . X X X X X X O O ",
"X . . X .               X X X X X X O O ",
"X . . .                 . X X X X @ O O ",
"X X . .                   X X X X @ O O ",
"X X . .                   . X X X + O O ",
"X . . .                   X X X X o O O ",
". . . .                   X X X X o O O ",
"X .   .                 . X X X X X O O ",
"X .   .                 X X X X @ X O O ",
"X . .     .             X X X X X X O O ",
"X . .     .           . X X X X X . O O ",
"X           . .       . X X X X X X O O ",
"X           . . .     . X X X X X X O O ",
"X .       . . .       . X X X X @ X O O ",
"X .         . . . . . X X X X X X X O O ",
"X .         . . X X X X X X X X X X O O ",
"X .       . X X X X X X X X X X X X O O ",
"X X .   . X X X X X X X X X X X X X O O ",
"X X X X X X X X X X X       X X X X O O ",
"X X X X X X                 . X X X O O ",
"X X X X                     . X X X O O ",
"X X X .           X X X .     X X X O O ",
"X X X X .       X X X         . X X O O ",
". X X X X X . X X               X X O O ",
". X X X X X                     . X O O ",
". X X X X                       X X O O ",
". X X X                         X X O O ",
"O O O O O O O O O O O O O O O O O O O O ",
"O O O O O O O O O O O O O O O O O O O O "
};
