/* XPM */
static char * image_name[]={
"23 23 4 2",
"  	c #F08080",
". 	c #FF7256",
"X 	c #BFBFBF",
"o 	c #FF6347",
"                    .                     X X ",
"            . . o o o o o . .             X X ",
"        . . o o o o o o o o o . .         X X ",
"      . o o o o o o o o o o o o o .       X X ",
"    . o o o o o o o o o o o o o o o .     X X ",
"    . o o o o o o o o o o o o o o o .     X X ",
"  . o o o o o o o o o o o o o o o o o .   X X ",
"  . o o o o o o o o o o o o o o o o o .   X X ",
"  o o o o o o o o o o o o o o o o o o o   X X ",
". o o o o o o o o o o o o o o o o o o o   X X ",
". o o o o o o o o o o o o o o o o o o o . X X ",
". o o o o o o o o o o o o o o o o o o o   X X ",
"  o o o o o o o o o o o o o o o o o o o   X X ",
"  . o o o o o o o o o o o o o o o o o .   X X ",
"  . o o o o o o o o o o o o o o o o o .   X X ",
"    . o o o o o o o o o o o o o o o .     X X ",
"    . o o o o o o o o o o o o o o o .     X X ",
"      . o o o o o o o o o o o o o .       X X ",
"        . . o o o o o o o o o . .         X X ",
"            . . o o o o o . .             X X ",
"                  . . .                   X X ",
"X X X X X X X X X X X X X X X X X X X X X X X ",
"X X X X X X X X X X X X X X X X X X X X X X X "
};
