/* XPM */
static char * image_name[]={
"10 13 5 2",
"  	c #78D54B",
". 	c #BFBFBF",
"X 	c #509F69",
"o 	c #5DF370",
"O 	c #73DE78",
"                . . ",
"    X X X X X   . . ",
"  X X o o O   X . . ",
"  X o o o o o X . . ",
"X O o o o o o X . . ",
"X o o o o o o X . . ",
"X o o o o o o X . . ",
"O o o o o o o X . . ",
"o o o o o o o X . . ",
"o o o o o o o X . . ",
"o o o o o o o X . . ",
". . . . . . . . . . ",
". . . . . . . . . . "
};
