/* XPM */
static char * image_name[]={
"11 11 7 2",
"  	c #9C9C9C",
". 	c #969696",
"X 	c #BDB76B",
"o 	c #BFBFBF",
"O 	c #999999",
"+ 	c #96522D",
"@ 	c #9E9E9E",
"      . X .       o o ",
"    O + + + O     o o ",
"    X + + + X     o o ",
"@ X + + + + + X @ o o ",
"X + + + + + + + X o o ",
"X + + + + + + + X o o ",
"@ X + + + + + X @ o o ",
"    X + + + X     o o ",
"    O + + + O     o o ",
"o o o o o o o o o o o ",
"o o o o o o o o o o o "
};
