/* XPM */
static char * image_name[]={
"38 18 3 2",
"  	c #EFDF84",
". 	c #EEE8AA",
"X 	c #BFBFBF",
"    . . . . . . . . . . . . . . . . . . . . . . . . . . . . . . . . . . X X ",
"        . . . . . . . . . . . . . . . . . . . . . . . . . . . . . . . . X X ",
"          . . . . . . . . . . . . . . . . . . . . . . . . . . . . . . . X X ",
"        . . . . . . . . . . . . . . . . . . . . . . . . . . . . . . . . X X ",
"        . . . . . . . . . . . . . . . . . . . . . . . . . . . . . . . . X X ",
"      . . . . . . . . . . . . . . . . . . . . . . . . . . . . . . . . . X X ",
"      . . . . . . . . . . . . . . . . . . . . . . . . . . . . . . . . . X X ",
"        . . . . . . . . . . . . . . . . . . . . . . . . . . . . . . . . X X ",
"        . . . . . . . . . . . . . . . . . . . . . . . . . . . . . . . . X X ",
"      . . . . . . . . . . . . . . . . . . . . . . . . . . . . . . . . . X X ",
"    . . . . . . . . . . . . . . . . . . . . . . . . . . . . . . . . . . X X ",
"      . . . . . . . . . . . . . . . . . . . . . . . . . . . . . . . . . X X ",
"    . . . . . . . . . . . . . . . . . . . . . . . . . . . . . . . . . . X X ",
"    . . . . . . . . . . . . . . . . . . . . . . . . . . . . . . . . . . X X ",
"    . . . . . . . . . . . . . . . . . . . . . . . . . . . . . . . . . . X X ",
"  . . . . . . . . . . . . . . . . . . . . . . . . . . . . . . . . . . . X X ",
"X X X X X X X X X X X X X X X X X X X X X X X X X X X X X X X X X X X X X X ",
"X X X X X X X X X X X X X X X X X X X X X X X X X X X X X X X X X X X X X X "
};
