/* XPM */
static char * image_name[]={
"20 41 6 2",
"  	c #F08080",
". 	c #FF7256",
"X 	c #9B7071",
"o 	c #91535D",
"O 	c #696969",
"+ 	c #BFBFBF",
"                      . . X X X o O + + ",
"                      . . X X X X o + + ",
"                        . . . X X o + + ",
"                            . X X X + + ",
"                            . X X X + + ",
"                            . . X X + + ",
"                            . . X X + + ",
"                            . X X X + + ",
"                            . X X X + + ",
"                        . . . X X X + + ",
"                      . . . X X X X + + ",
"                        . . . X X X + + ",
"                        . . . . X X + + ",
"                          . . . X o + + ",
"                            . . X o + + ",
"                            . . X o + + ",
"                            . . X o + + ",
"                            . . X o + + ",
"                            . X X O + + ",
"                          . . X o o + + ",
"                          . . X o X + + ",
"                          . . X o . + + ",
"                          . X X X   + + ",
".                         . X X X   + + ",
".                         . X o o . + + ",
".                         . X X o . + + ",
".                         . X X o   + + ",
".                       . . X X o   + + ",
"X               . . . . X X X X X . + + ",
"X           . . X X X X . . . X X X + + ",
"X . . . . . . X X .           . X X + + ",
". . . . .                     . X X + + ",
". .                           . . X + + ",
"  .                 . .         . X + + ",
"  X             . .             . X + + ",
"  X . .                           . + + ",
"  X X . .                         . + + ",
"  . X .                           . + + ",
"    X                             X + + ",
"+ + + + + + + + + + + + + + + + + + + + ",
"+ + + + + + + + + + + + + + + + + + + + "
};
