/* XPM */
static char * image_name[]={
"10 10 18 2",
"  	c #8F8F8F",
". 	c #878787",
"X 	c #949494",
"o 	c #8C8C8C",
"O 	c #9C9C9C",
"+ 	c #BFBFBF",
"@ 	c #E3E3E3",
"# 	c #FAFAFA",
"$ 	c #999999",
"% 	c #A1A1A1",
"& 	c #FFFFFF",
"* 	c #D4D4D4",
"= 	c #B8B8B8",
"- 	c #FCFCFC",
"; 	c #F0F0F0",
": 	c #E5E5E5",
"> 	c #C2C2C2",
", 	c #8A8A8A",
"  . X o X O O O + + ",
"X @ # @ o $ O O + + ",
"% & & & * . O O + + ",
"$ & & & # = o O + + ",
"  # - - # ;   O + + ",
". : & & & & > , + + ",
", > & & & - ; , + + ",
"$ $ # & & & & = + + ",
"+ + + + + + + + + + ",
"+ + + + + + + + + + "
};
