/* XPM */
static char * image_name[]={
"11 20 5 2",
"  	c #5DF370",
". 	c #73DE78",
"X 	c #509F69",
"o 	c #BFBFBF",
"O 	c #78D54B",
"              . X o o ",
"              X O o o ",
"              X O o o ",
"              X O o o ",
"            . X O o o ",
"            . X O o o ",
"            . X O o o ",
"            . X O o o ",
"          . X O O o o ",
"          X X O O o o ",
"        O X O O O o o ",
"      . X O O O O o o ",
"      X O O O O O o o ",
"    X X O O O O O o o ",
"  . X O O O O O O o o ",
"  X O O O O O O O o o ",
"X X O O O O O O O o o ",
"X O O O O O O O O o o ",
"o o o o o o o o o o o ",
"o o o o o o o o o o o "
};
