/* XPM */
static char * image_name[]={
"38 18 17 2",
"  	c #CFCFCF",
". 	c #D4D4D4",
"X 	c #D9D9D9",
"o 	c #DBDBDB",
"O 	c #DEDEDE",
"+ 	c #E3E3E3",
"@ 	c #E0E0E0",
"# 	c #DCDCDC",
"$ 	c #E8E8E8",
"% 	c #EBEBEB",
"& 	c #BFBFBF",
"* 	c #E5E5E5",
"= 	c #CCCCCC",
"- 	c #C7C7C7",
"; 	c #D1D1D1",
": 	c #C4C4C4",
"> 	c #D6D6D6",
"  . X X o O O O O O O + O @ + + + + O # + + + + + + + @ + $ + $ % % $ + & & ",
"    . . X o o o o # o + O + + O O + # o # O O O + O + $ $ * + $ % % + + & & ",
"    . . . X o o X o o o O + @ O + + + + O O O O + + + $ $ + + + + + @ O & & ",
"      . X X X o # + O # O + + + $ $ + + + + + + + + + + + + O + + @ O # & & ",
"=   . . X o X X # + + + @ @ O + + + + + $ $ + + * $ + + + @ + + + + @ O & & ",
"-   . X X o o X # O @ + + + O + + + + + $ % + + $ $ + + + @ @ * + @ @ O & & ",
"- =   X X # O O # @ + + * $ + O + + + + $ % * + $ $ + + + + * $ + + + O & & ",
"- = ; . X O O O O + + + $ $ $ @ + $ $ * $ % $ + * % $ + * * % $ + + @ O & & ",
":   . . X O O O @ + * + % % % $ $ % $ $ % % % $ % % $ * $ % % $ * * + # & & ",
"-   > X X # O + + + $ * $ % % % % % $ $ $ % % % % $ % $ % % $ $ $ $ + # & & ",
"    X o # # # + + * $ $ $ $ % % % % $ $ $ $ $ $ * $ % $ $ % % $ + + + O & & ",
"  . > o # # O + + $ $ $ $ + $ % % % $ % % % % $ * * % % $ % % $ * * $ + & & ",
"  . X X o # O @ + $ % $ $ * $ % % % $ $ % % % % % $ $ % % % % $ $ $ $ + & & ",
"  . X X o @ + + + + $ * $ $ $ % % % % $ $ % % % % % $ % % % % % $ $ + + & & ",
"  . X X # + + + + + $ * $ % $ $ $ $ % $ $ $ % $ $ % $ $ % $ % $ * $ + + & & ",
". X X X O + O + + + + + + $ * $ $ $ $ % $ $ $ $ + $ $ $ $ $ $ $ + + + o & & ",
"& & & & & & & & & & & & & & & & & & & & & & & & & & & & & & & & & & & & & & ",
"& & & & & & & & & & & & & & & & & & & & & & & & & & & & & & & & & & & & & & "
};
