/* XPM */
static char * image_name[]={
"11 13 3 2",
"  	c #F08080",
". 	c #DEB887",
"X 	c #BFBFBF",
"  . . . . . . .   X X ",
"  . . . . . . .   X X ",
"  . . . . . . .   X X ",
"  . . . . . . .   X X ",
"  . . . . . . .   X X ",
"  . . . . . . .   X X ",
"  . . . . . . .   X X ",
"  . . . . . . .   X X ",
"  . . . . . . .   X X ",
"  . . . . . . .   X X ",
"  . . . . . . .   X X ",
"X X X X X X X X X X X ",
"X X X X X X X X X X X "
};
