/* XPM */
static char * image_name[]={
"13 13 6 2",
"  	c #78D54B",
". 	c #BFBFBF",
"X 	c #509F69",
"o 	c #636363",
"O 	c #616161",
"+ 	c #73DE78",
"                      . . ",
"      X X o X X       . . ",
"    X O O o o O X     . . ",
"  X O o X     X o X   . . ",
"  X O X         X X   . . ",
"  X o           X X + . . ",
"  X O X         X X + . . ",
"  X o o X     X X X + . . ",
"    X o o X X X X   + . . ",
"      X X X X X       . . ",
"+ + + + + + + + +     . . ",
". . . . . . . . . . . . . ",
". . . . . . . . . . . . . "
};
