/* XPM */
static char * image_name[]={
"15 13 43 2",
"  	c #9C9C9C",
". 	c #999999",
"X 	c #8F8F8F",
"o 	c #878787",
"O 	c #7E7E7E",
"+ 	c #8A8A8A",
"@ 	c #C2C2C2",
"# 	c #BFBFBF",
"$ 	c #919191",
"% 	c #858585",
"& 	c #828282",
"* 	c #A1A1A1",
"= 	c #B8B8B8",
"- 	c #ABABAB",
"; 	c #C7C7C7",
": 	c #DBDBDB",
"> 	c #D9D9D9",
", 	c #C9C9C9",
"< 	c #D4D4D4",
"1 	c #CFCFCF",
"2 	c #CCCCCC",
"3 	c #D1D1D1",
"4 	c #DCDCDC",
"5 	c #BABABA",
"6 	c #B3B3B3",
"7 	c #ADADAD",
"8 	c #BDBDBD",
"9 	c #B0B0B0",
"0 	c #A3A3A3",
"q 	c #949494",
"w 	c #A6A6A6",
"e 	c #9E9E9E",
"r 	c #7A7A7A",
"t 	c #757575",
"y 	c #737373",
"u 	c #8C8C8C",
"i 	c #7D7D7D",
"p 	c #787878",
"a 	c #696969",
"s 	c #6E6E6E",
"d 	c #666666",
"f 	c #636363",
"g 	c #616161",
"              . X o O + @ # # ",
"      $ % & & + * = - @ ; # # ",
"% & + *   ; ; ; : > , > < # # ",
"1 < > 2 1 < < > : > < 3 2 # # ",
"4 4 : 4 > > < 1 2 , @ 5 6 # # ",
"> 1 1 1 2 ; @ = 6 7 - *   # # ",
"@ 8 = 6 6 9 - 0   . q + + # # ",
"- w 0 * e . q + % & r t y # # ",
"6 9 7 w w *   . X u + + + # # ",
"* * e q $ X + % & i r p i # # ",
"a s y a d d f g s s s s p # # ",
"# # # # # # # # # # # # # # # ",
"# # # # # # # # # # # # # # # "
};
