/* XPM */
static char * image_name[]={
"33 18 2 2",
"  	c #EFDF84",
". 	c #BFBFBF",
"                                                              . . ",
"                                                              . . ",
"                                                              . . ",
"                                                              . . ",
"                                                              . . ",
"                                                              . . ",
"                                                              . . ",
"                                                              . . ",
"                                                              . . ",
"                                                              . . ",
"                                                              . . ",
"                                                              . . ",
"                                                              . . ",
"                                                              . . ",
"                                                              . . ",
"                                                              . . ",
". . . . . . . . . . . . . . . . . . . . . . . . . . . . . . . . . ",
". . . . . . . . . . . . . . . . . . . . . . . . . . . . . . . . . "
};
