/* XPM */
static char * image_name[]={
"11 15 4 2",
"  	c #F08080",
". 	c #FF7256",
"X 	c #BFBFBF",
"o 	c #DEB887",
"    . . . .       X X ",
"  .         .     X X ",
"  . o o o o       X X ",
"    o o o o   .   X X ",
".   o o o o o     X X ",
".   o o o o o   . X X ",
". o o o o o o   . X X ",
". o o o o o o o . X X ",
"  o o o o o o o . X X ",
"  o o o o o o o . X X ",
"  o o o o o o o . X X ",
"  o o o o o o o . X X ",
"  o o o o o o o . X X ",
"X X X X X X X X X X X ",
"X X X X X X X X X X X "
};
