/* XPM */
static char * image_name[]={
"10 13 22 2",
"  	c #8A8A8A",
". 	c #CFCFCF",
"X 	c #FFFFFF",
"o 	c #BFBFBF",
"O 	c #878787",
"+ 	c #EBEBEB",
"@ 	c #FCFCFC",
"# 	c #8F8F8F",
"$ 	c #FAFAFA",
"% 	c #9C9C9C",
"& 	c #F0F0F0",
"* 	c #B8B8B8",
"= 	c #CCCCCC",
"- 	c #D9D9D9",
"; 	c #B0B0B0",
": 	c #F2F2F2",
"> 	c #949494",
", 	c #D4D4D4",
"< 	c #BDBDBD",
"1 	c #8C8C8C",
"2 	c #A1A1A1",
"3 	c #969696",
"  . X X X X X X o o ",
"O + @ X X @ X X o o ",
"# $ X X X X @ $ o o ",
"% X X X X X X & o o ",
"* X @ X X X X = o o ",
"- X X X X @ X ; o o ",
": X X @ X X $ > o o ",
"X X X X X X &   o o ",
"X @ X X X X , O o o ",
"X X X X X X < 1 o o ",
"X X X X X X 2 3 o o ",
"o o o o o o o o o o ",
"o o o o o o o o o o "
};
