/* XPM */
static char * image_name[]={
"32 15 61 2",
"  	c #9C9C9C",
". 	c #BFBFBF",
"X 	c #878787",
"o 	c #8F8F8F",
"O 	c #949494",
"+ 	c #999999",
"@ 	c #DCDCDC",
"# 	c #D9D9D9",
"$ 	c #C4C4C4",
"% 	c #B8B8B8",
"& 	c #A6A6A6",
"* 	c #8C8C8C",
"= 	c #858585",
"- 	c #8A8A8A",
"; 	c #FAFAFA",
": 	c #F7F7F7",
"> 	c #F5F5F5",
", 	c #EDEDED",
"< 	c #E0E0E0",
"1 	c #CFCFCF",
"2 	c #BABABA",
"3 	c #A8A8A8",
"4 	c #F2F2F2",
"5 	c #FFFFFF",
"6 	c #FCFCFC",
"7 	c #A3A3A3",
"8 	c #F0F0F0",
"9 	c #EBEBEB",
"0 	c #E8E8E8",
"q 	c #E5E5E5",
"w 	c #E3E3E3",
"e 	c #DEDEDE",
"r 	c #DBDBDB",
"t 	c #D6D6D6",
"y 	c #D4D4D4",
"u 	c #D1D1D1",
"i 	c #CCCCCC",
"p 	c #C7C7C7",
"a 	c #C2C2C2",
"s 	c #BDBDBD",
"d 	c #B5B5B5",
"f 	c #B0B0B0",
"g 	c #ADADAD",
"h 	c #ABABAB",
"j 	c #A1A1A1",
"k 	c #9E9E9E",
"l 	c #B3B3B3",
"z 	c #919191",
"x 	c #828282",
"c 	c #7F7F7F",
"v 	c #7A7A7A",
"b 	c #7D7D7D",
"n 	c #7E7E7E",
"m 	c #636363",
"M 	c #666666",
"N 	c #616161",
"B 	c #5E5E5E",
"V 	c #5C5C5C",
"C 	c #595959",
"Z 	c #575757",
"A 	c #707070",
"                                                            . . ",
"X X X o O O O +                                             . . ",
"@ # # $ % % % & + + * X = - * O +                           . . ",
"; : > > ; ; : > ; ; ; ; , < 1 2 3 + + * - X X * O           . . ",
"; > 4 > ; ; : > ; 5 6 ; ; ; 5 6 ; ; ; ; ; , < 1 % 7 O - X = . . ",
"; > > > > ; > 8 > ; : ; ; ; ; ; ; ; ; ; 5 6 ; ; ; > > ; 8 > . . ",
"> > > > > > 4 8 8 4 4 ; ; : : ; : : > ; ; ; : ; ; : > > > > . . ",
"8 8 8 8 4 > 4 , , 8 8 4 > 4 8 8 8 , 9 9 9 , 8 , 9 8 8 9 0 q . . ",
"9 9 9 , 8 , 9 0 q 9 9 q q 0 w e @ @ @ r # # r # # @ @ # t 1 . . ",
"w w < e < @ @ # y y u i p p $ a s s . a a a a a p p $ a a a . . ",
"$ a a s 2 d f g h & j j 7 k   k     k j j 7 j & & & h 3 h l . . ",
"z o o - = x x c v v v v b b v v b v n c b v v v v b x - O   . . ",
"m M M N N B V V C V C V V V V C C V N m N N N N C Z C M A x . . ",
". . . . . . . . . . . . . . . . . . . . . . . . . . . . . . . . ",
". . . . . . . . . . . . . . . . . . . . . . . . . . . . . . . . "
};
