/* XPM */
static char * image_name[]={
"20 41 7 2",
"  	c #5C5C5C",
". 	c #616161",
"X 	c #509F69",
"o 	c #78D54B",
"O 	c #73DE78",
"+ 	c #BFBFBF",
"@ 	c #5E5E5E",
"  . X X X X X X o O O O O O O O O O + + ",
"  X X X X X X X o O O O O O O O O O + + ",
"X X X X X X X X o O O O O O O O O O + + ",
"X X X X X X X o O O O O O O O O O O + + ",
"X X X X X o o O O O O O O O O O O O + + ",
"X X X X X O O O O O O O O O O O O O + + ",
"X X X X X O O O O O O O O O O O O O + + ",
"X X X X X o O O O O O O O O O O O O + + ",
"X X X X X X o o X X O O O O O O O O + + ",
"X X X X X X X X X X o O O O O O O O + + ",
"X X X X X X X X X X o o O O O O O O + + ",
"X X X X X X X X o X X o O O O O O O + + ",
"X X X X X X X o O O o O O O O O O O + + ",
"X X X X X X X O O O O O O O O O O O + + ",
". X X X X X O O O O O O O O O O O O + + ",
"@ X X X X o O O O O O O O O O O O O + + ",
"@ X X X X o O O O O O O O O O O O O + + ",
"  X X X X X O O O O O O O O O O O O + + ",
"  X X X X o O O O O O O O O O O O O + + ",
"X X X X X X o O O O O O O O O O O O + + ",
"X . X X X X o O O O O O O O O O O O + + ",
"X X X X X X o O O O O O O O O O O O + + ",
"o X X X X X o O O O O O O O O O O O + + ",
"X X X X X X X O O O o O O O O O O O + + ",
"X X X X X X X o o o O O O O O O O O + + ",
"X . X X X X X o O O O O O O O O O o + + ",
"X X X X X X X o o O o O O O O O O X + + ",
"X X X X X X X X X o o O O O O O O X + + ",
"X X X X X X X X X X X o o O O O O X + + ",
"X X X X X X X X X X X X X o O O O X + + ",
"X X X X O O O X X X X X X X X o X X + + ",
"X X X X O O O O O O O O o X X X X X + + ",
"X X X X X X O O O O O O O O O o X X + + ",
"X X X o O X X X X O O O O O O O X X + + ",
"X X X O O O O X X X O O O O O O X X + + ",
"X X o O O O O O o X X O o X X X X o + + ",
"X X O O O O O O O O O O o X X X X o + + ",
"X X O O O O O O O O O O O O X X X o + + ",
"X X O O O O O O O O O O O O O X X o + + ",
"+ + + + + + + + + + + + + + + + + + + + ",
"+ + + + + + + + + + + + + + + + + + + + "
};
