/* XPM */
static char * image_name[]={
"15 15 7 2",
"  	c #F08080",
". 	c #BD52BD",
"X 	c #BFBFBF",
"o 	c #4955A5",
"O 	c #FF7256",
"+ 	c #FF69B4",
"@ 	c #735694",
"            .             X X ",
"          . o .           X X ",
"          . o .           X X ",
"          . o .           X X ",
"          O o O           X X ",
"  + + + + . o . + + + +   X X ",
". o o o o o o o o o o o . X X ",
"+ . . . . . o . . . . . + X X ",
"          O o O           X X ",
"          . o .           X X ",
"          . o .           X X ",
"          . o .           X X ",
"          O @ O           X X ",
"X X X X X X X X X X X X X X X ",
"X X X X X X X X X X X X X X X "
};
