/* XPM */
static char * image_name[]={
"8 17 38 2",
"  	c #DCDCDC",
". 	c #D9D9D9",
"X 	c #D4D4D4",
"o 	c #DBDBDB",
"O 	c #DEDEDE",
"+ 	c #BFBFBF",
"@ 	c #E3E3E3",
"# 	c #E8E8E8",
"$ 	c #C7C7C7",
"% 	c #CFCFCF",
"& 	c #A6A6A6",
"* 	c #B0B0B0",
"= 	c #B3B3B3",
"- 	c #7D7D7D",
"; 	c #858585",
": 	c #8A8A8A",
"> 	c #454545",
", 	c #4D4D4D",
"< 	c #575757",
"1 	c #292929",
"2 	c #2B2B2B",
"3 	c #303030",
"4 	c #3B3B3B",
"5 	c #363636",
"6 	c #333333",
"7 	c #383838",
"8 	c #424242",
"9 	c #404040",
"0 	c #3D3D3D",
"q 	c #6E6E6E",
"w 	c #696969",
"e 	c #666666",
"r 	c #919191",
"t 	c #8F8F8F",
"y 	c #8C8C8C",
"u 	c #ABABAB",
"i 	c #B8B8B8",
"p 	c #BDBDBD",
"  . X X o O + + ",
"@   .   @ # + + ",
"$ % % % % % + + ",
"& * * = = = + + ",
"- ; : : : ; + + ",
"> , < < < , + + ",
"1 1 1 2 2 3 + + ",
"4 5 6 6 5 4 + + ",
"4 4 7 5 4 4 + + ",
"5 7 7 5 5 7 + + ",
"8 8 9 0 9 8 + + ",
"q w e e w q + + ",
"r t y y t r + + ",
"u u & & & u + + ",
"i p i i i p + + ",
"+ + + + + + + + ",
"+ + + + + + + + "
};
