/* XPM */
static char * image_name[]={
"23 23 10 2",
"  	c #9C9C9C",
". 	c #999999",
"X 	c #BC8F8F",
"o 	c #BFBFBF",
"O 	c #9E9E9E",
"+ 	c #FF7256",
"@ 	c #DA322D",
"# 	c #F5280A",
"$ 	c #FF0000",
"% 	c #FF6347",
"                  . X .                   o o ",
"        O   X + @ @ @ @ @ + X   O         o o ",
"        X + # $ $ $ $ $ $ $ # + X O       o o ",
"      X @ $ $ $ $ $ $ $ $ $ $ $ @ X       o o ",
"    X @ $ $ $ $ $ $ $ $ $ $ $ $ $ @ X O   o o ",
"    % $ $ $ $ $ $ $ $ $ $ $ $ $ $ $ %     o o ",
"  X # $ $ $ $ $ $ $ $ $ $ $ $ $ $ $ # X O o o ",
"  + $ $ $ $ $ $ $ $ $ $ $ $ $ $ $ $ $ + O o o ",
"  @ $ $ $ $ $ $ $ $ $ $ $ $ $ $ $ $ $ @   o o ",
". @ $ $ $ $ $ $ $ $ $ $ $ $ $ $ $ $ $ @ X o o ",
". @ $ $ $ $ $ $ $ $ $ $ $ $ $ $ $ $ $ @ X o o ",
"  @ $ $ $ $ $ $ $ $ $ $ $ $ $ $ $ $ $ @ X o o ",
"  @ $ $ $ $ $ $ $ $ $ $ $ $ $ $ $ $ $ @   o o ",
"  + $ $ $ $ $ $ $ $ $ $ $ $ $ $ $ $ $ + O o o ",
"  X # $ $ $ $ $ $ $ $ $ $ $ $ $ $ $ # X O o o ",
"    % $ $ $ $ $ $ $ $ $ $ $ $ $ $ $ %     o o ",
"    X @ $ $ $ $ $ $ $ $ $ $ $ $ $ @ X O   o o ",
"      X @ $ $ $ $ $ $ $ $ $ $ $ @ X       o o ",
"        X + # $ $ $ $ $ $ $ # % X O       o o ",
"            X + @ @ @ @ @ + X             o o ",
"                  X X X                   o o ",
"o o o o o o o o o o o o o o o o o o o o o o o ",
"o o o o o o o o o o o o o o o o o o o o o o o "
};
