/* XPM */
static char * image_name[]={
"34 18 2 2",
"  	c #EFDF84",
". 	c #BFBFBF",
"                                                                . . ",
"                                                                . . ",
"                                                                . . ",
"                                                                . . ",
"                                                                . . ",
"                                                                . . ",
"                                                                . . ",
"                                                                . . ",
"                                                                . . ",
"                                                                . . ",
"                                                                . . ",
"                                                                . . ",
"                                                                . . ",
"                                                                . . ",
"                                                                . . ",
"                                                                . . ",
". . . . . . . . . . . . . . . . . . . . . . . . . . . . . . . . . . ",
". . . . . . . . . . . . . . . . . . . . . . . . . . . . . . . . . . "
};
