/* XPM */
static char * image_name[]={
"30 30 10 2",
"  	c #9C9C9C",
". 	c #BFBFBF",
"X 	c #A1A1A1",
"o 	c #7C98D3",
"O 	c #729FFF",
"+ 	c #49D4F0",
"@ 	c #19CCDF",
"# 	c #9E9E9E",
"$ 	c #A3A3A3",
"% 	c #7E88AB",
"                                                        . . ",
"                X X o O + @ @ + O o X X                 . . ",
"            X X O @ O o o X X o o + @ O X #             . . ",
"          X o @ o X X X X X X X X X X o @ o             . . ",
"      X X O + X X X # # # # # # # # X X X + O X         . . ",
"      X O + X X # #                 # # X X + O X       . . ",
"      o + X X #                         # X X + o       . . ",
"  X X + X X #                             # X X + X #   . . ",
"  X O o X #                                 # X o O #   . . ",
"X X @ X X                                     X X @ X   . . ",
"X o + X                                       # X + o   . . ",
"X O o                                           # o O   . . ",
"X + X                                           # $ +   . . ",
"X + X                                           # X +   . . ",
"X + X                                           # X +   . . ",
"X + X                                           # $ +   . . ",
"X O o                                           # o O   . . ",
"X o O                                           # O o   . . ",
"X X @ X X                                     X X @ X   . . ",
"# X O o X                                     X o O X   . . ",
"  X X + X                                     X + X #   . . ",
"  # X o + X #                             X X + o X #   . . ",
"      X O + X #                         # X + O X       . . ",
"      X X O + X                         X + O X X       . . ",
"      # X X o + o X                 X o @ o X X         . . ",
"          X X $ + @ O o % X X % o + @ + $ X X           . . ",
"              X X X o O + @ @ + O o X X X #             . . ",
"                # X X X X X X X X X X                   . . ",
". . . . . . . . . . . . . . . . . . . . . . . . . . . . . . ",
". . . . . . . . . . . . . . . . . . . . . . . . . . . . . . "
};
