/* XPM */
static char * image_name[]={
"13 13 12 2",
"  	c #9C9C9C",
". 	c #BFBFBF",
"X 	c #9B7071",
"o 	c #FF6347",
"O 	c #DA322D",
"+ 	c #FF7256",
"@ 	c #F5280A",
"# 	c #B7644D",
"$ 	c #BC8F8F",
"% 	c #9E9E9E",
"& 	c #A1A1A1",
"* 	c #999999",
"                      . . ",
"      X o O o X       . . ",
"    + @ O O @ @ #     . . ",
"  $ O #     $ O @ $ % . . ",
"& + + %     % $ @ o % . . ",
"& o $           O o % . . ",
"& o X         $ @ + % . . ",
"  $ o $     $ O O $ % . . ",
"    $ o o o O O X     . . ",
"    %   X + X *       . . ",
"                      . . ",
". . . . . . . . . . . . . ",
". . . . . . . . . . . . . "
};
