/* XPM */
static char * image_name[]={
"19 19 6 2",
"  	c #EFDF84",
". 	c #EEE8AA",
"X 	c #D1C166",
"o 	c #EEDD82",
"O 	c #FFA07A",
"+ 	c #BFBFBF",
"    .     X o   o o X X O O O O X + + ",
"      .     O O X X X X O O O O O + + ",
"o o           O O X X X O O O O X + + ",
"o X O o         X O X X X X O O o + + ",
"  o O O X       o X X o o o o X O + + ",
"    X O O O X X X X o       o X O + + ",
"      X O O O O O X X o       O O + + ",
"          X O O O o         o O X + + ",
"              o X X X X X O O O   + + ",
"                      o X O O O   + + ",
"                          o O O   + + ",
"                          o X O   + + ",
"o o                     o o X O   + + ",
"O X X X X o o o             X O   + + ",
"o o o o o               o X O O   + + ",
"O X X O O O O X X O O O O O X     + + ",
"X X X O O O O X X X o o           + + ",
"+ + + + + + + + + + + + + + + + + + + ",
"+ + + + + + + + + + + + + + + + + + + "
};
