/* XPM */
static char * image_name[]={
"21 21 6 2",
"  	c #EFDF84",
". 	c #EEDD82",
"X 	c #EEE8AA",
"o 	c #BFBFBF",
"O 	c #D1C166",
"+ 	c #FFA07A",
"          .   X X     .               o o ",
"        .   X X X   O                 o o ",
"      .   X X X X X .                 o o ",
"    .   X X X X X X .             . . o o ",
"    .   X X X X   X     . . .       X o o ",
"  O   X X X X     X X X X   X X X X   o o ",
"  .               X X X X X X X X X   o o ",
".                   X X X X X X X X . o o ",
"                    X X X X X X X X X o o ",
"                    X X X X X X X X X o o ",
"X               X X X X X X X X X X   o o ",
"X   X X X X X X X X X X X X X X X X O o o ",
"X X X X X X X X X X X X X X X X X X   o o ",
"    X X X X X X X X X X X X X X X X X o o ",
"      X X X X X X X X X X X X X X     o o ",
"          X X X X X X X X X X X X . + o o ",
"                            X X X     o o ",
"O O + + O O O O O O . . . . .       X o o ",
"O + + + + + O O O O O + + + + + + + O o o ",
"o o o o o o o o o o o o o o o o o o o o o ",
"o o o o o o o o o o o o o o o o o o o o o "
};
