/* XPM */
static char * image_name[]={
"100 75 104 2",
"  	c #FFFFFF",
". 	c #F5F5F5",
"X 	c #474747",
"o 	c #454545",
"O 	c #3D3D3D",
"+ 	c #3B3B3B",
"@ 	c #383838",
"# 	c #2E2E2E",
"$ 	c #050505",
"% 	c #121212",
"& 	c #242424",
"* 	c #737373",
"= 	c #8A8A8A",
"- 	c #7D7D7D",
"; 	c #1F1F1F",
": 	c #363636",
"> 	c #4D4D4D",
", 	c #545454",
"< 	c #575757",
"1 	c #5C5C5C",
"2 	c #5E5E5E",
"3 	c #666666",
"4 	c #696969",
"5 	c #6E6E6E",
"6 	c #707070",
"7 	c #616161",
"8 	c #595959",
"9 	c #4F4F4F",
"0 	c #4A4A4A",
"q 	c #333333",
"w 	c #292929",
"e 	c #9C9C9C",
"r 	c #B8B8B8",
"t 	c #B3B3B3",
"y 	c #B0B0B0",
"u 	c #A6A6A6",
"i 	c #7E7E7E",
"p 	c #0F0F0F",
"a 	c #ADADAD",
"s 	c #A3A3A3",
"d 	c #9E9E9E",
"f 	c #969696",
"g 	c #919191",
"h 	c #8F8F8F",
"j 	c #858585",
"k 	c #212121",
"l 	c #F2F2F2",
"z 	c #D6D6D6",
"x 	c #424242",
"c 	c #000001",
"v 	c #999999",
"b 	c #141414",
"n 	c #525252",
"m 	c #636363",
"M 	c #757575",
"N 	c #787878",
"B 	c #828282",
"V 	c #7F7F7F",
"C 	c #7A7A7A",
"Z 	c #303030",
"A 	c #C2C2C2",
"S 	c #BABABA",
"D 	c #B5B5B5",
"F 	c #A8A8A8",
"G 	c #1C1C1C",
"H 	c #A1A1A1",
"J 	c #CCCCCC",
"K 	c #171717",
"L 	c #0D0D0D",
"P 	c #6B6B6B",
"I 	c #949494",
"U 	c #8C8C8C",
"Y 	c #404040",
"T 	c #C7C7C7",
"R 	c #BFBFBF",
"E 	c #878787",
"W 	c #2B2B2B",
"Q 	c #ABABAB",
"! 	c #1A1A1A",
"~ 	c #C4C4C4",
"^ 	c #BDBDBD",
"/ 	c #FAFAFA",
"( 	c #E8E8E8",
") 	c #CFCFCF",
"_ 	c #E5E5E5",
"` 	c #262626",
"' 	c #C9C9C9",
"] 	c #FCFCFC",
"[ 	c #D1D1D1",
"{ 	c #E0E0E0",
"} 	c #D4D4D4",
"| 	c #F7F7F7",
" .	c #D9D9D9",
"..	c #DBDBDB",
"X.	c #E3E3E3",
"o.	c #EBEBEB",
"O.	c #DEDEDE",
"+.	c #F0F0F0",
"@.	c #EDEDED",
"#.	c #030303",
"$.	c #080808",
"%.	c #DCDCDC",
"&.	c #000000",
"*.	c #0A0A0A",
"                        . X o o o O + @ # $ % & * = - $ ; : o > , < 1 2 3 4 5 5 6 * 5 6 5 3 7 8 9 > o 2 0 q w e r t y u i & p + a s d f g h j * * * * 4 9 q k w q : + + O l                             ",
"                          z x O + + : w c ; # & v f % b q 0 n 8 2 m 3 5 6 M M N i - B B B V C * 5 3 7 1 , 0 + Z 5 A S D F * G b V y u H e f g j B i i C 3 > : w # q : @ J                               ",
"                            y @ @ + : c K + o 5 d N L & o < 2 3 P 5 * N - B j = = h g f v f v v I h U j B * 3 , Y > A T R t 3 G % y t a u H e g = E E E C 3 < w O W q H                                 ",
"                              e Z o x L o < > Q F L ! + < m P * * - B j = h I e e u Q Q F y y y t t a a Q s f B P , X N T ~ ^ 1 G ! R r t a u H E f I f h B N 6 2 0 B /                                 ",
"                              ( , c K : 4 5 e t : % # n 3 * N i B j h h v e H Q F y y r D r t r S ^ A S r t t s h N 3 1 < 5 J ) : ; Y ~ ^ r D Q e E H H u I I v H 4 ( /                                 ",
"                              _ @ ` 3 B j E ^ H % ; x 3 C B j = h I f e s F a D r ^ ^ R A R A A A T ~ A A ^ S r Q e U C 5 4 4 7 ^ W ! h ' A ^ r s < Q y y a t ^ T s U /                                 ",
"                            ] [ 1 a u F e R A K K : 7 C j = = I v d H u a t r R A A T A T ' T ' A T ' T T ~ ' T R r Q d h j B * m o # ; A ' A A r = D S S ^ T ) { } o .                                 ",
"                            | N s  .~ S a A 7 b w 9 N E g I v e H u Q t r S A T ~ ' ' J ' [ J J J ' ' J ' ' ) J ' J A ^ a H v U - 7 o # W J J T ~ Q B T T T ) ..X.o.5 } /                               ",
"                            l : O.{ [ A A t b k Y 5 = f d H s u Q t r S R A T ' ) ) J ) ) J [ J ) ) ' ) [ ) [ J [ [ J J ~ r a s I i 7 x Z Z [ J ' J Z ) ) } z X.o.+.( S /                               ",
"                            +.# o.X.} J T % G : 2 j v H u Q t y t S ^ ~ ' J J } ) [ } } [ [ [ } ) } } ) } } [ ) } } } } [ T A D Q f i m X : W ~ [ } H ' } ..O.X.o.l @.A .                               ",
"                            y % +.X.X.T o % ` > C v F Q y t r r A A ~ ) ) [ [ } } [ [ } [ z } } z } } [ }  .}  .} [ } } } ) J ' ^ t v B m 9 O Z s ..z ,  .O.X.o.+.@.. A R                               ",
"                            1 #.o._ { , $.; + P I Q r D r S A A A ' ' J } z } } z } } } } } [ z z z z  . .z %.z  .z  .z ..} } ) ' A t H E P 8 o q C %.a  .{ X.@.o.+.l t 7                               ",
"                            / W o._ X.% $.# , = Q r R A A A A ' T ' ) } }  . . . . .z  .%. .z  . .z %.z  . . .z  . . . . . .z } } ) T r u g - 3 > : Y H U { o.+.o.@.l @.+.                              ",
"                              A o.o.a G % + 6 u ^ ~ ~ ' T J J J ) [ .. ...%. . .z z  .[ } .. .z %. . . . .%. . .......%. ... . . .z [ T ^ t e = 6 n q ; W { ( o.} +.+..                                 ",
"                              ] ( ( Z w ! > U r T J ' ' T J ) ) }  . . . .%. ...[ z .. . .}  . .z  .%...%...{ %.%.%. . ..... .z %...} [ J T S F g * n Z ` 3 ( +.l @.+..                                 ",
"                              / { o.c O ` 7 s T ) ) ) J J } ) [ z %.%. .O.O.%. . .%...z  . ... ...{  .O.O.%.%.O. . . . .....z  . .%... .[ [ A r y v * o W O ' +.l o.. .                                 ",
"                              . ( U &.X q V r ) } ) ) ) J ) J [ } [ z [ }  .%.}  .%. .z %.%. ... .X.%.%.%.%.O.....O.{ {  ..... .} } } ) ) J ) T ~ t I 3 + : 2 ( @.+.@..                                 ",
"                              o.( q #.> o f T } z } [ ) J [ J T T ' ' ' ) } }  .z  . .%. ...O.O.{ ..O...%.O.O.O.{ O... .z z } ) ) ' T T J } ) J ' T t = < : 2 M o.+.+..                                 ",
"                              { ) ! *.> 7 a } z } } } ) J J T A R A A T ~ J ) z }  .%...%.z %.O.%.X.{ { { {  .O.%... . .} [ J ' T A A R A A ) ) J T T Q N Y > @ ( +.l .                                 ",
"                              { A &.G n B ^  . . .} ) A S ^ D S S D A A ~ T J ' [ }  . ... .{ O.O.O.X.X.X.%.{ X.%.z  .[ } ) ) T A A S r r ^ A T ~ } ) A e 1 O 7 z +.+..                                 ",
"                              %.j &.W < e J } ~ ) ~ Q e s a J ' e a A ^ R ~ T J J z z  . . .O.%.{ { X.{ %.%.X.%.%. . .} ) T T T A ^ t H ' J t F H y A } A = + C I . . .                                 ",
"                            / ..*.&.O P r } D T [ ) A A S r S r u t D t ^ A ~ T T ) z }  . .O.{ { { %.X.O.O.{ O. . .} ) J T T A r r S a S ^ A A A ) [ } ^ F J h n +.+.|                                 ",
"                            +. .&.&.X ' a } ..z ) A ^ R S S ^ S ^ A D ^ t ^ A ~ T ) [ [ z ..O.O.%.{ X.X.{ %.%. .} } J J J T T t ~ ^ R ^ ^ A T A A T } ....J h E T l +./                                 ",
"                            / [ #.; ) e [  .z ) ~ A ^ ^ S S S A R A ~ ~ t T ^ ~ ~ ~ ) [ } z  .O.O.X.X.{ { O.O. .} ) ) J T A ' ^ T T A A A A ^ A A ~ T ) %.O.A 1 4 ) +./                                 ",
"                               .k J 2 S }  .J T R ^ ^ S r r S S R ^ ~ A T A } A ~ ~ T ) ) } }  .%.X.X.{ {  . . .} ' J ' A } T ) J J A ~ A T ^ ^ T A T T ) z ..H h e [ ]                                 ",
"                              S [ #., [ z ) T A A r r D t t r ^ R T T T J ' ~ } ~ A ~ J ' } )  .X.X.O.{ %.O. .} ) T ~ T [ T ) ) ) ) J A A ^ ^ R ^ A A A J z %.[ t 6 X.}                                 ",
"                            / o.G #.> ) } T A r r D t y t Q t D ^ A T J J ) ' ^ A A ' T ) ) [ z %.O.O.%...z } ) ) J J R ' ) z } } J T ~ ^ r D ^ S ^ A ~ A )  .X.) o l { o.                              ",
"                            . 4 $.X 3 } ) A R ^ r D y a F u Q t ^ ~ T ' J J J ' J r ~ T J J } }  .O.%. .}  .[ ) J J R  .J  .}  .[ ) J T S D y y D r A T ~ J } %.%.E / ] ^ /                             ",
"                            X.b L X.} } T A A S ^ D t F Q D ^ ^ A A A } J [ J [ J z ~ A A ~ T [ ..O.%. .} } ) T T T  .[ %... . .[ } J ' ~ A ^ D t S A A ~ ' [  .o.} +.]   O.                            ",
"                        S N P ! W   X.) ~ A ~ T A A A y y t Q Q Q ' ) ) } } ) ) ) ) A A A T T [ z %... .) J J T ~ ^ .. . .O... .} } J Q F a a Q y T J ~ ' ) J [ X.+.  l   r /                           ",
"                        X.X.5 + A   ( T A A ' J J ' A u e U = S A Q ^ } } } } } } T ' A A A ~ ' } %... .} T T T ~ ' )  . .%...%. .^ Q A ^ U g f Q T J } [ [ ) [ ..+./ .   / +.                          ",
"                          }         l r S T J J T ' ~ A ^ r t Q U A Q ~ z } z z } ) %.A A S R J } .. . .J A ^ A T { }  .%.O.%.z ~ a T h a t S ^ A A ~ '  .} ) T ' / (       )                           ",
"                        ] ~         ..v Q ^ T ) [ [ } J ) J J A t d T Q [ }  ...z [ ..A S D r T z z %.} ~ A ^ ~ A X. .%.%.{ %.} Q T e t A ) J ) } ) [ } } z J ^ s O.        R                           ",
"                        / J   | j ; k I h D r ' }  .%.z z ' T ) } D g ) S } O. . .) z R r y t D ~ } ) T S D D A R O.z %.{ O...r J g t  .} ) '  .%. .z ..[ ~ T Q c p k U |   T ]                         ",
"                        / N Z & H |   o.H t = [  .%.O.} A T ~ ) } ) y C A  . .%.} } } D a u r T J J ' ) T r F A r %.z O.O.X.%.~ i t )  .[ A T T } X.X...O.I ' r *.0 | H k Z * /                         ",
"                        | - ]         T - r Q } } } O.~ T 3 4 M  .O.D E ....O.%. .} ) T s f U U ~ J J ~ g f v F T .. .X.X.{  .%.E t { { M 4 3 ~ ~ X._ O.O.r } g %.        ] * /                         ",
"                        / [           y o ~ A J  ...O.T ^ 0 U j ..O.t f S { %... .) } t Q e s A ' J ' ) ~ u s y D %. .{ %.X.{ A I r _ X.B U > ^ T X.X.....z [ 0 R           ) ]                         ",
"                        / '         ] D X ) t J ) } O.T A * 1 = %.O.y I j .. . . .} %.t Q u D T ' T ' T J A y y D X.} z  .%.O.U I y X.%.= 1 * A T %.O.O...R { + - ]         T ]                         ",
"                        ] T         / ~ 7 } f A ' ) [  .A T T [ z ~ Q C A %.%. . .J  .D y y ^ T T ~ T J J ~ D y S  .) } O.z O.~ C s A  .} ' ~ A  . . . . .e { x R /         T                           ",
"                          ( ]       / } s O.r y ^ ~ ' ) %.) J z ' y h ^ %.%.z  . .) r r y r ^ ~ T T A J J T S t S r } z  .%.%.O.R U y J  .J J ..[ z [ ) A ^ X.P } /       / o.                          ",
"                          +.%.      /  .) { A N Q ^ R A A T A S y U J z %. .} ..} } H y t D ^ T ~ R R T ) T S D t u  .z ..X. .{  .J U a S ~ J ' J ' J ^ i %.o.e  .]       %.l                           ",
"                          ] [       ] X. .X.O.r g B y t t t t H B z ' [ [ } } z ) } D y r S A T A r S A J ' A ^ y r } } ..} z }  .) } B H t S A R A = g } X.o.' _         [ ]                           ",
"                            o.%.      X.%.O.{ J t ' I 5 * M g T ' ^ T A T [ [ ) J e t t ^ r A ^ D t D D A ~ A A S t v } ) [ [ ' A T R J J g M M P f } J  ._ +.@.(        .+.                            ",
"                              { /     _ X.X._ %.[ t D ~ T ~ ^ D t r r A ' J ) ' ~ D t ^ t S r t S R A ^ t S ^ S A r r ~ T [ [ ' A r r r r A J ) ' T A %.{ X.+.+.+.    | {                               ",
"                              . T     X.{ _ X.{  .' ) A r r D y Q r A T J ) T X.Q t r ^ Q t D ' [ ..} z J S D a T A r a { J J ' J A r Q y ^ S A J z )  .( _ o.+.@.    T |                               ",
"                                ( ^   o.%.X._ X.z ) J S t Q y D S A ' [ ) ' ..s t S A u Q A  ._ ( o.( o.X...T t t A ^ D u %.J ) ) ' J R r t y r A T ) O._ @.l +.l   R @.                                ",
"                                  ( A |  .X._ X. ...J T T ~ T T ' ) ) ) ) %.F ^ S A a r J %.( +.. l . | +.+.o.z r y A A ^ F  .) } } ) J ' T ~ ' J [  .{ ( @.+.@.| A @.                                  ",
"                                    o...A { ( X.X. .z z [ ) } } [ } ) J  .D A T ' A ) %. .%.( o.+.l . +.. +.@.o.( z T [ T A r z J } ) [ [ ) } [ z } %.X.( @.@.J %.+.                                    ",
"                                      ] } ) ' o.X.O.z z }  .) z } A %.t ~ ' ) } [ R } z z J z ..X._ ( X.( X.O.X.( ( ~ } } J T A y %.T } } } z [ %.%.X._ o.) } ..]                                       ",
"                                        l  .T O.' S ' ' [ ~ ~ }  .t J J ) }  .O.%.' y a 5 h t A ' z z } [ ' s * A ~ J O.O.z z [ } ) t  .z ~ ~ } ) ' A J X.} ( |                                         ",
"                                          ) { X.X.T A r ~ t ~ } } } ) [ z { { ( { z R s y f E e y r ^ ^ t s v D D T ..X.o.X.{ ......} O.} ~ r ~ ^ T [ @.+.o._                                           ",
"                                          ) z { X.{ X._ { X. . . . .%.O.X._ o.( ( { } T v J A I U I v d Q } %.a } z { X.@.o.( X.X...O.%.%.%.X.X.( o.+.+.@.( (                                           ",
"                                          +.T } { { X.{ O.X.X.O.X.{ { _ ( o.+.@.X._ X.X.O.z [ t I j j v ~ X.( o.o.X.( o.+.+.@.@._ ( O.X.{ X._ ( o.o.o.o.o.X..                                           ",
"                                            A J } %.O.X._ ( ( X.( _ X.( @.+.@.o.( ( ( _ ( X.O.z ' A R T %.( o.+.o.( o.@.+.+.@.+.o.( ( ( @.( @.o.( o.@.( X. .                                            ",
"                                            } T } } { X.%.X._ X.( _ o.o.@.+.+.o.( o.o.( +.o.o.X.{ O.{  .( +.l @.+.@.+.+.+.+.@.o.@.( o.o.o.( ( o.@.o.( X.X.X.                                            ",
"                                            / S T }  ...{ O.X._ o.( ( o.+.@.o.( ( ( ( @.+.+.@.+.o.o.o.( o.l | . +.@.+.+.. +.+.l @.+.o.@.+.@.+.@.o.X.X...} ]                                             ",
"                                              ~ A J [ ..{ X._ _ ( ( ( @.o.+.l o.o.@.o.+.+.o.. +.@.@.+.o.l . +.+.+.l +.. . l l l +.l o.o.( o.o.( ( X...z z                                               ",
"                                              ] t A J } %.X.{ X._ ( ( o.o.+.@.o.o.o.+.+.. l . +.| +.+.@.. . . l l . +.l l +.+.+.+.+.@.@.o.( ( ( X.%.z J ]                                               ",
"                                                [ r T ) z ..%.X.( X.o.( ( o.o.+.( o.@.. | . . / . . +.l . l . | +.. l . l +.+.l . o.@.@.@.o._ _ O. .J {                                                 ",
"                                                  Q S T ) ..%.{ X.X.( X._ ( ( @.( ( @.+.+.l +./ +./ l / . / / l . l l l . . @.@.+.o.o.o.( _ { %. .[ ~                                                   ",
"                                                  . Q R ' )  .%.X.{ O.X.@.X.( o.o.( @.@.. / +.. l | . | | | . . . / +.. +.. +.@.+.+.@.( ( ( %. .z ~ |                                                   ",
"                                                    A y A T [ z %.{ X.( o._ _ o.@.( o.@.+.+.. | | . . . l . l | . l l . l +.@.+.@.o.( X.O.%.%.) J }                                                     ",
"                                                      F t A J ) z  .O.{ _ { [ ( o.X._ o.+.@.+.+.+.. l l l l . . +.@.@.+.l X.( o.( ( _ X.O. .} J ~                                                       ",
"                                                      | s t A ' ) } .. .X.o.y P a A ~ [ O.X.{ _ o.o.@.X.X._ _ X.O.} [ R M a @.o._ _ { z  .} J S /                                                       ",
"                                                        X.s D ^ T J [ } %.( +._ T H N 3 C I d F D A A r Q s H B 4 N H ~ _ . l ( X.X. . .} J ^ o.                                                        ",
"                                                          ~ u D A T ) ) z { ( +.+.+.o._ %.} [ [ }  . .[ [ ) ) O._ +.+.. . +.o.{ { .. .[ T A z                                                           ",
"                                                            S H t A T ' } %.O.( ( +.@.@.. . . . l . / | . +.. . . . +.+.. l @.X.O.%.} T R J                                                             ",
"                                                              D u t A ' [ } %.( ( ( ( ( ( ( +.@.+.@.+.l @.l +.+.+.+.+.+.@.o._ X. .) T S '                                                               ",
"                                                                T H y A ~ }  .{ o.o.o.@.o.( o.( ( o.o.o.o.+.+.@.l +.+.+.@.o._ %.z ' S }                                                                 ",
"                                                                  z H t A ' [ .._ o.( o.o.+.o.( o._ ( o.o.o.+.+.+.. . @.o.X.O.[ ' r {                                                                   ",
"                                                                    l v y ^ A ) O.( o.( o.o.+.o.@.o.o.( @.+.+.+.+.+.o.( X. .[ ~ t .                                                                     ",
"                                                                      ] v F S T } { _ ( o.@.o.( ( o.o.( o.@.@.( +.@.( O.%.} T t ]                                                                       ",
"                                                                          y s D ~ [ ..O.X.{ X._ { X.{ ( ( X.X.o.X._ O. .} ^ ~                                                                           ",
"                                                                        o.h @ e D A ' [ z  ...%.%.%.%.%.%.{ { %. .z [ T r Y h o.                                                                        ",
"                                          / l /             . { T Q f B p L * j I Q S ^ ' J ) J } [ [ ) } [ } J [ ' A t E * L p V I Q T O..             / l /                                           "
};
