/* XPM */
static char * image_name[]={
"100 75 104 2",
"  	c #FFFFFF",
". 	c #F5F5F5",
"X 	c #474747",
"o 	c #454545",
"O 	c #3D3D3D",
"+ 	c #3B3B3B",
"@ 	c #383838",
"# 	c #2E2E2E",
"$ 	c #050505",
"% 	c #121212",
"& 	c #242424",
"* 	c #737373",
"= 	c #8A8A8A",
"- 	c #7D7D7D",
"; 	c #1F1F1F",
": 	c #363636",
"> 	c #4D4D4D",
", 	c #545454",
"< 	c #575757",
"1 	c #5C5C5C",
"2 	c #5E5E5E",
"3 	c #666666",
"4 	c #696969",
"5 	c #6E6E6E",
"6 	c #707070",
"7 	c #616161",
"8 	c #595959",
"9 	c #4F4F4F",
"0 	c #4A4A4A",
"q 	c #333333",
"w 	c #292929",
"e 	c #9C9C9C",
"r 	c #B8B8B8",
"t 	c #B3B3B3",
"y 	c #B0B0B0",
"u 	c #A6A6A6",
"i 	c #7E7E7E",
"p 	c #0F0F0F",
"a 	c #ADADAD",
"s 	c #A3A3A3",
"d 	c #9E9E9E",
"f 	c #969696",
"g 	c #919191",
"h 	c #8F8F8F",
"j 	c #858585",
"k 	c #212121",
"l 	c #F2F2F2",
"z 	c #D6D6D6",
"x 	c #424242",
"c 	c #000001",
"v 	c #999999",
"b 	c #141414",
"n 	c #525252",
"m 	c #636363",
"M 	c #757575",
"N 	c #787878",
"B 	c #828282",
"V 	c #7F7F7F",
"C 	c #7A7A7A",
"Z 	c #303030",
"A 	c #C2C2C2",
"S 	c #BABABA",
"D 	c #B5B5B5",
"F 	c #A8A8A8",
"G 	c #1C1C1C",
"H 	c #A1A1A1",
"J 	c #CCCCCC",
"K 	c #171717",
"L 	c #0D0D0D",
"P 	c #6B6B6B",
"I 	c #878787",
"U 	c #8C8C8C",
"Y 	c #C7C7C7",
"T 	c #BFBFBF",
"R 	c #2B2B2B",
"E 	c #ABABAB",
"W 	c #0A0A0A",
"Q 	c #949494",
"! 	c #404040",
"~ 	c #C4C4C4",
"^ 	c #BDBDBD",
"/ 	c #FAFAFA",
"( 	c #E8E8E8",
") 	c #CFCFCF",
"_ 	c #E5E5E5",
"` 	c #262626",
"' 	c #C9C9C9",
"] 	c #FCFCFC",
"[ 	c #D1D1D1",
"{ 	c #1A1A1A",
"} 	c #E0E0E0",
"| 	c #D4D4D4",
" .	c #D9D9D9",
"..	c #DBDBDB",
"X.	c #E3E3E3",
"o.	c #EBEBEB",
"O.	c #DEDEDE",
"+.	c #F0F0F0",
"@.	c #EDEDED",
"#.	c #030303",
"$.	c #080808",
"%.	c #DCDCDC",
"&.	c #000000",
"*.	c #F7F7F7",
"                        . X o o o O + @ # $ % & * = - $ ; : o > , < 1 2 3 4 5 5 6 * 5 6 5 3 7 8 9 > o 2 0 q w e r t y u i & p + a s d f g h j * * * * 4 9 q k w q : + + O l                             ",
"                          z x O + + : w c ; # & v f % b q 0 n 8 2 m 3 5 6 M M N i - B B B V C * 5 3 7 1 , 0 + Z 5 A S D F * G b V y u H e f g j B i i C 3 > : w # q : @ J                               ",
"                            y @ @ @ : c K + o 5 d M L w X < 2 3 P 6 M C C B B j j I I = U = U U j B - N 6 m < 0 + > A Y T t 3 G b y t a u H e g = I I I C 3 < w O R q H                                 ",
"                              e Z o x L o < > E F W G o 1 m P * N B B j = = U h h g Q Q f f v f e f g h U j M m n 0 ! M Y ~ ^ 1 ; G T r t a u H I Q Q v h B N 6 2 X B /                                 ",
"                              ( , c K : 4 5 e D : % : 1 5 * i i j I = g f Q f v H d e d d H H s u H H e d v Q B 6 7 < n , 3 J ) + k x ~ ^ r D E e I H H u f Q e H 4 ( /                                 ",
"                              _ @ ` 3 V j I ^ H L ` , * - B = U Q Q Q f e d d s u u F E E E E E E t E E E E u e h B M 4 3 7 7 2 ^ Z ; g Y A ^ r s 1 E y y a t S ' s U /                                 ",
"                            ] [ 1 a u F e T A b { 0 * B = Q Q f v H H s u F E a E y y t y y t t D D D y t y t y F H Q I N M M 5 7 0 q & A ' A A r = D S S ^ Y ) } | o .                                 ",
"                            / N s  .~ S y A 7 K : 5 I g v e H s u E a y y y D D D r r S ^ ^ ^ ^ S S ^ ^ S S S S D D y F v Q U j C 7 0 : Z J J Y ~ E B Y Y Y ) ..X.o.5 | /                               ",
"                            l : O.} [ A A t % R 1 = v H u E F E y t D r S S S r ^ T A A A A A A A A A A A ~ Y A A A A T t F H e g B 3 > : : [ J ' J R ) ) | z X.o.+.( S /                               ",
"                            +.# o.X.| J Y { ; o V H F y y t t t r r ^ T A A A Y A Y ' Y Y ' Y Y Y ' Y Y Y J Y J ~ Y A A A A t y E v B P 9 + q ~ [ | d ' | ..O.X.o.l @.A .                               ",
"                            y % +.X.X.Y x G # 4 e a r r r S S ^ A A A Y A Y ~ ' J J J J ) ) ) J ) J ) [ Y J ' ) J J ' Y Y ' A A r y d = 6 8 X + u ..z >  .O.X.o.+.@.. A T                               ",
"                            1 #.o._ } 8 $.w 9 h y r A T A A Y ~ A ' ' ' ' ) ) ) ) ) [ | ) ) [ [ [ [ ) | [ J ) ) ) [ ) J ) J Y ' Y T D F Q - 4 < o B %.E  .} X.@.o.+.l t 7                               ",
"                            / R o._ X.% p : 6 F A A ~ Y Y Y Y J ' ' [ J [ [ [ [ | [ | [ [ | z z [ | z [ | | | z [ | z | [ [ | [ ) ' Y T y H = N 7 0 0 H I } o.+.o.@.l @.+.                              ",
"                              A o.o.a { { 0 h r ' ) ) ) ) J [ ) | | ..[ z z z  .| |  . . . ...z %. . .z  .z  .z  . .|  .z %.|  ...[ [ J Y ^ E e B 4 ! & ; O.( o.%.+.+..                                 ",
"                              ] ( ( Z & & 7 E ' ) | ) ) [ )  .[ z  .O.z z  . . .z %.z |  . . . . . . .%.%.%.O. .z  ... .z .. ... .%.|  .[ ) A S E h 3 + k 8 ( +.l @.+..                                 ",
"                              / } o.#.R : - r | ) | | ) ) J J | [ | ..|  ... . ...%.%. .%.O.%.} ..}  .} O.} %.X. .%. .O...%.%. .} %. . .| J z J A y h 1 # Z ' +.l o.. .                                 ",
"                              . ( U W R x f Y | | ) ' Y Y Y A Y Y J z z  . .%. . .O... .X.%.O.O.%.X.} %.%.%.X.O.%.X.} } %.O.%. .%.[ | J J ' ' J ' A y B 0 R 2 ( @.+.@..                                 ",
"                              o.( q { # 7 y J ) ) Y Y ~ A ^ A A S A ~ ' ) |  . . .....} X.%.%.} }  .O.%.} O.} O._ O...%. .%.| ) ' J ~ Y ~ ' ' ' J Y S e 4 @ > h o.+.+..                                 ",
"                              } ) { q : B ^ J J Y Y A Y ^ A S r S T r A A J ) |  .%.%...O.%.O.} O._ O.O.X.X.O.} %.O.%.%.%.| J J ~ A A ~ ~ A J Y ' Y ~ E j > O P ( +.l .                                 ",
"                              } A &.O x e ~ Y J ~ A A r r ^ S r ^ r r r ^ A Y Y |  .z %.z  .%.X.X.X.X.X._ %.} } O.O.%.z | J Y A A A A A A A Y A ^ Y Y S v m + B z +.+..                                 ",
"                              %.j &.< 1 y J Y A ) ~ E e s a J ' d y S ^ D S A Y J J ..%.%.} O.O.O.} X._ O.O.O.%.O. . .' J A ~ ^ ^ T ^ H ' J t F s a A | ^ j X M e . . .                                 ",
"                            / ..W &.8 N A | y t ' Y A A ^ ^ r r F t D a r D ^ A ~ ) |  .%.} X.X.X.X.X.} X...O.%. .| ) J ~ Y ^ A t r ^ t ~ ~ Y Y Y ' J ' a s ) U m +.+.*.                                ",
"                            +.z &.&.< J a Y ) ) ' Y ~ A T A A S ^ T r S y D D ^ A Y [ | z %.} X.X.} _ X.X.} } }  .[ [ Y A A ^ t ~ ^ A Y Y Y Y Y J J J ) ^ F 6 h ' l +./                                 ",
"                            / [ c ; ) d ~ J ) [ Y ' A A Y ^ A A A ^ ^ ^ t Y D ^ ^ A Y [ |  .%.} X.X.X.( _ } O.O.z J ' ~ A ^ ' r Y Y ' ' J ' ) ' J ) [ ) ) S g N 7 ) +./                                 ",
"                               .; J o t ' | ) ) Y Y Y ' ~ A ^ A A A A A A A | S ^ A Y J | %. .%._ X.X.X.X.O.%. .| J ' Y A | Y Y Y J J J ' ) ) [ J | | | ) Y a f 3 f [ ]                                 ",
"                              S [ #.# ^ J ) | | ) ) ' ' Y J ~ Y A A Y ' ' Y A | A A A J )  .O.X._ X.( O.X.O. .| ) J Y ~ [ Y J | ) J [ ) ) A J ) ) ) | | | [ ~ S j 1 X.|                                 ",
"                            / o.; #.{ Y J [ | ) | J [ J ' A A A ~ ~ ' ' Y Y J S T A A Y ) z  .%.X.X.} X._ %. .z J Y ' T Y [ ) [ [ | ) J ) ) J [ | |  ... ...) ) d # l X.o.                              ",
"                            . 4 W X k T J ) z  .| [ [ ) ) ) ~ A ~ Y ~ Y ' ) J Y J D ~ ~ [ [ |  .%.O.O.} O. .[ ) ' ' ^ z ) [ |  .[ [ ) J ' [ | | z %. ... . .%...a , / ] ^ /                             ",
"                            X.K p X.e r J [  .)  .| | ' ~ ^ r ^ ) ~ A ) ) ) J [ J z A A ~ J ) | O.O.O.} ..z J ' ' J  .[ z .. .z | [ ) ) A D ^ A Y  ...O. .%.O.%.T a l ]   O.                            ",
"                        S N P ; #     F Y | |  ...) ) [ | ) ~ r t Y ) J ) [ J ) J ) T A A Y J z  ... . .| J ) J Y A z %. .O...|  .| ' y D Y [ ) [ J J X.} %. .%.~ /   l   r /                           ",
"                        X.X.6 O ~     E ~ [ z  .) | a v u f I D Y y ^ ) [ | [ | [ Y ' A A A Y J |  . .z [ ' Y ~ Y ' [  ...%... .| ^ a Y S U e H e t z  .O.O. . .[ / / .   / +.                          ",
"                          |           J r ~ ) | ^ A Y ~ ^ r t E h ~ a ~ [ | z | z [ %.~ A ^ A J [  . .z ) A A Y Y } |  .O... .z ~ y Y h a t S S A A A A O.O.| A O.  (       )                           ",
"                        ] ~         %.* d S ) e ) | | J ) J J A t e Y a [ |  . .z ) ..A T r S Y [ | z ) ~ A A A A X. .%.%.O...| E Y e D A ) J ) | ) | | s ..) y Z }         A                           ",
"                        / J   *.j ; k Q U D r ' | ..O.z z ' Y ) | D g ) S z O. . .[ z T r y t r ~ | ) Y S D D A A O.z %.} } ..r ) g t  .| J '  .%. .z %.[ ~ Y E c % k = *.  Y ]                         ",
"                        *.N Z & H *.  o.H t = [  .%.O.| A Y ~ J [ ) y C A  . .%.| | | D a u r Y J J Y ) Y r F A r %.z O.O.X.%.~ i y )  .[ A Y ~ | X.X.%.O.Q ' r W > *.H & Z * *.                        ",
"                        . - ]         Y - r F | | | O.~ Y 3 4 M  .O.D I ....O.%. .| ) Y s v h U Y J J ~ g f e F Y .. .X.X.}  .%.I t } } M P 3 A ~ X.( O.O.r | g %.        ] * *.                        ",
"                        / |           a o ~ A J  ...O.Y T 0 U j ..O.t f S } %... .) | t E e s A ' J ' ) ~ u s y D %. .X.%.X.} A Q r _ X.B U > ^ Y _ X.....z [ 0 T           ) /                         ",
"                        / '         ] D X ) t J ) | O.Y A * 1 = ..O.y Q j .. ...z | %.t E u D Y ' Y ' ~ J A y y D X.[ z  .%.O.U Q y X.O.= 1 * A ~ %.O.O. .A } + - ]         ~ ]                         ",
"                          '         *.A 7 z f A ' ) [  .A Y Y [ z ~ E C A %.%. . .J  .D y y ^ Y Y ~ Y J J ~ D y S  .) | O.z O.A C s A  .| ' ~ A  . .z  . .e } x T /         Y                           ",
"                          ( ]       / | s O.r y ^ ~ ' ) %.) J z ' y h ^ %.%.z  . .) r r y r ^ ~ Y Y A J J Y S t S r | z  .%.%.O.T U y J  .J J ..[ z [ ) A ^ X.P | /       / o.                          ",
"                          +.%.      /  .) } A N E ^ T A A Y A r y U J z %. .| ..| | H y t D ^ Y ~ T T Y ) Y S D t u  .z ..X.%.}  .J U a S ~ J ' J ' J ^ C %.o.e  .]       %.l                           ",
"                          ] [       ] X. .X.O.r g V y y t t t H -  .' [ [ | z z ) | D y r S A Y A r S A J ' A ^ y r | | ..| z | z J | - H y S T T A I g | X.o.' _         [ ]                           ",
"                            o.%.      X...O.X.) y Y Q P * * = Y ) T Y A Y ) [ ) ) e t t ^ r A ^ D t D D A ~ A A S t v | ) [ ) ' ~ Y ~ ) ~ = * * P f | ' %.( +.@.(        .+.                            ",
"                              } /     _ X.X.X.%.) D r Y ' Y A S D ^ S A ~ J ) ' ~ D t S D S r t S T A ^ t S ^ S A r r ~ Y ) ) ' ~ r ^ D ^ ~ ) | ' Y A  .X._ +.l +.    *.}                               ",
"                              . Y     X.} X._ z ) Y A T D y f f s y S A ' ' ~ X.E t r r E t D ' [ ..z z J S D a Y T r a } J J Y Y r y H Q v a r ^ ~ ~ | X.( o.+.+.    Y *.                              ",
"                                ( ^   o.X._ X.%.[ J A t E E F t S A [ [ J J  .s t ^ A u E A  .( ( o.o.o.X...Y t t A ^ t s ..A ) J Y A S D E E t t S J | %.( +.+.l   T o.                                ",
"                                  ( A .  .X.X.} z | ~ Y Y Y J J ) | | [ ) %.u ^ ^ Y a r J %.( +.. l . *.+.+.o.z r y ~ A A F  .J | ) [ ) J ) Y Y Y J z  .X.@.l @.*.A @.                                  ",
"                                    o.%.A ( _ X.}  .| | ) | z |  .[ ) Y  .r ~ ' J ^ ) %. .%.( o.+.l l +.. +.@.o.o.z Y J ) ~ S  .J [ | z O.z | z |  .%.O.} +.+.) %.+.                                    ",
"                                      ] | [ ' _ X.%. . .O.| z J J T %.t A ' J ) ) A z  .z J z ..X._ ( } ( _ O.X.( ( ~ z | [ J Y t %.A [  . . .O.} O.X.X.o.) | ..]                                       ",
"                                        l | Y O.' r ' Y ) A ^ |  .E r A A J )  ...Y D y 4 g t A ' z z | [ ' u 6 A ) ) } O. .) ) Y A E z | ^ T | ) J A J X.| o.*.                                        ",
"                                          ~  .%...~ ^ D ^ a a E F u y r Y [  .} X.[ F a v f I d y r ^ T t s v v ^ ^ z X.( O...) ~ ^ D t y y a A S ~ J X.( o.O.                                          ",
"                                          z ' J ) | J J Y A y H v d y ~ [ z } %.}  . .e D [ A v U f e d a z %.A t } O.O._ X.X. .) T y H u t A J z  . .O.} } (                                           ",
"                                          *.^ ~ ) A A ~ ^ S E v f s ^ ) |  .} } X.O.X.X.}  .J E = B B Q r %.o.o.l ( o._ ( o.( X. .) D v d E ^ Y J ) | z %.z /                                           ",
"                                            A A A ~ A Y Y ^ E d u a T ) |  .X.X.X.( o.o.X.X. .Y A ^ r T Y } @.+.@.+.o.@.o.( X._ %.J A u H y ^ Y | ) | | | |                                             ",
"                                            . t ^ ~ J ' Y Y ^ y ^ Y r )  ...} X.o.o.o.o.o.o.O.....%.} O.%.( @.o.. o.o.o.o.( } }  .Y ) ^ y A J | z | [ z ) *.                                            ",
"                                              r r Y J ) ) ) ' A Y [ P ~ %.X.( _ o.@.o.@.+.@.o.o.( o.o.o.o.o.. +.l +.@.+.+.@.( _  .5 z J ^ Y ) z | | [ ) )                                               ",
"                                              / E A Y J z  . .J  ...Y * t %.( +.o.o.+.+.+.+.. +.@.+.+.+.+.l l l +.l . . . . ( J * [ %...) z  . .z z J ~ ]                                               ",
"                                                | a A J [  .z ..%.z Y [ V H J O.o.@.+.l *.+.+.@.o._ o.o.@.l . . . . . l @.O.^ B |  ._ O. ...%. . .[ Y }                                                 ",
"                                                  F t A ) | ..} } ( J )  .f I D J %.( +.. . +.o.X.X.} } ( l . *.l +._ %.) e v X.( O.( X.X.O.%.z ) Y ~                                                   ",
"                                                  ] H D Y | %.X.( X.Y  .| X.A 1 H t ~ ) .._ o.*.+.. . . . l @.O...[ ' S 2 A @.( +.X.( o.X.} z [ J ^ ]                                                   ",
"                                                    l s r J | .._ ( J  .O.) X.X.D 1 = u D ^ A Y ) [ z [ [ J Y A D v 7 D } l _ @.o.X.@.( ( %. .J ^ *.                                                    ",
"                                                      } s S ' z } ( z ) X.o.|  .o._ J e 4 2 * B U h f g = i 3 4 e ) ( +.o._ +.+.} o.( ( %.z J r (                                                       ",
"                                                        } s r ' z } %.Y ..o.X.O.[ } @.@.@.} | A D a y D A [ } o.+.+.o.X.o.l l o...( o.O.| J ^ (                                                         ",
"                                                          ( d D J | | ' ) X.o.@.o.%.| .._ @.. . . . . *.*.. l o.X.X.o.+.*.l l _ ..X.X.| ' D @.                                                          ",
"                                                            . Q y Y J ~ A  .o.o.+.+.+.( X.O.%.X.} ( ( X.X.X.X.+.+.+.+.. . . o. .%...| Y a /                                                             ",
"                                                              ] e u S A r ' X.o.o.+.l l . +.+.l o.+.+.l +.. . l . . *.. +.@.O.) | ) T t                                                                 ",
"                                                                  A v y t D ) } o.+.+.@.. *.. . . / *./ *.. . . *.. . l l X.[ ) ' D )                                                                   ",
"                                                                    . Q H F ^ z } o.l @.. l *.*.*./ *.*.. *.. *.. . l @._ z ~ A E *.                                                                    ",
"                                                                        A Q s A | } ( +.+.+.. . *./ *.. / . *.l +.+.o.}  .A t J                                                                         ",
"                                                                          . U u A | O._ ( @.l +.. . . . . . +.+.o._ } z A F *.                                                                          ",
"                                                                              r u A )  .O.X.( ( +.+.o.( @.@.o.X.}  .[ ^ Y                                                                               ",
"                                                                                o.e D Y ) ) %...%...O.X.} O.O.z | ' D +.                                                                                ",
"                                                                              @.C ; g H D ^ A Y ' ) ) ) J J Y A S s ; C @.                                                                              ",
"                                                                        o.h k #., e a F h Q H E y t t D y E s d y a e < #.; g o.                                                                        ",
"                                          / l /             . } Y a f B % L * j = f u y r ^ S E v Q v d E S ^ r y u v I I * L % B Q E Y O..             / l /                                           "
};
