/* XPM */
static char * image_name[]={
"32 32 82 2",
"  	c #FFFFFF",
". 	c #CCCCCC",
"X 	c #3B3B3B",
"o 	c #080808",
"O 	c #2E2E2E",
"+ 	c #303030",
"@ 	c #454545",
"# 	c #5E5E5E",
"$ 	c #6B6B6B",
"% 	c #757575",
"& 	c #7A7A7A",
"* 	c #787878",
"= 	c #666666",
"- 	c #595959",
"; 	c #C2C2C2",
": 	c #878787",
"> 	c #575757",
", 	c #ABABAB",
"< 	c #858585",
"1 	c #8F8F8F",
"2 	c #5C5C5C",
"3 	c #212121",
"4 	c #7F7F7F",
"5 	c #383838",
"6 	c #828282",
"7 	c #696969",
"8 	c #8C8C8C",
"9 	c #949494",
"0 	c #999999",
"q 	c #9C9C9C",
"w 	c #474747",
"e 	c #363636",
"r 	c #BDBDBD",
"t 	c #A1A1A1",
"y 	c #F5F5F5",
"u 	c #525252",
"i 	c #737373",
"p 	c #636363",
"a 	c #8A8A8A",
"s 	c #969696",
"d 	c #9E9E9E",
"f 	c #A6A6A6",
"g 	c #ADADAD",
"h 	c #A8A8A8",
"j 	c #6E6E6E",
"k 	c #707070",
"l 	c #3D3D3D",
"z 	c #C7C7C7",
"x 	c #B8B8B8",
"c 	c #D6D6D6",
"v 	c #292929",
"b 	c #B0B0B0",
"n 	c #BFBFBF",
"m 	c #C4C4C4",
"M 	c #D4D4D4",
"N 	c #E5E5E5",
"B 	c #E8E8E8",
"V 	c #CFCFCF",
"C 	c #4D4D4D",
"Z 	c #BABABA",
"A 	c #C9C9C9",
"S 	c #545454",
"D 	c #D9D9D9",
"F 	c #DBDBDB",
"G 	c #E3E3E3",
"H 	c #171717",
"J 	c #B5B5B5",
"K 	c #A3A3A3",
"L 	c #EDEDED",
"P 	c #DEDEDE",
"I 	c #DCDCDC",
"U 	c #F0F0F0",
"Y 	c #B3B3B3",
"T 	c #E0E0E0",
"R 	c #F2F2F2",
"E 	c #030303",
"W 	c #D1D1D1",
"Q 	c #FCFCFC",
"! 	c #0A0A0A",
"~ 	c #EBEBEB",
"^ 	c #616161",
"/ 	c #F7F7F7",
"        . X o O + @ # $ % & * = - X ; : > , < 1 2 3 >           ",
"          4 5 6 3 7 & : 8 9 0 q 0 % w . e r , t 9 * y           ",
"          u 0 i p a s d f , , g g h 8 j k l z 9 x c r           ",
"          f , v 0 h b x x n ; ; ; ; r , s > , m M N B           ",
"          V C k r Z ; m z V V V M . . A r q S D F G D           ",
"          G H J . . V V M M c c M M M M M z K = l L y           ",
"          G 5 V M V c D D F P D P P D D I D M J v L U           ",
"          p 7 V z ; ; A D F I G I P I I V z . z 7 c U           ",
"          l d z Z r Y Z z c F T G P F . ; Z ; r K a R           ",
"          E x A z ; r x n V I G G G M m r m z . x 9 U           ",
"          8 z W A ; ; m z z D G G P . . . . V M W 0 P           ",
"        Q ! . M W z m A z m M P T M A V M V W c D V G           ",
"        : z ; D W . r . V A z D D V V F c r . V P D ~ D         ",
"        ~   x V z x d A M c ; M M m I I . d Z m c r N B         ",
"        h s q z F z . b I D b z A x F T b V z P M 9 s f         ",
"        N   p . I > D f I c K A . h I T f T S G D j   G         ",
"        ~   6 Z W m V t F V Y z . Z V I t V m D V ^   B         ",
"        T   c q Y x q M c r Z m z r ; D D q ; m g Z   G         ",
"        Q Q G D Y x x m . x Z Z Z r Z . z r r n T U Q Q         ",
"          D T G . b n W ; ; m ~ ~ A ; ; V z x . B U I           ",
"            V B D M W A V . M B B N D V z W D F ~ D             ",
"            Q N V z M c G ; 0 b r q z B F D z V L               ",
"              V G G G B L G D d K B T L ~ G B ~ N               ",
"              n D G B U L B ~ B G U L R U ~ B G D               ",
"              Q z P B ~ ~ ~ U G N U U R R U B D                 ",
"                Y W B B D F N L L ~ B G U ~ P .                 ",
"                Q Y M G x h a a 8 8 , Z ~ T A Q                 ",
"                  B r D ~ N L R / U L R ~ W L                   ",
"                    V ; T R R ~ ~ U y U M F                     ",
"                      F n N U U U R L M G                       ",
"                        U Z W D I D . y                         ",
"                    R ; l K t t f f f X ; R                     "
};
