/* XPM */
static char * image_name[]={
"100 75 104 2",
"  	c #FFFFFF",
". 	c #F5F5F5",
"X 	c #474747",
"o 	c #454545",
"O 	c #3D3D3D",
"+ 	c #3B3B3B",
"@ 	c #383838",
"# 	c #2E2E2E",
"$ 	c #050505",
"% 	c #121212",
"& 	c #242424",
"* 	c #737373",
"= 	c #8A8A8A",
"- 	c #7D7D7D",
"; 	c #1F1F1F",
": 	c #363636",
"> 	c #4D4D4D",
", 	c #545454",
"< 	c #575757",
"1 	c #5C5C5C",
"2 	c #5E5E5E",
"3 	c #666666",
"4 	c #696969",
"5 	c #6E6E6E",
"6 	c #707070",
"7 	c #616161",
"8 	c #595959",
"9 	c #4F4F4F",
"0 	c #4A4A4A",
"q 	c #333333",
"w 	c #292929",
"e 	c #9C9C9C",
"r 	c #B8B8B8",
"t 	c #B3B3B3",
"y 	c #B0B0B0",
"u 	c #A6A6A6",
"i 	c #7E7E7E",
"p 	c #0F0F0F",
"a 	c #ADADAD",
"s 	c #A3A3A3",
"d 	c #9E9E9E",
"f 	c #969696",
"g 	c #919191",
"h 	c #8F8F8F",
"j 	c #858585",
"k 	c #212121",
"l 	c #F2F2F2",
"z 	c #D6D6D6",
"x 	c #424242",
"c 	c #000001",
"v 	c #999999",
"b 	c #141414",
"n 	c #525252",
"m 	c #636363",
"M 	c #757575",
"N 	c #787878",
"B 	c #828282",
"V 	c #7F7F7F",
"C 	c #7A7A7A",
"Z 	c #303030",
"A 	c #C2C2C2",
"S 	c #BABABA",
"D 	c #B5B5B5",
"F 	c #A8A8A8",
"G 	c #1C1C1C",
"H 	c #A1A1A1",
"J 	c #CCCCCC",
"K 	c #171717",
"L 	c #0D0D0D",
"P 	c #6B6B6B",
"I 	c #878787",
"U 	c #8C8C8C",
"Y 	c #C7C7C7",
"T 	c #BFBFBF",
"R 	c #2B2B2B",
"E 	c #ABABAB",
"W 	c #0A0A0A",
"Q 	c #949494",
"! 	c #404040",
"~ 	c #C4C4C4",
"^ 	c #BDBDBD",
"/ 	c #FAFAFA",
"( 	c #E8E8E8",
") 	c #CFCFCF",
"_ 	c #E5E5E5",
"` 	c #262626",
"' 	c #C9C9C9",
"] 	c #FCFCFC",
"[ 	c #D1D1D1",
"{ 	c #1A1A1A",
"} 	c #E0E0E0",
"| 	c #D4D4D4",
" .	c #D9D9D9",
"..	c #DBDBDB",
"X.	c #E3E3E3",
"o.	c #EBEBEB",
"O.	c #DEDEDE",
"+.	c #F0F0F0",
"@.	c #EDEDED",
"#.	c #030303",
"$.	c #080808",
"%.	c #DCDCDC",
"&.	c #000000",
"*.	c #F7F7F7",
"                        . X o o o O + @ # $ % & * = - $ ; : o > , < 1 2 3 4 5 5 6 * 5 6 5 3 7 8 9 > o 2 0 q w e r t y u i & p + a s d f g h j * * * * 4 9 q k w q : + + O l                             ",
"                          z x O + + : w c ; # & v f % b q 0 n 8 2 m 3 5 6 M M N i - B B B V C * 5 3 7 1 , 0 + Z 5 A S D F * G b V y u H e f g j B i i C 3 > : w # q : @ J                               ",
"                            y @ @ @ : c K + o 5 d M L w X < 2 3 P 6 M C C B B j j I I = U = U U j B - N 6 m < 0 + > A Y T t 3 G b y t a u H e g = I I I C 3 < w O R q H                                 ",
"                              e Z o x L o < > E F W G o 1 m P * N B B j = = U h h g Q Q f f v f e f g h U j M m n 0 ! M Y ~ ^ 1 ; G T r t a u H I Q Q v h B N 6 2 X B /                                 ",
"                              ( , c K : 4 5 e D : % : 1 5 * i i j I = g f Q f v H d e d d H H s u H H e d v Q B 6 7 < n , 3 J ) + k x ~ ^ r D E e I H H u f Q e H 4 ( /                                 ",
"                              _ @ ` 3 V j I ^ H L ` , * - B = U Q Q Q f e d d s u u F E E E E E E t E E E E u e h B M 4 3 7 7 2 ^ Z ; g Y A ^ r s 1 E y y a t S ' s U /                                 ",
"                            ] [ 1 a u F e T A b { 0 * B = Q Q f v H H s u F E a E y y t y y t t D D D y t y t y F H Q I N M M 5 7 0 q & A ' A A r = D S S ^ Y ) } | o .                                 ",
"                            / N s  .~ S y A 7 K : 5 I g v e H s u E a y y y D D D r r S ^ ^ ^ ^ S S ^ ^ S S S S D D y F v Q U j C 7 0 : Z J J Y ~ E B Y Y Y ) ..X.o.5 | /                               ",
"                            l : O.} [ A A t % R 1 = v H u E F E y t D r S S S r ^ T A A A A A A A A A A A ~ Y A A A A T t F H e g B 3 > : : [ J ' J R ) ) | z X.o.+.( S /                               ",
"                            +.# o.X.| J Y { ; o V H F y y t t t r r ^ T A A A Y A Y ' Y Y ' Y Y Y ' Y Y Y J Y J ~ Y A A A A t y E v B P 9 + q ~ [ | d ' | ..O.X.o.l @.A .                               ",
"                            y % +.X.X.Y x G # 4 e a r r r S S ^ A A A Y A Y ~ ' J J J J ) ) ) J ) J ) [ Y J ' ) J J ' Y Y ' A A r y d = 6 8 X + u ..z >  .O.X.o.+.@.. A T                               ",
"                            1 #.o._ } 8 $.w 9 h y r A T A A Y ~ A ' ' ' ' ) ) ) ) ) [ | ) ) [ [ [ [ ) | [ J ) ) ) [ ) J ) J Y ' Y T D F Q - 4 < o B %.E  .} X.@.o.+.l t 7                               ",
"                            / R o._ X.% p : 6 F A A ~ Y Y Y Y J ' ' [ J [ [ [ [ | [ | [ [ | z z [ | z [ | | | z [ | z | [ [ | [ ) ' Y T y H = N 7 0 0 H I } o.+.o.@.l @.+.                              ",
"                              A o.o.a { { 0 h r ' ) ) ) ) J [ ) | | ..[ z z z  .| |  . . . ...z %. . .z  .z  .z  . .|  .z %.|  ...[ [ J Y ^ E e B 4 ! & ; O.( o.%.+.+..                                 ",
"                              ] ( ( Z & & 7 E ' ) | ) ) [ )  .[ z  .O.z z  . . .z %.z |  . . . . . . .%.%.%.O. .z  ... .z .. ... .%.|  .[ ) A S E h 3 + k 8 ( +.l @.+..                                 ",
"                              / } o.#.R : - r | ) | | ) ) J J | [ | ..|  ... . ...%.%. .%.O.%.} ..}  .} O.} %.X. .%. .O...%.%. .} %. . .| J z J A y h 1 # Z ' +.l o.. .                                 ",
"                              . ( U W R x f Y | | ) ' Y Y Y A Y Y J z z  . .%. . .O... .X.%.O.O.%.X.} %.%.%.X.O.%.X.} } %.O.%. .%.[ | J J ' ' J ' A y B 0 R 2 ( @.+.@..                                 ",
"                              o.( q w w 3 t ) z z ) [ J J Y Y ~ ~ ' J ) | z  .........} X.%.%.} }  .O.%.} O.} O._ O.%. ...%. .z [ [ ) ) Y [ ) ) [ J T d 5 @ O v +.l . .                                 ",
"                              X.) { 0 Z = Y  . . .| J J ~ Y ' ~ A ~ A Y Y [ [ z  ...%. .O.%.O.} O._ } %.X.X.O.} %.O.%.%. . .| ) ' J Y Y J ' Y J | ) Y t h < @ 6 ( . l .                                 ",
"                              X.D &.m X a |  . .| J [ A A A Y A A A A A ' J ) J [ %.z  .z  .%.X.X.X.X.X._ %.} %.} %.O. . .| ' ' Y ~ A Y Y Y J Y ~ ) J Y E C o < m . . .                                 ",
"                              X.i &.6 6 ~ ..| ~ ) ~ y H u a J ' H r A A A ' J ) ) ) ..O.%.} O.O.O.X.X.( O.%.%.%.} .. .[ | Y Y A Y Y S u ' J t E s y A [ A H P x M o.+.l                                 ",
"                            / ..W &.5 F | | D Y | J ' J J Y Y Y a D D t A ~ A Y ) )  . .%.} X.} X._ X.} X...O.%.%. .| ' J Y ' ~ r r ^ D ' J J J ) ) [ J r E ) N M 3 *..                                 ",
"                            l z &.&.C z y z  .| | | J J J J ' Y ~ Y T S y A ~ Y ' J [  . .%.} X.X.} X.X.X.O.} }  .z [ J ' J Y t A ~ ' J J [ ) ) J ) | ) J J A H Y 9 ( *.                                ",
"                            *.[ &.G [ Y } ..z [ ~ t E H e e s A J ' Y ~ t Y ^ A Y J [ [  ...} } X.X.X.( _ } %.O. .) J J Y ^ ' r Y ' ) J A F v e s E t ~ J [ z [ u J 8 *.                                ",
"                              u ; ) z X.%.z J A A ~ t F r E f U v A ) Y ) S [ ^ Y J )  .| O. .%._ X.X.X.X.O.} %. .) Y ~ A | A ' J ) ~ v h Q E r F D A A ~ )  .X.} H ) .                                 ",
"                              < [ 0 o.O... .J V C v Q h = B m r d g y | J J ^ | A ' [ | )  .O.} _ X.( O.X.O.z ..) Y ' ~ [ T ' ' | a g H r 3 j = h g v C B ) z O.o._ 2 | /                               ",
"                            / X.{ t ( (  .d t t E a E E u H e g I t v u | ) ~ r T A J ' ) |  .%.X.X.} X._ }  . .[ ' ~ ^ S Y [  .u e t j g d s u F a a a t r u X.( +. .H o.                              ",
"                            . 3 #._ +.} e ~ ~ A ^ ^ r S t t y E u B ^ H E [ ) Y ' D A ) J J z  .%.O.O.} O... .| ) Y D [ Y [ | F H A B u E y t D r ^ ^ T A Y J s _ +.. 6 t /                             ",
"                          ] X.$.{ o.X.~  .J ' J Y Y ~ Y A A T S t y U ~ s r ) ) ' z ~ J J ' [ z O.O.} }  . .| | [ A z ~ )  .r u Y U y r r ^ A A ~ ' ' ' ' J ) z J @.. / @.O.                            ",
"                        - 5 3 L } +.= %.| [ | [  .[ ) [ ) J ' Y A T r j ~ u J | J J r Y ' J ) |  . . . .) ) J ) J D [ '  .[ u A j D T T ~ Y ) ) | [ ) [ | |  . .} h . ] Y r /                           ",
"                        +.( s h l a X...| .. . .z  .O.o.@.o.o...J Y Y ^ I S a | ' T Y A J ' ~ Y |  . .| ) Y J Y A ~ A | | E S = r ~ ~ J ..( o.o.X.O.%.X. .%.z O.X.@.D /   / +.                          ",
"                          |     ( ) O.z  ...O.X.X.o.( ( _ _ ( ( _ z J Y E A t ' [ A %.S A ~ ^ Y [  . .z J ~ A A T O.A [ ' a A E ~ J | o.o.( ( ( X.+.+.} X.} %.%.O.( z *.    )                           ",
"                        ] ~     A X.[ |  .O.} ( o.( X._ X._ X.o.( @.| ' ~ V ~ D | ' z t ^ A r A ) | z ) A S A A y O.Y z r ~ B A ' | @.@.o.o.X.( _ o.( o.o._ } O.z .._ J     A                           ",
"                        / J   *.2 ' Y [ z _ ( @.( o.o.X.r E z ( _ +._ | Y u J r z Y J a D t y t ~ | ) ~ S t r D y [ Y | ^ ) s ' ) ( o.@.( %.a r X._ ( _ l o.} %. .| [ 3 .   Y ]                         ",
"                        *.N R % o E ^ J  .X.@.o.o.o.} g 3 = i A ( ( o. .J t y ~ ) ~ Y H E H t Y J J Y ) Y D u a s J J | ' t t )  .@.@.@.' i = 3 h } o.( o.+._ X.| J r > % # * *.                        ",
"                        . - ]   S y S J %.X.o.( o.o.r 4 H y E U @.@.+. .J ^ B | J Y A Y d f I = ~ J J ~ = = e H Y J ~ ) [ B ^ ) %.+.@.+.= E y d 4 S ( ( @.o.( }  .Y ^ '   ] * *.                        ",
"                        / |   ] [ ^ A J | ( o.@.o.X.a P F S t Q o.o.@.X.' ^ N %.) Y Y H u v v ^ ' J ' ) T d H F d J ~ J %.N ^ ) O.+.+.+.Q y S F 5 E ( ( o.o._ O. .J J _     ) /                         ",
"                        / '   ] [ ~ A Y  .X.( @.( ( Y 3 f u H U +.@.+.z J r =  .) A z H F F E A ' ~ ' ~ ~ t E E s  .Y [ O.= ^ '  .o.@.+.h H E Q 3 A _ o.@.@.( %.) |  .X.    Y ]                         ",
"                          '     A ) A Y )  .X.+.o.o.( H 7 4 N X._ @.@. .' D B  .[ A z E D E y ~ Y ~ Y J Y S y t E z T ) O.j t Y [ o.+.@._ C 4 7 H ( _ ( +.( _ O.| [ X.'     Y                           ",
"                          ( ]   y Y A A ) z } o.@.( o.( _ O.o.( o.@._ J A u 7 _ ) ^ D a r E t A Y Y A Y Y T t r y r A ) X.2 E A J } +.o.+.( X.X.o.o.o.o.o.( O.| ) z } D   / o.                          ",
"                          +.%.  Y A A ^ Y ' z  .o.o.o.( ( o.+.+.@.( ' Y r C z  .Y ' f y D E S A A T T Y J A y r t f J J [ | C t A ) ( +.o.o.o.o.o.( o.+.X.X.| [ [ | z |    .l                           ",
"                          ] [   [ j ^ r ^ ~ ) |  .( +.o.@.( o.o.( [ ~ ^ h [ [ J ~ [ u D r E A A T r S A Y A y ^ D F | ' ) | | U S ' [ _ @.@.+.o.+.@.@.%.%. .J Y ) | U (   )                             ",
"                            o.%.%.^ Q D t D ^ ~ [ z ..X.o.o._  .) Y ^ h [ Y A J ~ h a r t E S r t t D t ^ T D r ^ a g Y | J Y [ U T Y ) z X.o.( _ %. .| [ ' ~ ~ ) s Y +. .+.                            ",
"                              } ( r H s y E y r T Y J [ [ ) ) ' ~ S B z ^ y [ A ~ u r A F y a a ^ T A ^ a y D a ~ D u A Y | t S | j S A ' ) | | z ) [ J ~ A ^ A y F z +.}                               ",
"                              . A ' y ^ 3 E F u y t S A ~ A ^ S s f ) t F ~ ~ } e E ^ T e F y ' [ ..z z ' t E u Y T y v O.~ ' u t ) Q u ^ ^ Y Y A A S S t r ^ P Y J } ~ *.                              ",
"                                ( r A F ^ 5 = d H H u s F s Q N ) S y H ^ A z Q a ^ A s u r z _ ( o.( o.X. .^ u a T A a g z ^ r H E ^ [ N v F E y E E E y U 5 ) ~  .S @.                                ",
"                                  X.^ ^ F a S F 5 3 6 5 B D A t F H e a D  .e t A A H y A z ( +.. l . *.+.+.} ' y u Y A D e  .r E H s E t Y t B 5 * 3 6 E Y A A | T o.                                  ",
"                                  ] ~ ..r E u F F E E E E F H H f v H r z E A ' Y D Y z [ ..( o.+.l . +.. +.( X.X.) S ' [ A u | r s d f H E E a y t D D r S A A %. .]                                   ",
"                                    J ) | ) a E s s s H H H v g Q F ..a S J z | ) r | z | ' z ..X._ ( X.( X.O.X.( ( S ) | | J S E  .F f f f s E E y t D ^ r [  .X.O.                                    ",
"                                      ^ | O.J O.Y y y s e U s )  .y A Y [  ...O.| Y a a 5 h t A ' z z | [ ' s * A ~ ) ..%... .| ' A y  .) u g e u D D J X.| o._ |                                       ",
"                                      } ^ ) %.X.X.~ ^ D A y ^ Y J ) | | %.O.X.( X.| S s y f I e y r ^ ^ t H v D D ^ %.X._ X.X.%. .| J ) ' A y A r A ' _ _ _ O. .(                                       ",
"                                        y r ' [  .O...%. .z  .[  ... ..._ ( o.o.( %.) A v J ^ Q U Q v d E [ %.E ) | .._ +.o.o.X.O.%. .z z O.%...} } X.X.%. .) J                                         ",
"                                        / u r ~ [ | z  .|  ..... . .} _ _ ( @.o.X.} %.O.%.| ) y h B j f T O.( ( }  ._ @.@.+.+.o._ _ O. .%.O.O.%.} O.} %.z ) A /                                         ",
"                                          %.E D A J [ | z  . .%.O.} ( ( @.@.o.o.( X.X._ X.X.} z ' A ^ ~ ..( o.+.( X._ o.o.@.+.o.( ( X.} X.%.} X. .%. .| J A (                                           ",
"                                            y a r T Y | z z ..} ( ( X.o.@.+.o.o.( X.( ( ( ( o.X._ X.X.%.( . +.+.o.o.o.+.+.+.@.@.@.o.( _ X.X.X.} %. .| J Y Y                                             ",
"                                            ] H y ^ ~ ) | z O.%.( ( o.o.+.+.o.+.X.( ( ( o.o.+.@.o.o.@.( o.+.l +.o.o.@.o.. . l l @.o.@.o._ } X.O...z ) Y T ]                                             ",
"                                              %.F D A ' | %.%.} X.( ( o.o.o.@.o.o.o.@.@.( o.l l @.+.. ( l . +.@.@.+.+.+.. . +.l +.l o.( ( _ X.%. .| ' A (                                               ",
"                                                y E S Y ) z ..X._ ( o.@.o.+.o.( o.o.@.+.l +.l o.X.%.%.X.@.+.+.+.@.+.+.. @.. @.. +.+.+.+.o._ O.%.z ) ~ '                                                 ",
"                                                  u D A )  . .X.( o.o.+.o.o.( o._ o.l . *.. . o.O.z | ..( l . . +.. +.+.. l +.l l +.+.@.@._ X...| ) A                                                   ",
"                                                  +.E S Y )  .} _ o.( ( o.( _ ( _ } _ ( @.o.. . +.+.+.l *.. +.+.@.+.@.+.+.+.@.+.+.o.o.o.( X.%. .) Y l                                                   ",
"                                                    Y a ^ Y |  .X.X.X.( +.X.t a r ^ Y ' [ | %._ o.@.o.o._ O.} %. .| ) J T A +.+.. @.@.( ( } ..[ '  .                                                    ",
"                                                      E E ^ ' ) ..%.X.X.o.o.h m 1 5 h E r A ~ Y ' ' ) J J J ' A r d C 2 7 h @.+.@.o._ X.%. .[ ~ A                                                       ",
"                                                      ] s F r ~ J z ..%._ @.( %.[ Y D v * m 1 7 m 4 4 m m 2 m * f D ~ | } @.l @.( _ } O.| J ~ S                                                         ",
"                                                        ] e u r Y J z X._ ( o.( o.+.@.o.( ( _ X.O.O.} } X.( ( o.@.+.. . . +.+.o.o.( O.| ' A D                                                           ",
"                                                            Q u r Y )  .%._ ( @.o.( X.X.o.+.+.+.l *.@./ . . l +.o.@.+.. l . l o.o.X.z ) A y                                                             ",
"                                                              F H r Y )  .O.( @.o.o.@.( _ ..%.%.%...%.%.X.%.} o.o.. *.. . +.@.( } ..Y r ^                                                               ",
"                                                                ) v t A J  .} ( o.+.. +.. l +.@.( o.@.( @.@.+.l +.. . . l +.( O.| ' t ..                                                                ",
"                                                                  l f E S J [ } o.+.. +.. . . . +.l . . l l . l . . . l @.X.%.| ~ y .                                                                   ",
"                                                                      y e t A [ ..( o.l +.+.*.*./ . . . *.. *.l l . @.o.X.%.) r ~                                                                       ",
"                                                                        +.h a ~ ) ..( o.@.+.+.+.@.l . +.@.. +.+.o.o.( _  .A E l                                                                         ",
"                                                                            E u ^ J [ ..%.} ( X.( ( _ ( ( X._ X.X.} z ) A A                                                                             ",
"                                                                              _ v y T Y [ [  .z  .z ..O... . .z [ ) ~ D @.                                                                              ",
"                                                                              @.C 4 e E D ^ A ~ A ~ ~ Y Y ~ A ^ ^ t - C @.                                                                              ",
"                                                                        o.h k #., e u h = v H E E a a y E F H e e E e < #.; g o.                                                                        ",
"                                          / l /             . } Y a f B % L * j = Q u y D D r s g Q Q f u D D t a u f I j * L % V Q E Y O..             / l /                                           "
};
