/* XPM */
static char * image_name[]={
"100 75 104 2",
"  	c #FFFFFF",
". 	c #F5F5F5",
"X 	c #474747",
"o 	c #454545",
"O 	c #3D3D3D",
"+ 	c #3B3B3B",
"@ 	c #383838",
"# 	c #2E2E2E",
"$ 	c #050505",
"% 	c #121212",
"& 	c #242424",
"* 	c #737373",
"= 	c #8A8A8A",
"- 	c #7D7D7D",
"; 	c #1F1F1F",
": 	c #363636",
"> 	c #4D4D4D",
", 	c #545454",
"< 	c #575757",
"1 	c #5C5C5C",
"2 	c #5E5E5E",
"3 	c #666666",
"4 	c #696969",
"5 	c #6E6E6E",
"6 	c #707070",
"7 	c #616161",
"8 	c #595959",
"9 	c #4F4F4F",
"0 	c #4A4A4A",
"q 	c #333333",
"w 	c #292929",
"e 	c #9C9C9C",
"r 	c #B8B8B8",
"t 	c #B3B3B3",
"y 	c #B0B0B0",
"u 	c #A6A6A6",
"i 	c #7E7E7E",
"p 	c #0F0F0F",
"a 	c #ADADAD",
"s 	c #A3A3A3",
"d 	c #9E9E9E",
"f 	c #969696",
"g 	c #919191",
"h 	c #8F8F8F",
"j 	c #858585",
"k 	c #212121",
"l 	c #F2F2F2",
"z 	c #D6D6D6",
"x 	c #424242",
"c 	c #000001",
"v 	c #999999",
"b 	c #141414",
"n 	c #525252",
"m 	c #636363",
"M 	c #757575",
"N 	c #787878",
"B 	c #828282",
"V 	c #7F7F7F",
"C 	c #7A7A7A",
"Z 	c #303030",
"A 	c #C2C2C2",
"S 	c #BABABA",
"D 	c #B5B5B5",
"F 	c #A8A8A8",
"G 	c #1C1C1C",
"H 	c #A1A1A1",
"J 	c #CCCCCC",
"K 	c #171717",
"L 	c #0D0D0D",
"P 	c #6B6B6B",
"I 	c #878787",
"U 	c #8C8C8C",
"Y 	c #C7C7C7",
"T 	c #BFBFBF",
"R 	c #2B2B2B",
"E 	c #ABABAB",
"W 	c #0A0A0A",
"Q 	c #949494",
"! 	c #404040",
"~ 	c #C4C4C4",
"^ 	c #BDBDBD",
"/ 	c #FAFAFA",
"( 	c #E8E8E8",
") 	c #CFCFCF",
"_ 	c #E5E5E5",
"` 	c #262626",
"' 	c #C9C9C9",
"] 	c #FCFCFC",
"[ 	c #D1D1D1",
"{ 	c #1A1A1A",
"} 	c #E0E0E0",
"| 	c #D4D4D4",
" .	c #D9D9D9",
"..	c #DBDBDB",
"X.	c #E3E3E3",
"o.	c #EBEBEB",
"O.	c #DEDEDE",
"+.	c #F0F0F0",
"@.	c #EDEDED",
"#.	c #030303",
"$.	c #080808",
"%.	c #DCDCDC",
"&.	c #F7F7F7",
"*.	c #000000",
"                        . X o o o O + @ # $ % & * = - $ ; : o > , < 1 2 3 4 5 5 6 * 5 6 5 3 7 8 9 > o 2 0 q w e r t y u i & p + a s d f g h j * * * * 4 9 q k w q : + + O l                             ",
"                          z x O + + : w c ; # & v f % b q 0 n 8 2 m 3 5 6 M M N i - B B B V C * 5 3 7 1 , 0 + Z 5 A S D F * G b V y u H e f g j B i i C 3 > : w # q : @ J                               ",
"                            y @ @ @ : c K + o 5 d M L w X < 2 3 P 6 M C C B B j j I I = U = U U j B - N 6 m < 0 + > A Y T t 3 G b y t a u H e g = I I I C 3 < w O R q H                                 ",
"                              e Z o x L o < > E F W G o 1 m P * N B B j = = U h h g Q Q f f v f e f g h U j M m n 0 ! M Y ~ ^ 1 ; G T r t a u H I Q Q v h B N 6 2 X B /                                 ",
"                              ( , c K : 4 5 e D : % : 1 5 * i i j I = g f Q f v H d e d d H H s u H H e d v Q B 6 7 < n , 3 J ) + k x ~ ^ r D E e I H H u f Q e H 4 ( /                                 ",
"                              _ @ ` 3 V j I ^ H L ` , * - B = U Q Q Q f e d d s u u F E E E E E E t E E E E u e h B M 4 3 7 7 2 ^ Z ; g Y A ^ r s 1 E y y a t S ' s U /                                 ",
"                            ] [ 1 a u F e T A b { 0 * B = Q Q f v H H s u F E a E y y t y y t t D D D y t y t y F H Q I N M M 5 7 0 q & A ' A A r = D S S ^ Y ) } | o .                                 ",
"                            / N s  .~ S y A 7 K : 5 I g v e H s u E a y y y D D D r r S ^ ^ ^ ^ S S ^ ^ S S S S D D y F v Q U j C 7 0 : Z J J Y ~ E B Y Y Y ) ..X.o.5 | /                               ",
"                            l : O.} [ A A t % R 1 = v H u E F E y t D r S S S r ^ T A A A A A A A A A A A ~ Y A A A A T t F H e g B 3 > : : [ J ' J R ) ) | z X.o.+.( S /                               ",
"                            +.# o.X.| J Y { ; o V H F y y t t t r r ^ T A A A Y A Y ' Y Y ' Y Y Y ' Y Y Y J Y J ~ Y A A A A t y E v B P 9 + q ~ [ | d ' | ..O.X.o.l @.A .                               ",
"                            y % +.X.X.Y x G # 4 e a r r r S S ^ A A A Y A Y ~ ' J J J J ) ) ) J ) J ) [ Y J ' ) J J ' Y Y ' A A r y d = 6 8 X + u ..z >  .O.X.o.+.@.. A T                               ",
"                            1 #.o._ } 8 $.w 9 h y r A T A A Y ~ A ' ' ' ' ) ) ) ) ) [ | ) ) [ [ [ [ ) | [ J ) ) ) [ ) J ) J Y ' Y T D F Q - 4 < o B %.E  .} X.@.o.+.l t 7                               ",
"                            / R o._ X.% p : 6 F A A ~ Y Y Y Y J ' ' [ J [ [ [ [ | [ | [ [ | z z [ | z [ | | | z [ | z | [ [ | [ ) ' Y T y H = N 7 0 0 H I } o.+.o.@.l @.+.                              ",
"                              A o.o.a { { 0 h r ' ) ) ) ) J [ ) | | ..[ z z z  .| |  . . . ...z %. . .z  .z  .z  . .|  .z %.|  ...[ [ J Y ^ E e B 4 ! & ; O.( o.%.+.+..                                 ",
"                              ] ( ( Z & & 7 E ' ) | ) ) [ )  .[ z  .O.z z  . . .z %.z |  . . . . . . .%.%.%.O. .z  ... .z .. ... .%.|  .[ ) A S E h 3 + k 8 ( +.l @.+..                                 ",
"                              / } o.#.R : - r | ) | | ) ) J J | [ | ..|  ... . ...%.%. .%.O.%.} ..}  .} O.} %.X. .%. .O...%.%. .} %. . .| J z J A y h 1 # Z ' +.l o.. .                                 ",
"                              &.( U L R x f Y | | ) ' Y Y Y A Y Y ) z z  . .%. . .O... .X.%.O.O.%.X.} O.%.%.} O.%.X.} O.%.O.%. .%.[ | J J ' ' J ' A y j 0 R 2 ( @.+.@..                                 ",
"                              @.( q { # 7 y J ) ) Y Y ~ A ^ A A S A ~ ' ) |  . . .....} X.%.%.} }  .O...} O.} O._ O...%...%.| ) J J ~ Y ~ ' ' ' J Y S d 4 @ > h o.+.+..                                 ",
"                              } ) { q q B ^ J J Y Y A Y ^ A S r S ^ r A A J ) |  .%... .O...O.} O._ O.%.} } O.O.%.O.%.%.%.| J J ~ A A ~ ~ A ' Y ' Y ~ E j > O P ( @.l .                                 ",
"                              } A *.O x v ~ Y ' A A A r r ^ S r ^ r r r ^ A Y ~ |  .z %.z  .%.X.X.X.X.X._ %.} %.O.O.%.z | J ~ A A A A A A A Y A A Y Y S v m + V z l +..                                 ",
"                              ..j *.8 1 a J Y A ) ~ E e s a J ' d a S ^ D S A A J J ..%.%.} O.O.O.X.X._ O.O.O.O.O. . .' J A A ^ ^ ^ ^ H ' J t E s a A | ^ j o M v . . &.                                ",
"                            / ..W *.8 N A | y D ' Y A A ^ ^ r r F t D a D D ^ A ~ J |  . .} X.} X._ X.X.X...O.%. .z ) J ~ Y ^ A t r ^ t ~ ~ Y Y Y ' J ' a s J h m l +.&.                                ",
"                            +.z *.*.< J E Y ) ) ' Y ~ A T A A S ^ T r S y D D ^ A ~ [ |  .%.} X.X.} X.X.X.} } }  .[ [ ' A A ^ t ~ ^ A ' Y ' Y Y J ) J ) ^ F 6 h ' l +.&.                                ",
"                            / [ c ; ) d ~ J ) [ Y ' A A Y ^ A A A ^ ^ ^ t Y D ^ ^ A Y [ |  .%.} X.X.X.( _ } O.O.z J ' ~ A ^ ' r Y Y ' ' J ' ) ' J ) [ ) ) S g N 7 ) +./                                 ",
"                               .; J X t ' | ) ) Y Y Y ' ~ A ^ A A A A A A A | S ^ A Y J | %. .%._ X.X.X.X.O.%. .| J ' Y A | ~ Y Y J J J ' ) ) [ J | | | ) Y a f 3 f [ ]                                 ",
"                              S [ #.# ^ J ) | | ) ) ' ' Y J ~ Y A A Y ' ' Y A | A A A J )  .O.X._ X.( O.X.O. .| ) J Y ~ [ Y J | ) J [ J J A J ) ) ) | | | [ ~ S j 1 X.|                                 ",
"                            / o.; #.{ Y J [ | ) | J [ J ' A A A ~ ~ ' ' Y Y J S T A A Y ) z  .%.X.X.} X._ %. .z J Y ' T Y [ [ ) ) | ) J ) ) J [ | |  ... ...) ) d # l X.o.                              ",
"                            . 4 W X k T J ) z  .| [ | ) z ) ) ' A Y ~ Y ' ) J Y J D ~ ~ [ [ |  .%.O.O.} O. .[ ) ' ' ^ z ) [ | | ) ) ) J J [  .| z  . ... . .%...a , / ] ^ /                             ",
"                            X.K p X.e r J [  .)  .| J S y u u t ) Y A ) ) ) J [ J z A A ~ J ) | O.O.O.} ..z J ' ' J  .[ z ..z z ) ) J ) D H H E D Y  .%. .%.O.%.T a l ]   O.                            ",
"                        S N P ; #     F Y | |  .z Y ^ t y E u H d A ) J ) [ J ) J ) T A A Y J z  ... . .| J ) J Y A z %. .O. .[ ) Y A d e u u a t r ~ X.} %. .%.~ /   l   r /                           ",
"                        X.X.5 O ~     E ~ [ z %.| J Y A A t t F H e D ' [ [ ) | [ Y ' A A A Y J |  . .z [ ' Y ~ Y ' [  .....z ) J S e H E y r S ^ ~ ~ J  .O. . .[ / / .   / +.                          ",
"                          |           J r ~ [ | ) J J [ Y A T r y s v A J ) z | z [ %.~ A ^ A J [  . .z ) A A Y Y } |  .O.%.| ) A e H y r A A ' ' ) ) | | ..| A O.  (       )                           ",
"                        ] ~         %.* d S ) | [ z z | ) ) ' Y A t s H ) )  . .z ) ..A T r S Y [ | z ) ~ A A A A X. .....O.z J H s y T ' J [ | |  .z  .z ..) y Z }         A                           ",
"                        / J   &.j G ; Q U D J | | %.X.O.%.%. .z J ~ D y r | %.z z [ z T r y t r ~ | ) Y S t D A A O.z %.} %.| S F t T ' [  ...O.O.%... .%.O.Y E c % k = &.  Y ]                         ",
"                        &.N Z & H &.  o.H t ' |  .%.%.%.X.X._ Y u h y A ^ | z %.| | | D a u r Y J J Y ) Y r F A r  .z O.%.O.z r S A ) | %.} ( ( } X.X.%.%.%.' r W > &.H & Z * &.                        ",
"                        . - ]         Y - S J | | ..} } t 8 < 1 u ' E 4 z z %... .| ) Y s f h U Y J J ~ g f e F Y .. . .X.}  .) r N t s 7 8 , V Q r | | %.| | g %.        ] * &.                        ",
"                        / |           a o ~ ' ' J a h Q Q @ P m ^ | t f r .. . . .) | t E e s A ' J ' ) ~ u H y D %. .O.z O.%.^ j r  .A m 5 @ s t  .| A H y | 0 T           ) /                         ",
"                        / '         ] D X J g I u ' ..A r m x 5 J z y C E z z z z | %.t E u D ~ ' Y ' ~ J ^ a a t X.[ z  ...%.^ * s %.) 5 x 4 ^ ~ %.O.O. .y } + - ]         ~ ]                         ",
"                          '         &.A 7 z M A ' ) |  .A ^ ^ Y J E C A ..z %. . .J  .D y y ^ Y Y ~ Y J J ~ D y S  .) |  .|  ...A y Q J ' A A T  . .z  . .h } x T /         Y                           ",
"                          ( ]       / | s O.Y 7 r A ' )  .' T y E J ) '  . .| z  .) r r a r S ~ Y Y A J J Y r t S r | z  ... .} A A ) J y A Y ..[ z [ ) h ' X.P | /       / o.                          ",
"                          +.%.      /  .) } ^ Y r N M C h ^ ..| J ^ ^ A ..| [  .| | H y t D T Y ~ T T Y ) Y r D t u | z %.%. .O.A r A '  .%.t B = Q B 3 | %.o.e  .]       %.l                           ",
"                          ] [       ] X. .X...a r A Y ' ' Y ~ T S t t Y Y ) | | ) | D y r r A Y A r S A J ' A S y r | |  .| | J J t y S A J ) ) z | z [ ' X.o.' _         [ ]                           ",
"                            o.%.      X.%.O.} ' F y t t S D t y F s r D Y ) [ ) J e t D S D A ^ D t D D A ~ A A S t v | ) [ ) Y r ^ u E t r ^ A A A A ~  ._ +.@.(        .+.                            ",
"                              } /     _ X.X._  .) u F F E F s H u a a ^ Y ' J ' ~ D t ^ t r r t S T A ^ t S ^ S A r r ~ Y ) ) Y A a a F H E y t S r A z O.X.+.+.+.    &.}                               ",
"                              . Y     X.} X.X.O. .' ) D E E D E H y ^ A J ) Y X.a t r S F t r ' [ ..| z J S D a ~ A r a } J ) ' J A y H F S a D A | )  .X.( o.+.@.    Y &.                              ",
"                                ( ^   o.O.X._ } | ) ' r y u E y r A J [ J ' ..s t S A u E A  ._ ( o.( o.X...Y t t A T D u %.J ) ) J A ^ t a u y S Y ) %.( @.l +.l   T @.                                ",
"                                  ( A &. ._ _ X.|  .J Y Y A ~ ~ Y ) ) ) ' %.F ^ r A a r J %.( +.. l . &.+.+.o.[ r y ~ A ^ F  .) | [ ) J Y A ~ Y J [ z X.X.@.l +.&.A @.                                  ",
"                                    o...A } ( X.}  . .z ) ) [ | ) ) J '  .D A Y J A ) %. .%.( o.+.l . +.. +.@.o.( z Y [ ' A r z J | | ) | [ [ | z z %.X._ @.@.J %.+.                                    ",
"                                      ] | ) ' ( X.}  .z z z [ | [ A %.t Y ' ) [ ) T | z z J z ..X._ ( X.( X.O.X.( ( ~ | z ) Y ~ y %.~ | z |  .|  .%.X.( o.[ | ..]                                       ",
"                                        l | Y O.' ^ Y ' ) ~ A |  .t J ) ) | z O...Y y a 5 h t A ' z z | [ ' s * A ~ J ..O. .z ) ) ) t  .z ~ ~ | J J A J X.| ( &.                                        ",
"                                          ' } _ X.Y A r ~ r ~ | | | J | z } } ( } | S s y f I e y r ^ ^ t s v D D T ..X.o.X.X.%.....| %.| Y r ~ ^ Y [ +.+.o.X.                                          ",
"                                          z | O.X.X.X._ %.X. . .....%.O.X._ ( ( ( } [ Y v J T Q U Q v d E | %.E [ | %.o.o.( ( X.X.%.} O.%.O.X.X.( ( @.@.o.o.(                                           ",
"                                          &.~ | O.} X.} O.} X.O.} } X._ o.o.+.( X._ O.} %.| ) y h B j f T } ( ( _ %.( o.@.@.@.@.( ( O.( X.X._ _ o.o.( ( ( O./                                           ",
"                                            A Y | %.} } X.X.X.( ( _ X.( @.o.+.( _ _ X.( ( X.} | ' A ^ ~ ..( o.+.( _ ( o.@.+.+.@.o._ ( ( o.( +.( ( o.@.X.O.z                                             ",
"                                            +.A J ) O.} %.} _ X.( _ o.+.+.o.o.o.( ( o.( o.o.o.X.( X.X.%.( . +.+.o.@.+.+.+.+.+.o.+.o.o.o.o.( ( ( ( ( ( X. .l                                             ",
"                                              r ^ ) |  .O.X.X._ o.o.o.+.+.l @.+.( o.( ( o.o.+.@.o.o.o.( o.+.l +.o.o.+.+.. . l +.+.+.@.@.+.o.o.o.o.} %. .|                                               ",
"                                              +.D ~ ) | O.X._ _ ( ( ( o.o.o.+.@.o.o.@.+.( o.l l @.+.. ( l . +.@.+.+.+.. . . l +.+.l +.@.o.o.o.( _ X.z [ .                                               ",
"                                                S r Y )  .O.X._ o.( o.o.o.+.@.o.@.@.@.+.l +.l @.X.%.%._ @.+.+.+.+.l l . l . @.. +.+.+.+.@.( ( ( O. .[ )                                                 ",
"                                                  F ^ ' )  .O.X.( @.+.+.( o.( o.( o.+.. &.. . o.O.z z ..( l . . +.. +.. l . +.l l l @.@.+.o.( } %.| ~                                                   ",
"                                                  +.a ^ Y |  .} o.o.( ( o.( _ ( _ } _ ( @.o.. . +.+.+.+.&.. +.+.@.+.@.l l l @.+.+.o.+.o.o._ O...) Y .                                                   ",
"                                                    ' a ^ Y |  .X.X.} ( +.X.t E r ^ Y ' ) | .._ o.@.o.o._ O.} O. .| ) J T A +.+.l @.@.( ( } ..| Y  .                                                    ",
"                                                      E a ^ ' ) ..%.X.X.o.@.h m 1 5 h E r A ~ Y ' ' ) J J J J A r d C 2 m h +.+.@.o._ _ %. .[ ~ A                                                       ",
"                                                      ] s F r ~ J z ..%._ @.( O.| J r v M m 1 7 m 4 4 m m 2 m * f D Y z X.+.l @.( _ } } | J A ^ ]                                                       ",
"                                                        ] e u r ~ ) z } _ ( o.( o.+.@.o.( ( _ X.O.} } } X._ ( o.+.+.. l l +.+.o.o.( O.| ' A D ]                                                         ",
"                                                            Q u r Y )  .%._ ( @.o.( X.X.o.+.+.+.. . @.&.. . +.+.o.@.+.l . . l @.o.X.z ) T a                                                             ",
"                                                              F H r Y )  .O.( @.o.o.@.( _ ..%.%.%...%.%.X.%.} o.o.. &.. . +.@.( } ..Y r ^                                                               ",
"                                                                ) v t A J  .} ( o.+.. +.. l +.@.( o.@.( @.@.+.l +.. . . l +.( O.| ' t ..                                                                ",
"                                                                  l f E S J [ } o.+.. +.. . . . +.l . . l l . l . . . l @.X.%.| ~ y .                                                                   ",
"                                                                      y e t A [ ..( o.l +.+.&.&./ . . . &.. &.l l . @.o.X.%.) r ~                                                                       ",
"                                                                        +.h a ~ ) ..( o.@.+.+.+.@.l . +.@.. +.+.o.o.( _  .A E l                                                                         ",
"                                                                            E u ^ J [ ..%.} ( X.( ( _ ( ( X._ X.X.} z ) A A                                                                             ",
"                                                                              _ v y T Y [ [  .z  .z ..O... . .z [ ) ~ D @.                                                                              ",
"                                                                              @.C 4 e E D ^ A ~ A ~ ~ Y Y ~ A ^ ^ t - C @.                                                                              ",
"                                                                        o.h k #., e u h = v H E E a a y E F H e e E e < #.; g o.                                                                        ",
"                                          / l /             . } Y a f B % L * j = Q u y D D r s g Q Q f u D D t a u f I j * L % V Q E Y O..             / l /                                           "
};
