/* XPM */
static char * image_name[]={
"100 75 104 2",
"  	c #FFFFFF",
". 	c #F5F5F5",
"X 	c #474747",
"o 	c #454545",
"O 	c #3D3D3D",
"+ 	c #3B3B3B",
"@ 	c #383838",
"# 	c #2E2E2E",
"$ 	c #050505",
"% 	c #121212",
"& 	c #242424",
"* 	c #737373",
"= 	c #8A8A8A",
"- 	c #7D7D7D",
"; 	c #1F1F1F",
": 	c #363636",
"> 	c #4D4D4D",
", 	c #545454",
"< 	c #575757",
"1 	c #5C5C5C",
"2 	c #5E5E5E",
"3 	c #666666",
"4 	c #696969",
"5 	c #6E6E6E",
"6 	c #707070",
"7 	c #616161",
"8 	c #595959",
"9 	c #4F4F4F",
"0 	c #4A4A4A",
"q 	c #333333",
"w 	c #292929",
"e 	c #9C9C9C",
"r 	c #B8B8B8",
"t 	c #B3B3B3",
"y 	c #B0B0B0",
"u 	c #A6A6A6",
"i 	c #7E7E7E",
"p 	c #0F0F0F",
"a 	c #ADADAD",
"s 	c #A3A3A3",
"d 	c #9E9E9E",
"f 	c #969696",
"g 	c #919191",
"h 	c #8F8F8F",
"j 	c #858585",
"k 	c #212121",
"l 	c #F2F2F2",
"z 	c #D6D6D6",
"x 	c #424242",
"c 	c #000001",
"v 	c #999999",
"b 	c #141414",
"n 	c #525252",
"m 	c #636363",
"M 	c #757575",
"N 	c #787878",
"B 	c #828282",
"V 	c #7F7F7F",
"C 	c #7A7A7A",
"Z 	c #303030",
"A 	c #C2C2C2",
"S 	c #BABABA",
"D 	c #B5B5B5",
"F 	c #A8A8A8",
"G 	c #1C1C1C",
"H 	c #A1A1A1",
"J 	c #CCCCCC",
"K 	c #171717",
"L 	c #0D0D0D",
"P 	c #6B6B6B",
"I 	c #878787",
"U 	c #8C8C8C",
"Y 	c #C7C7C7",
"T 	c #BFBFBF",
"R 	c #2B2B2B",
"E 	c #ABABAB",
"W 	c #0A0A0A",
"Q 	c #949494",
"! 	c #404040",
"~ 	c #C4C4C4",
"^ 	c #BDBDBD",
"/ 	c #FAFAFA",
"( 	c #E8E8E8",
") 	c #CFCFCF",
"_ 	c #E5E5E5",
"` 	c #262626",
"' 	c #C9C9C9",
"] 	c #FCFCFC",
"[ 	c #D1D1D1",
"{ 	c #1A1A1A",
"} 	c #E0E0E0",
"| 	c #D4D4D4",
" .	c #F7F7F7",
"..	c #D9D9D9",
"X.	c #E3E3E3",
"o.	c #EBEBEB",
"O.	c #DEDEDE",
"+.	c #F0F0F0",
"@.	c #EDEDED",
"#.	c #DBDBDB",
"$.	c #030303",
"%.	c #080808",
"&.	c #DCDCDC",
"*.	c #000000",
"                        . X o o o O + @ # $ % & * = - $ ; : o > , < 1 2 3 4 5 5 6 * 5 6 5 3 7 8 9 > o 2 0 q w e r t y u i & p + a s d f g h j * * * * 4 9 q k w q : + + O l                             ",
"                          z x O + + : w c ; # & v f % b q 0 n 8 2 m 3 5 6 M M N i - B B B V C * 5 3 7 1 , 0 + Z 5 A S D F * G b V y u H e f g j B i i C 3 > : w # q : @ J                               ",
"                            y @ @ @ : c K + o 5 d M L w X < 2 3 P 6 M C C B B j j I I = U = U U j B - N 6 m < 0 + > A Y T t 3 G b y t a u H e g = I I I C 3 < w O R q H                                 ",
"                              e Z o x L o < > E F W G o 1 m P * N B B j = = U h h g Q Q f f v f e f g h U j M m n 0 ! M Y ~ ^ 1 ; G T r t a u H I Q Q v h B N 6 2 X B /                                 ",
"                              ( , c K : 4 5 e D : % : 1 5 * i i j I = g f Q f v H d e d d H H s u H H e d v Q B 6 7 < n , 3 J ) + k x ~ ^ r D E e I H H u f Q e H 4 ( /                                 ",
"                              _ @ ` 3 V j I ^ H L ` , * - B = U Q Q Q f e d d s u u F E E E E E E t E E E E u e h B M 4 3 7 7 2 ^ Z ; g Y A ^ r s 1 E y y a t S ' s U /                                 ",
"                            ] [ 1 a u F e T A b { 0 * B = Q Q f v H H s u F E a E y y t y y t t D D D y t y t y F H Q I N M M 5 7 0 q & A ' A A r = D S S ^ Y ) } | o .                                 ",
"                             .N s ..~ S y ~ 7 K : P I g v e H s s E a y y y D D D r r S ^ ^ ^ ^ S S ^ T S S S S D D y u v Q h j C 7 0 : Z J J Y ~ E B Y Y Y | ..X.o.5 | /                               ",
"                            l : O.} [ A A t % w 1 = v H s E E E y t D r S S S r A T A A A A A A A A ~ A A A Y A A A T T t F H v g B 3 > : : [ J J J R ) ) | z X.o.+._ S /                               ",
"                            @.# o.X.| J ' { ; o V H F y y t t t r r ^ ^ A A A Y A Y ' Y Y Y Y Y Y ' Y Y Y ' Y Y ~ Y A A A A t y u v B P n + q ~ [ | d ' | #.O.X.o.l @.~ .                               ",
"                            y % +.X.X.Y x G # 4 d a r S r r S ^ A A A Y A Y ~ ' J J J J ) ) ) J J J ) [ Y J J ) J J ' Y Y ' A A D y d = * 1 X + u #.z > ..O.X.o.+.@.. A T                               ",
"                            1 $.o._ } 8 %.w 9 g y r A A A A Y ~ A ' ' ' ' ) ) ) ) ) [ | ) ) [ [ [ [ ) | [ J ) ) ) ) ) J ) J Y ' Y T D F Q - 4 < o B &.E ..} X.@.o.+.l t 7                               ",
"                            / R o._ X.b p @ 6 F A A ~ Y Y Y ' J ' ' [ J ) [ [ [ | [ | [ [ | z z [ | z [ | | | z [ | z | [ ) | [ ) ' Y T y H = N 7 0 0 s I } o.+.o.@.l @.+.                              ",
"                              A ( o.a { K 0 h r ' ) ) ) ) J [ ) | | ..[ z z z ..| | ........#.z &.....z ..z ..z ....| ..z &.| ..#.[ [ J Y ^ E e B 4 ! & k O.( o.#.+.+..                                 ",
"                              ] ( ( Z & & 7 E ' ) | ) ) ) ) ..[ z ..O...z ..#...z &.z | ......z ......&.&.&.O...z ..#...z ....#...O.| ..[ ) A S F h 3 + k 8 ( +.l @.+..                                 ",
"                              / } o.$.R : - r | ) | | ) J J J | [ | #.| ..#.....#.&.&...&.O.&.} #.} ..} O.} &.X...&...O.#.&.&...} &.....| J z J A y h 1 # Z ' +.l o.. .                                 ",
"                              . ( U W R x f Y | | ) ' Y Y Y A Y Y J z z ....&.....O.#...X.&.O.O.&.X.} &.&.&.X.O.&.X.} } &.O.&...&.[ | J J J ' J ' A y B 0 R 2 ( @.+.@..                                 ",
"                              o.( q { # 7 y J ) ) Y ' ~ A ^ A A S A ~ ' ) | ......#.#.} X.&.&.} } ..O.&.} O.} O._ O.#.&...&.| ) ' J ~ Y ~ ' ' ' J Y S e 4 @ > h o.+.+..                                 ",
"                              } ) { q : B ^ J J Y Y A Y ^ A S r S T r A A J ) | ..&.&.#.O.&.O.} O._ O.O.X.X.O.} &.O.&.&.&.| J J ~ A A ~ ~ A J Y ' Y ~ E j > O P ( +.l .                                 ",
"                              } A *.O x e ~ Y J ~ A A r r ^ S r ^ r r r ^ A Y Y | ..z &.z ..&.X.X.X.X.X._ &.} } O.O.&.z | J Y A A A A A A A Y A ^ Y Y S v m + B z +.+..                                 ",
"                              &.j *.< 1 y J Y A ) ~ E e s y J ' d y S ^ D S A Y J J #.&.&.} O.O.O.} X._ O.O.O.&.O.....' J A ~ ^ ^ T ^ H ' J t F s a A | ^ j X M e . . .                                 ",
"                            / #.W *.8 N A | y t ' Y A A ^ ^ r r F t D a r D ^ A ~ ) | ..&.} X.X.X.X.X.} X.#.O.&...| ) J ~ Y ^ A t r ^ t ~ ~ Y Y Y ' J ' a s ) U m +.+. .                                ",
"                            +.z *.*.< J a Y ) ) ' Y ~ A T A A S ^ T r S y D D S A Y ) | z &.} X.X.} _ X.X.O.} } ..[ [ Y A A ^ t ~ ^ A Y Y Y Y Y J J J ) ^ F 6 h ' l +./                                 ",
"                            / [ c ; ) d ~ J ) [ Y ' A A Y ^ A A A ^ ^ ^ t Y D ^ A A Y [ | #.O.} X.X.X.( _ O.&.O.z ) ' ~ ~ ^ ' r Y Y ' ' J ' ) ' J ) [ ) ) S g N 7 ) +./                                 ",
"                              ..; J X t ' | ) ) Y Y Y ' ~ A ^ A A A A ~ A A | S ^ A Y J | &...&._ X.X.X.X.O.&...[ J Y Y A | Y Y Y J J J ' ) ) [ J | | | ) Y a f 3 f [ ]                                 ",
"                              S [ $.# ^ J ) | | ) ) ' ' Y Y ~ Y A A Y ' Y ' A | T A A J ) ..&.X._ X.( O.X.} ..| ) J Y ~ [ Y J | ) J [ ) ) ~ J ) ) ) | | | [ ~ S j 1 X.|                                 ",
"                            / o.; $.{ Y J [ | ) | J [ J ' A A A ~ ~ ' ' ' Y ' S A A A Y ) z ..&.X.X.} X._ O...z J Y ' T Y ) ) [ [ | [ J ) ) J [ | | ..#...#.) ) d # l X.o.                              ",
"                            . 4 W X k T J ) z ..| [ [ ) ) ) ~ A ~ Y ~ ~ ' ) J Y J D ~ ~ [ [ | ..&.O.O.} O...) ) ' ' ^ z ) [ | ..[ ) ) J ' [ | | z &...#.....&.#.a , / ] ^ /                             ",
"                            X.K p X.e r J [ ..) ..| | ' A S S T ) ~ A ) ) ) ) | ) z A A ~ ' ) | O.O.O.} ..z J ' ' J ..) z #...z | [ ) ) A D ^ A Y ..#.O...&.O.&.T a l ]   O.                            ",
"                        S C 5 ; #     F Y | | ..#.) ) [ | ) ~ r t Y ) J ) [ J ) J ) T A A Y J z ..#.....| J ) J Y A z &...O.#.| ..| ' y D Y [ ) [ J J X.} &...&.~ /   l   r /                           ",
"                        X.X.6 + ~     E ~ [ z ..) | a v u f I D ' y ^ ) [ | [ | [ Y ' A A A Y J | #.....[ ' Y ~ Y ' [ ..#.&.#...| S a Y S U e H e t z z O.} #...[ / / .   / +.                          ",
"                          |           J r ~ ) | ^ A Y ~ ^ r t E h ~ a Y ) | z | z [ &.~ A ^ A J [ ....z ) A A Y Y } | ..} #...z ~ y Y h a t S S A A A T O.&.| A O.  (       )                           ",
"                        ] ~         &.* d r ) d ) | | J ) J J A t e Y a [ [ ......[ &.A T r ^ Y [ | z ) ~ A A A A X...&.&.O.&.| E Y e t A ) J ) [ ) | | u ..) y Z }         A ]                         ",
"                        / J    .j ; k Q h D r ' | ..&.z z ' Y ) | D g ) S | O.....) z T r y t D ~ | ) Y S D D A T O.z &.} O.#.r J g t ..| ) ' ..&...z #.[ ~ Y E c p k U  .  Y ]                         ",
"                        / N Z & H  .  o.H t = [ ..&.O.| A Y ~ ) | ) y C A ....&.| | | D a u r Y J J ' ) Y r F A r &.z O.O.X.&.~ i t ) ..[ A Y Y | X.X.#.O.Q ' r W 0  .H k Z * /                         ",
"                         .- ]         Y - r E | | | O.~ Y 3 4 M ..O.D I #.#.O.&...| ) Y s f U U ~ J J ~ g f v F Y #...X.X.} ..&.I t } } M 4 3 ~ ~ X._ O.O.r | g &.        ] * /                         ",
"                        / [           y o ~ A J ..#.O.Y ^ 0 U j #.O.t f S } &.#...) | t E e s A ' J ' ) ~ u s y D &...} &.X.} A Q r _ X.B U > ^ Y X.X.#.#.z [ 0 T           ) ]                         ",
"                        / '         ] D X ) t J ) | O.Y A * 1 = &.O.y Q j #.......| &.t E u D Y ' Y ' Y J A y y D X.| z ..&.O.U Q y X.&.= 1 * A Y &.O.O.#.T } + - ]         Y ]                         ",
"                        ] Y         / ~ 7 | f A ' ) [ ..A Y Y [ z ~ E C A &.&.....J ..D y y ^ Y Y ~ Y J J ~ D y S ..) | O.z O.~ C s A ..| ' ~ A ..........e } x T /         Y                           ",
"                          ( ]       / | s O.r y ^ ~ ' ) &.) J z ' y h ^ &.&.z ....) r r y r ^ ~ Y Y A J J Y S t S r | z ..&.&.O.T U y J ..J J #.[ z [ ) A ^ X.P | /       / o.                          ",
"                          +.&.      / ..) } A N E ^ T A A Y A S y U J z &...| #.| | H y t D ^ Y ~ T T Y ) Y S D t u ..z #.X...} ..J U a S ~ J ' J ' J ^ i &.o.e ..]       &.l                           ",
"                          ] [       ] X...X.O.r g B y t t t t H B z ' [ [ | | z ) | D y r S A Y A r S A J ' A ^ y r | | #.| z | ..) | B H t S A T A = g | X.o.' _         [ ]                           ",
"                            o.&.      X.&.O.} J t ' Q 5 * M g Y ' ^ Y A Y [ [ ) J e t t ^ r A ^ D t D D A ~ A A S t v | ) [ [ ' A Y T J J g M M P f | J .._ +.@.(       ..+.                            ",
"                              } /     _ X.X._ &.[ t D ~ Y ~ ^ D t r r A ' J ) ' ~ D t ^ t S r t S T A ^ t S ^ S A r r ~ Y [ [ ' A r r r r A J ) ' Y A &.} X.+.+.+.     .}                               ",
"                              . Y     X.} _ X.} ..' ) A r r D y E r A Y J ) Y X.E t r ^ E t D ' [ #.| z J S D a Y A r a } J J ' J A r E y ^ S A J z ) ..( _ o.+.@.    Y  .                              ",
"                                ( ^   o.&.X._ X.z ) J S t E y D S A ' [ ) ' #.s t S A u E A .._ ( o.( o.X.#.Y t t A ^ D u &.J ) ) ' J T r t y r A Y ) O._ @.l +.l   T @.                                ",
"                                  ( A  ...X._ X...#.J Y Y ~ Y Y ' ) ) ) ) &.F ^ S A a r J &.( +.. l .  .+.+.o.z r y A A ^ F ..) | | ) J ' Y ~ ' J [ ..} ( @.+.@. .A @.                                  ",
"                                    o.#.A } ( X.X...z z [ ) | | [ | ) J ..D A Y ' A ) &...&.( o.+.l . +.. +.@.o.( z Y [ Y A r z J | ) [ [ ) | [ z | &.X.( @.@.J &.+.                                    ",
"                                      ] | ) ' o.X.O.z z | ..) z | A &.t ~ ' ) | [ T | z z J z #.X._ ( X.( X.O.X.( ( ~ | | J Y A y &.Y | | | z [ &.&.X._ o.) | #.]                                       ",
"                                        l ..Y O.' S ' ' [ ~ ~ | ..t J J ) | ..O.&.' y a 5 h t A ' z z | [ ' s * A ~ J O.O.z z [ | ) t ..z ~ ~ | ) ' A J X.| (  .                                        ",
"                                          ) } X.X.Y A r ~ t ~ | | | ) [ z } } ( } z T s y f I e y r ^ ^ t s v D D Y #.X.o.X.} #.#.#.| O.| ~ r ~ ^ Y [ @.+.o._                                           ",
"                                          ) z } X.} X._ } X.........&.O.X._ o.( ( } | Y v J A Q U Q v d E | &.a | z } X.@.o.( X.X.#.O.&.&.&.X.X.( o.+.+.@.( (                                           ",
"                                          +.Y | } } X.} O.X.X.O.X.} } _ ( o.+.@.X._ X.X.O.z [ t Q j j v ~ X.( o.o.X.( o.+.+.@.@._ ( O.X.} X._ ( o.o.o.o.o.X..                                           ",
"                                            A J | &.O.X._ ( ( X.( _ X.( @.+.@.o.( ( ( _ ( X.O.z ' A T Y &.( o.+.o.( o.@.+.+.@.+.o.( ( ( @.( @.o.( o.@.( X...                                            ",
"                                            | Y | | } X.&.X._ X.( _ o.o.@.+.+.o.( o.o.( +.o.o.X.} O.} ..( +.l @.+.@.+.+.+.+.@.o.@.( o.o.o.( ( o.@.o.( X.X.X.                                            ",
"                                            / S Y | ..#.} O.X._ o.( ( o.+.@.o.( ( ( ( @.+.+.@.+.o.o.o.( o.l  .. +.@.+.+.. +.+.l @.+.o.@.+.@.+.@.o.X.X.#.| ]                                             ",
"                                              ~ A J [ #.} X._ _ ( ( ( @.o.+.l o.o.@.o.+.+.o.. +.@.@.+.o.l . +.+.+.l +.. . l l l +.l o.o.( o.o.( ( X.#.z z                                               ",
"                                              ] t A J | &.X.} X._ ( ( o.o.+.@.o.o.o.+.+.. l . +. .+.+.@.. . . l l . +.l l +.+.+.+.+.@.@.o.( ( ( X.&.z J ]                                               ",
"                                                [ r Y ) z #.&.X.( X.o.( ( o.o.+.( o.@..  .. . / . . +.l . l .  .+.. l . l +.+.l . o.@.@.@.o._ _ O...J }                                                 ",
"                                                  E S Y ) #.&.} X.X.( X._ ( ( @.( ( @.+.+.l +./ +./ l / . / / l . l l l . . @.@.+.o.o.o.( _ } &...[ ~                                                   ",
"                                                  . E T ' ) ..&.X.} O.X.@.X.( o.o.( @.@.. / +.. l  ..  . . .. . . / +.. +.. +.@.+.+.@.( ( ( &...z ~  .                                                  ",
"                                                    A y A Y [ z &.} X.( o._ _ o.@.( o.@.+.+..  . .. . . l . l  .. l l . l +.@.+.@.o.( X.O.&.&.) J |                                                     ",
"                                                      F t A J ) z ..O.} _ } [ ( o.X._ o.+.@.+.+.+.. l l l l . . +.@.@.+.l X.( o.( ( _ X.O...| J ~                                                       ",
"                                                       .s t A ' ) | #...X.o.y P a A ~ [ O.X.} _ o.o.@.X.X._ _ X.O.| [ T M a @.o._ _ } z ..| J S /                                                       ",
"                                                        X.s D ^ Y J [ | &.( +._ Y H N 3 C Q d F D A A r E s H B 4 N H ~ _ . l ( X.X.....| J ^ o.                                                        ",
"                                                          ~ u D A Y ) ) z } ( +.+.+.o._ &.| [ [ | ....[ [ ) ) O._ +.+.. . +.o.} } #...[ Y A z                                                           ",
"                                                            S H t A Y ' | &.O.( ( +.@.@.. . . . l . /  .. +.. . . . +.+.. l @.X.O.&.| Y T J                                                             ",
"                                                              D u t A ' [ | &.( ( ( ( ( ( ( +.@.+.@.+.l @.l +.+.+.+.+.+.@.o._ X...) Y S '                                                               ",
"                                                                Y H y A ~ | ..} o.o.o.@.o.( o.( ( o.o.o.o.+.+.@.l +.+.+.@.o._ &.z ' S |                                                                 ",
"                                                                  z H t A ' [ #._ o.( o.o.+.o.( o._ ( o.o.o.+.+.+.. . @.o.X.O.[ ' r }                                                                   ",
"                                                                    l v y ^ A ) O.( o.( o.o.+.o.@.o.o.( @.+.+.+.+.+.o.( X...[ ~ t .                                                                     ",
"                                                                      ] v F S Y | } _ ( o.@.o.( ( o.o.( o.@.@.( +.@.( O.&.| Y t ]                                                                       ",
"                                                                          y s D ~ [ #.O.X.} X._ } X.} ( ( X.X.o.X._ O...| ^ ~                                                                           ",
"                                                                        o.h @ e D A ' [ z ..#.&.&.&.&.&.&.} } &...z [ Y r ! h o.                                                                        ",
"                                          / l /             . } Y E f B p L * j Q E S ^ ' J ) J | [ [ ) | [ | J [ ' A t I * L p V Q E Y O..             / l /                                           "
};
