/* XPM */
static char * image_name[]={
"28 18 2 2",
"  	c #5DF370",
". 	c #BFBFBF",
"                                                    . . ",
"                                                    . . ",
"                                                    . . ",
"                                                    . . ",
"                                                    . . ",
"                                                    . . ",
"                                                    . . ",
"                                                    . . ",
"                                                    . . ",
"                                                    . . ",
"                                                    . . ",
"                                                    . . ",
"                                                    . . ",
"                                                    . . ",
"                                                    . . ",
"                                                    . . ",
". . . . . . . . . . . . . . . . . . . . . . . . . . . . ",
". . . . . . . . . . . . . . . . . . . . . . . . . . . . "
};
