/* XPM */
static char * image_name[]={
"38 29 5 2",
"  	c #F08080",
". 	c #FF7256",
"X 	c #BFBFBF",
"o 	c #9B7071",
"O 	c #91535D",
"                                                        . .             X X ",
"                                                          . o           X X ",
"                                                            . .         X X ",
"                                                              o .       X X ",
"                                                              . o       X X ",
"                                                                . o     X X ",
"                                                                  o .   X X ",
"                                                                  . o   X X ",
"                                . o o o .                         . o . X X ",
"                              o O O O O O o                         o o X X ",
"                            o O O o o o o o o                       . o X X ",
"                          . O O o o . . . . o                       . o X X ",
"                          o O O o .     . . o .                     . o X X ",
"                          o O O o .       . . .                       o X X ",
"                          o O O o .     . . o .                       . X X ",
"                          . O O o o . . . . o                         . X X ",
"                            o O O o o o o o .                         . X X ",
"                              o O O O O O o                         . . X X ",
"                                . o o o .                           . o X X ",
"                                                                    . o X X ",
"                                                                  . o o X X ",
"                                                                  . o o X X ",
"                                                                . o o   X X ",
"                                                              . o .     X X ",
"                                                            . o .       X X ",
"                                                          . o .         X X ",
"                                                        . o             X X ",
"X X X X X X X X X X X X X X X X X X X X X X X X X X X X X X X X X X X X X X ",
"X X X X X X X X X X X X X X X X X X X X X X X X X X X X X X X X X X X X X X "
};
