/* XPM */
static char * image_name[]={
"18 15 7 2",
"  	c #FFFFFF",
". 	c #FCFCFC",
"X 	c #F0FFFF",
"o 	c #F0F8FF",
"O 	c #F0F0F0",
"+ 	c #EDEDED",
"@ 	c #BFBFBF",
"                . . X X o o O + @ @ ",
"                                @ @ ",
"                                @ @ ",
"                                @ @ ",
"                                @ @ ",
"                                @ @ ",
"                                @ @ ",
"                                @ @ ",
"                                @ @ ",
"                                @ @ ",
"                                @ @ ",
"                                @ @ ",
"                                @ @ ",
"@ @ @ @ @ @ @ @ @ @ @ @ @ @ @ @ @ @ ",
"@ @ @ @ @ @ @ @ @ @ @ @ @ @ @ @ @ @ "
};
