/* XPM */
static char * image_name[]={
"24 18 2 2",
"  	c #EEE8AA",
". 	c #BFBFBF",
"                                            . . ",
"                                            . . ",
"                                            . . ",
"                                            . . ",
"                                            . . ",
"                                            . . ",
"                                            . . ",
"                                            . . ",
"                                            . . ",
"                                            . . ",
"                                            . . ",
"                                            . . ",
"                                            . . ",
"                                            . . ",
"                                            . . ",
"                                            . . ",
". . . . . . . . . . . . . . . . . . . . . . . . ",
". . . . . . . . . . . . . . . . . . . . . . . . "
};
