/* XPM */
static char * image_name[]={
"28 18 7 2",
"  	c #FFFFFF",
". 	c #BFBFBF",
"X 	c #FCFCFC",
"o 	c #F0FFFF",
"O 	c #F0F8FF",
"+ 	c #F0F0F0",
"@ 	c #F2F2F2",
"                                                    . . ",
"                                                    . . ",
"                                                    . . ",
"                                                    . . ",
"                                                    . . ",
"                                                    . . ",
"                                                    . . ",
"                                                    . . ",
"X                                                   . . ",
"X                                                   . . ",
"o X X                                               . . ",
"o X X X                                             . . ",
"o X X                                               . . ",
"O o o X                                             . . ",
"O O o o X X                                         . . ",
"+ @ o o o X                                         . . ",
". . . . . . . . . . . . . . . . . . . . . . . . . . . . ",
". . . . . . . . . . . . . . . . . . . . . . . . . . . . "
};
