/* XPM */
static char * image_name[]={
"38 29 6 2",
"  	c #EFDF84",
". 	c #EEDD82",
"X 	c #D1C166",
"o 	c #BFBFBF",
"O 	c #EEE8AA",
"+ 	c #FFA07A",
"                                                        . X             o o ",
"      O                                                   . X           o o ",
"O   O O O             O   O O                               X .         o o ",
"O O O O O O O O O     O O                                     X         o o ",
"O O O O O O O O O O O                                           +       o o ",
"O O O O O O O O O O                               O             . X     o o ",
"  O   O O O O O O O                               O O             X .   o o ",
"O O O O O O O O                                       O           . +   o o ",
"O O O O O O O O                 . + + X         O     O             +   o o ",
"O O O O O O O O               + + + + + + X     O   O O O           X X o o ",
"O O O O O O O               + + + + + X + + X   O O O O O           . + o o ",
"O O O O O O O             . + + + X . . . X +   O O O O O           . + o o ",
"O O O O O O O             X + + + .         X   O O O O O             + o o ",
"O O O O O O O             + + + X           X .   O O O O             X o o ",
"  O O O O O O             + + + + .         X . O O O O O             X o o ",
"    O O O O O             . + + + X .   . . +   O O O O O             . o o ",
"      O O O O               + + + + + X + + X   O O O O O             X o o ",
"        O O O                 + + + + + + X     O O O O O             X o o ",
"          O O O                 . + + +         O O O O               X o o ",
"            O O                               O O O O O             . + o o ",
"              O O                           O   O O O               X + o o ",
"              O   O                             O O               X + + o o ",
"                  O O                                           . + X   o o ",
"                                                              . + .   O o o ",
"                            O         O O                   . +     O O o o ",
"                                                          . +     O O O o o ",
"                                                        X +     O O O   o o ",
"o o o o o o o o o o o o o o o o o o o o o o o o o o o o o o o o o o o o o o ",
"o o o o o o o o o o o o o o o o o o o o o o o o o o o o o o o o o o o o o o "
};
