/* XPM */
static char * image_name[]={
"14 13 5 2",
"  	c #5DF370",
". 	c #BFBFBF",
"X 	c #73DE78",
"o 	c #78D54B",
"O 	c #509F69",
"                        . . ",
"                        . . ",
"                        . . ",
"                        . . ",
"                        . . ",
"X X   X                 . . ",
"X X X X X X X X         . . ",
"X X X X X X X X X X X X . . ",
"X X X X X X X X X X X X . . ",
"o X X X X X X X X X X X . . ",
"O O O O O O X X X X X X . . ",
". . . . . . . . . . . . . . ",
". . . . . . . . . . . . . . "
};
