/* XPM */
static char * image_name[]={
"48 17 2 2",
"  	c #F08080",
". 	c #BFBFBF",
"                                                                                            . . ",
"                                                                                            . . ",
"                                                                                            . . ",
"                                                                                            . . ",
"                                                                                            . . ",
"                                                                                            . . ",
"                                                                                            . . ",
"                                                                                            . . ",
"                                                                                            . . ",
"                                                                                            . . ",
"                                                                                            . . ",
"                                                                                            . . ",
"                                                                                            . . ",
"                                                                                            . . ",
"                                                                                            . . ",
". . . . . . . . . . . . . . . . . . . . . . . . . . . . . . . . . . . . . . . . . . . . . . . . ",
". . . . . . . . . . . . . . . . . . . . . . . . . . . . . . . . . . . . . . . . . . . . . . . . "
};
