/* XPM */
static char * image_name[]={
"44 12 2 2",
"  	c #F08080",
". 	c #BFBFBF",
"                                                                                    . . ",
"                                                                                    . . ",
"                                                                                    . . ",
"                                                                                    . . ",
"                                                                                    . . ",
"                                                                                    . . ",
"                                                                                    . . ",
"                                                                                    . . ",
"                                                                                    . . ",
"                                                                                    . . ",
". . . . . . . . . . . . . . . . . . . . . . . . . . . . . . . . . . . . . . . . . . . . ",
". . . . . . . . . . . . . . . . . . . . . . . . . . . . . . . . . . . . . . . . . . . . "
};
