/* XPM */
static char * image_name[]={
"48 17 5 2",
"  	c #D6D6D6",
". 	c #BFBFBF",
"X 	c #DBDBDB",
"o 	c #E0E0E0",
"O 	c #E8E8E8",
"                                                                                            . . ",
"                                                                                            . . ",
"                                                                                            . . ",
"                                                                                            . . ",
"                                                                                            . . ",
"                                                                                            . . ",
"                                                                                            . . ",
"                                                                                            . . ",
"                                                                                            . . ",
"                                                                                            . . ",
"                                                                                            . . ",
"                                                                                            . . ",
"                                                                                          X . . ",
"                                                                                          o . . ",
"                                                                                          O . . ",
". . . . . . . . . . . . . . . . . . . . . . . . . . . . . . . . . . . . . . . . . . . . . . . . ",
". . . . . . . . . . . . . . . . . . . . . . . . . . . . . . . . . . . . . . . . . . . . . . . . "
};
