/* XPM */
static char * image_name[]={
"28 18 3 2",
"  	c #F08080",
". 	c #BFBFBF",
"X 	c #DEB887",
"                                                    . . ",
"                                                    . . ",
"                                    X X X X   X X   . . ",
"                  X             X X X X X X   X X   . . ",
"                X         X X     X X X X     X X   . . ",
"                                  X   X X X X X X   . . ",
"                                  X       X X X X   . . ",
"                                  X X X   X   X X   . . ",
"                              X X X X X X X X X X X . . ",
"                                      X X X X X X X . . ",
"                                      X   X X X X X . . ",
"                                X X X X       X X X . . ",
"                                    X       X X X X . . ",
"                              X X     X X X X X X X . . ",
"                              X X     X X X X X X X . . ",
"                                        X X X X X X . . ",
". . . . . . . . . . . . . . . . . . . . . . . . . . . . ",
". . . . . . . . . . . . . . . . . . . . . . . . . . . . "
};
