/* XPM */
static char * image_name[]={
"35 17 2 2",
"  	c #73DE78",
". 	c #BFBFBF",
"                                                                  . . ",
"                                                                  . . ",
"                                                                  . . ",
"                                                                  . . ",
"                                                                  . . ",
"                                                                  . . ",
"                                                                  . . ",
"                                                                  . . ",
"                                                                  . . ",
"                                                                  . . ",
"                                                                  . . ",
"                                                                  . . ",
"                                                                  . . ",
"                                                                  . . ",
"                                                                  . . ",
". . . . . . . . . . . . . . . . . . . . . . . . . . . . . . . . . . . ",
". . . . . . . . . . . . . . . . . . . . . . . . . . . . . . . . . . . "
};
