/* XPM */
static char * image_name[]={
"30 29 5 2",
"  	c #73DE78",
". 	c #BFBFBF",
"X 	c #509F69",
"o 	c #78D54B",
"O 	c #5DF370",
"                                                        . . ",
"                                                        . . ",
"                                                        . . ",
"                                                        . . ",
"                                                        . . ",
"                                                        . . ",
"                      X o o o o o o                     . . ",
"                  o o o O O O O O o o o                 . . ",
"                o o O O O O O O O O O o o               . . ",
"              o o O O O O O O O O O O O o o             . . ",
"            o o O O O O O O O O O O O O O o o           . . ",
"            o O O O O O O O O O O O O O O O o           . . ",
"          o o O O O O O O O O O O O O O O O o           . . ",
"O         o O O O O O O O O O O O O O O O O o           . . ",
"O         o O O O O O O O O O O O O O O O O o           . . ",
"O         X O O O O O O O O O O O O O O O O o           . . ",
"O         o o O O O O O O O O O O O O O O o X           . . ",
"O O         o o O O O O O O O O O O O O O o o           . . ",
"O O         o o o O O O O O O O O O O o o X             . . ",
"O O           o o o o O O O O O O o o o o o             . . ",
"  O             o o o o o o o o o o o X o               . . ",
"  O               o X X o o o o X X o                   . . ",
"  O O                   o X X o                         . . ",
"  O O                                                   . . ",
"  O O                                                   . . ",
"  O O                                                   . . ",
"X O O                                                   . . ",
". . . . . . . . . . . . . . . . . . . . . . . . . . . . . . ",
". . . . . . . . . . . . . . . . . . . . . . . . . . . . . . "
};
