/* XPM */
static char * image_name[]={
"18 15 3 2",
"  	c #5DF370",
". 	c #73DE78",
"X 	c #BFBFBF",
"                . . . . . . . . X X ",
"                                X X ",
"                                X X ",
"                                X X ",
"                                X X ",
"                                X X ",
"                                X X ",
"                                X X ",
"                                X X ",
"                                X X ",
"                                X X ",
"                                X X ",
"                                X X ",
"X X X X X X X X X X X X X X X X X X ",
"X X X X X X X X X X X X X X X X X X "
};
