/* XPM */
static char * image_name[]={
"44 12 3 2",
"  	c #73DE78",
". 	c #5DF370",
"X 	c #BFBFBF",
"                                . . . . . .         . . . . .             . . . . . X X ",
"                                      . . . . . .     .   .             . . . . . . X X ",
"                                                                      . . . . . . . X X ",
"                                                                    . . . . . . . . X X ",
"                                                              . . . .   . . . . . . X X ",
"                                                        . . . .         . . . . . . X X ",
"                                                                      . . . . . . . X X ",
"                                                                  . . . . . . . . . X X ",
"                                                                    . . . . . . . . X X ",
"      .                                                           . . . . . . . . . X X ",
"X X X X X X X X X X X X X X X X X X X X X X X X X X X X X X X X X X X X X X X X X X X X ",
"X X X X X X X X X X X X X X X X X X X X X X X X X X X X X X X X X X X X X X X X X X X X "
};
