/* XPM */
static char * image_name[]={
"102 19 40 2",
"  	c #D6D6D6",
". 	c #E0E0E0",
"X 	c #DCDCDC",
"o 	c #C7C7C7",
"O 	c #CCCCCC",
"+ 	c #D4D4D4",
"@ 	c #E3E3E3",
"# 	c #E8E8E8",
"$ 	c #EDEDED",
"% 	c #F2F2F2",
"& 	c #F0F8FF",
"* 	c #F0FFFF",
"= 	c #FCFCFC",
"- 	c #FFFFFF",
"; 	c #BFBFBF",
": 	c #DBDBDB",
"> 	c #CFCFCF",
", 	c #D1D1D1",
"< 	c #EBEBEB",
"1 	c #F0F0F0",
"2 	c #D9D9D9",
"3 	c #B6E2CE",
"4 	c #B8BFC0",
"5 	c #ADADAD",
"6 	c #BABABA",
"7 	c #B8B8B8",
"8 	c #999999",
"9 	c #919191",
"0 	c #9E9E9E",
"q 	c #B5B5B5",
"w 	c #ABABAB",
"e 	c #9C9C9C",
"r 	c #8F8F8F",
"t 	c #949494",
"y 	c #8C8C8C",
"u 	c #8A8A8A",
"i 	c #878787",
"p 	c #A1A1A1",
"a 	c #B3B3B3",
"s 	c #858585",
"        . X o O + X @ # $ % & * * = - - - - - - - - - - - - - - - - - - - - - - - - - - - - - - - - - - - - - - - - - - - - - - - - - - - - - - - - - - - - - - - - - - - - - = * * & $ # . # @         ; ; ",
"          : # > o ,   . # < & & * * = - - - - - - - - - - - - - - - - - - - - - - - - - - - - - - - - - - - - - - - - - - - - - - - - - - - - - - - - - - - - - - - - - - - = * * & < . @ # :           ; ; ",
"              . X o o   X # < & & * * = - - - - - - - - - - - - - - - - - - - - - - - - - - - - - - - - - - - - - - - - - - - - - - - - - - - - - - - - - - - - - - - - - * * & 1 # . # @               ; ; ",
"                : @ > o + : . < 1 & * * * * = - - - - - - - - - - - - - - - - - - - - - - - - - - - - - - - - - - - - - - - - - - - - - - - - - - - - - - - - - - - - = - * * $ @ @ # :                 ; ; ",
"                    . X o > 2 . # $ & & * * * - - - - - - - - - - - - - - - - - - - - - - - - - - - - - - - - - - - - - - - - - - - - - - - - - - - - - - - - - - = = = * & $ @ # @                     ; ; ",
"                      : # , > + . @ < $ & * * = = = - - - - - - - - - - - - - - - - - - - - - - - - - - - - - - - - - - - - - - - - - - - - - - - - - - - - - - = = * & $ # @ < :                       ; ; ",
"                          . X O + : . # < 1 & * * * * - - - - - - - - - - - - - - - - - - - - - - - - - - - - - - - - - - - - - - - - - - - - - - - - - - = = = * * & $ @ < @                           ; ; ",
"                            : # O > 2 . # # $ % & * * * = = - - - - - - - - - - - - - - - - - - - - - - - - - - - - - - - - - - - - - - - - - - = - - = - = * * & % < # < :                             ; ; ",
"                              2 @ 2 > + : . # < $ & * * * * = - - - - - - - - - - - - - - - - - - - - - - - - - - - - - - - - - - - - - - = = = = = = = = * * & $ @ # # 2                               ; ; ",
"                                  . . O , 2 X @ @ # 1 1 & & * * * = = = = - - - = = - - - - - - = - - - - - - - - - - - - - - - = = = = = * * * * * * * * & $ # @ < .                                   ; ; ",
"                                    : # , O , 2 X . # < $ 1 % & & * * & * * * * * = = = * * = = = = = = = = = = = - = - = = = = * * * * * * * * & % 1 1 1 < . @ # :                                     ; ; ",
"                                        . : o O +   : . @ @ # < 1 1 1 & & & & & * * * * & & * * * * * * * * * * * * * * * * * * & & * & & & & & $ $ # # . X # @                                         ; ; ",
"                                          : @ , O O O + 2 X . . @ # # < < $ 1 1 1 & & & % & * & & & & & & * & & & & & & & & 1 1 1 & & < < < < < @ @ . : . # :                                           ; ; ",
"                                              . . O 3 3 O +   2 : . . . @ # # # # < < $ 1 1 $ 1 < < < 1 & & 1 1 1 $ 1 1 1 $ < < < # # @ . . . : + , : # .                                               ; ; ",
"                                                2 @ 4 5 6 3 o O > , + 2 2 X : X . # @ @ @ # # # # # # < < # # # # # @ # # @ @ . . X X :   + > o 7 3 @ 2                                                 ; ; ",
"                                                  . 8 9 8 0 5 q 4 3 o O O > + + 2 : : : X : . . . . . . : . . X X : . : : 2 2   , , > O 3 7 w e r t . 2                                                 ; ; ",
"                                                . 6 y u i i u y 8 p w a 6 4 3 3 o O O O > > , , , , , , + + + , , O > O O o o o 6 a w 0 t i s i s u 5 .                                                 ; ; ",
"; ; ; ; ; ; ; ; ; ; ; ; ; ; ; ; ; ; ; ; ; ; ; ; ; ; ; ; ; ; ; ; ; ; ; ; ; ; ; ; ; ; ; ; ; ; ; ; ; ; ; ; ; ; ; ; ; ; ; ; ; ; ; ; ; ; ; ; ; ; ; ; ; ; ; ; ; ; ; ; ; ; ; ; ; ; ; ; ; ; ; ; ; ; ; ; ; ; ; ; ; ; ",
"; ; ; ; ; ; ; ; ; ; ; ; ; ; ; ; ; ; ; ; ; ; ; ; ; ; ; ; ; ; ; ; ; ; ; ; ; ; ; ; ; ; ; ; ; ; ; ; ; ; ; ; ; ; ; ; ; ; ; ; ; ; ; ; ; ; ; ; ; ; ; ; ; ; ; ; ; ; ; ; ; ; ; ; ; ; ; ; ; ; ; ; ; ; ; ; ; ; ; ; ; ; "
};
