/* XPM */
static char * image_name[]={
"28 23 6 2",
"  	c #F08080",
". 	c #BFBFBF",
"X 	c #E9967A",
"o 	c #FFA07A",
"O 	c #F4A460",
"+ 	c #FF7256",
"                                                    . . ",
"                                                    . . ",
"                                                    . . ",
"                                                    . . ",
"                X X X X X X X X                     . . ",
"              X o o o o o o o o X                   . . ",
"              X o o o o o o o o o X                 . . ",
"            X o o o o o o o o o o o X               . . ",
"            X o o o o o o o o o o O X               . . ",
"            X o o o o o o o o o o o X               . . ",
"            X o o o o o o o o o o o X               . . ",
"            X o o o o o o o o o o O X               . . ",
"              X O o o o o o o o O o X               . . ",
"              X o O o o o o o O O X                 . . ",
"                X X o O O O O o + X                 . . ",
"                    X X X X X X                     . . ",
"                                                    . . ",
"                                                    . . ",
"                                                    . . ",
"                                                    . . ",
"                                                    . . ",
". . . . . . . . . . . . . . . . . . . . . . . . . . . . ",
". . . . . . . . . . . . . . . . . . . . . . . . . . . . "
};
