/* XPM */
static char * image_name[]={
"17 17 46 2",
"  	c #FFFFFF",
". 	c #FCFCFC",
"X 	c #F0FFFF",
"o 	c #F0F8FF",
"O 	c #EDEDED",
"+ 	c #949494",
"@ 	c #454545",
"# 	c #474747",
"$ 	c #4A4A4A",
"% 	c #4D4D4D",
"& 	c #858585",
"* 	c #DCDCDC",
"= 	c #D9D9D9",
"- 	c #E0E0E0",
"; 	c #BFBFBF",
": 	c #F0F0F0",
"> 	c #6A6A8D",
", 	c #616161",
"< 	c #737373",
"1 	c #ADADAD",
"2 	c #D6D6D6",
"3 	c #E3E3E3",
"4 	c #919191",
"5 	c #BABABA",
"6 	c #E8E8E8",
"7 	c #DBDBDB",
"8 	c #C7C7C7",
"9 	c #8F8F8F",
"0 	c #787878",
"q 	c #B6E2CE",
"w 	c #F2F2F2",
"e 	c #9C9C9C",
"r 	c #B3B3B3",
"t 	c #828282",
"y 	c #6E6E6E",
"u 	c #5C5C5C",
"i 	c #A8A8A8",
"p 	c #EBEBEB",
"a 	c #666666",
"s 	c #4F4F4F",
"d 	c #595959",
"f 	c #A1A1A1",
"g 	c #878787",
"h 	c #6B6B6B",
"j 	c #757575",
"k 	c #D1D1D1",
"    . X o O + @ # $ % & * = - ; ; ",
".   X X X : > # % , < 1 * 2 2 ; ; ",
"X . X . . 3 4 5 2 6 * 7 2 2 2 ; ; ",
":     . . * 5 X     7 2 2 2 2 ; ; ",
":     .   8 9 *     6 2 2 2 2 ; ; ",
":     .   5 0 q .   w 2 2 2 2 ; ; ",
"o         e < r X   X 2 2 2 2 ; ; ",
"X .       t y 1 o     2 2 2 2 ; ; ",
".       . < u i O     = 2 2 2 ; ; ",
"X         < $ 4 p     * 2 2 2 ; ; ",
"X         < @ , =     * 2 2 2 ; ; ",
"o       X a % s +     - 2 2 2 ; ; ",
".       O d a f g X   6 2 2 2 ; ; ",
"          h j k :     6 2 2 2 ; ; ",
"          j a 2 X     6 2 2 2 ; ; ",
"; ; ; ; ; ; ; ; ; ; ; ; ; ; ; ; ; ",
"; ; ; ; ; ; ; ; ; ; ; ; ; ; ; ; ; "
};
