/* XPM */
static char * image_name[]={
"44 12 14 2",
"  	c #FFFFFF",
". 	c #EDEDED",
"X 	c #E3E3E3",
"o 	c #E8E8E8",
"O 	c #EBEBEB",
"+ 	c #F0F8FF",
"@ 	c #F0FFFF",
"# 	c #FCFCFC",
"$ 	c #F0F0F0",
"% 	c #BFBFBF",
"& 	c #F2F2F2",
"* 	c #E0E0E0",
"= 	c #DCDCDC",
"- 	c #D9D9D9",
"        . X o O . + + @         # @ @ @ #           @ @ + + $ . o o $ @ + $ $ $ + @ % % ",
"          + o X o . O O + @ # @ #   # # @ # @ @ @ + + $ . O o o o $ + . O . $ & + @ % % ",
"            @ O o o o o O $ & + + + + + & + + O . . . o o o X $ + . o o O $ $ + + @ % % ",
"                @ . o o o O . o . O . $ O $ . o o X X o o $ . $ o * X o . $ $ + + @ % % ",
"                  @ @ + . . o o o O o o O o o X * X o $ $ o * * * X o . $ $ + @ + @ % % ",
"                @ @     @ @ @ & $ $ O O $ O O O . . O X * * X * X . . . $ + @ @ @ @ % % ",
"                @ @ @ @ @ @ @ @ # @ @ @ + + O o o = = - X o o o O $ $ & + + @ @ @ @ % % ",
"                # # @ @ @ + . & + o O O o o X * = = * X o o o O $ $ & + + @ @ @ #   % % ",
"                # # # @ @ + . . . o o o o * o o * X o o o o O $ $ + + @ @ @ @ # #   % % ",
"                    # # @ @ + + + $ $ O . o O O O o $ . $ + $ & + @ @ @ #     #     % % ",
"% % % % % % % % % % % % % % % % % % % % % % % % % % % % % % % % % % % % % % % % % % % % ",
"% % % % % % % % % % % % % % % % % % % % % % % % % % % % % % % % % % % % % % % % % % % % "
};
