/* XPM */
static char * image_name[]={
"18 16 6 2",
"  	c #EEE8AA",
". 	c #BFBFBF",
"X 	c #EFDF84",
"o 	c #D1C166",
"O 	c #FFA07A",
"+ 	c #EEDD82",
"                                . . ",
"                                . . ",
"                                . . ",
"X X X X                         . . ",
"X X X X X X X X                 . . ",
"X X X X X X X X X               . . ",
"X X o O O O O X X               . . ",
"O O O O O O o X X               . . ",
"o o + X X X X X                 . . ",
"X X X X X X X                   . . ",
"X X X X                         . . ",
"                                . . ",
"                                . . ",
"                                . . ",
". . . . . . . . . . . . . . . . . . ",
". . . . . . . . . . . . . . . . . . "
};
