/* XPM */
static char * image_name[]={
"12 16 17 2",
"  	c #F0FFFF",
". 	c #FCFCFC",
"X 	c #F0F0F0",
"o 	c #E8E8E8",
"O 	c #F0F8FF",
"+ 	c #FFFFFF",
"@ 	c #BFBFBF",
"# 	c #EDEDED",
"$ 	c #EBEBEB",
"% 	c #F2F2F2",
"& 	c #E0E0E0",
"* 	c #E3E3E3",
"= 	c #D9D9D9",
"- 	c #D6D6D6",
"; 	c #DBDBDB",
": 	c #CCCCCC",
"> 	c #D1D1D1",
"  .     X o O . + + @ @ ",
"  .   O # $ . + + + @ @ ",
". .   O # % + + + + @ @ ",
".   .   # O + + + + @ @ ",
".     O $ X . + + + @ @ ",
"+ .     % # O . .   @ @ ",
"+ + .   O $ $ O O X @ @ ",
"+ + .   O # & * o * @ @ ",
"+ + + .   O & = * & @ @ ",
"+ + + + . O # - ; ; @ @ ",
"+ + + + .   O o : > @ @ ",
"+ + + + .     O & : @ @ ",
"+ + + + + .     O o @ @ ",
"+ + + + + + +   .   @ @ ",
"@ @ @ @ @ @ @ @ @ @ @ @ ",
"@ @ @ @ @ @ @ @ @ @ @ @ "
};
