/* XPM */
static char * image_name[]={
"18 20 8 2",
"  	c #E8E8E8",
". 	c #EBEBEB",
"X 	c #F0F0F0",
"o 	c #F0F8FF",
"O 	c #F0FFFF",
"+ 	c #BFBFBF",
"@ 	c #FCFCFC",
"# 	c #FFFFFF",
"  . X o o O o o o o o o o X .   + + ",
"X o o O O O O O @ @ O O O O o X + + ",
"o O O @ @ # # # @ # @ # # @ O o + + ",
"@ @ @ # # # # # # # # # # # @ # + + ",
"# # # # # # # # # # # # # # # # + + ",
"# # # # # # # # # # # # # # # # + + ",
"# # # # # # # # # # # # # # # # + + ",
"# # # # # # # # # # # # # # # # + + ",
"# # # # # # # # # # # # # # # # + + ",
"# # # # # # # # # # # # # # # # + + ",
"# # # # # # # # # # # # # # # # + + ",
"# # # # # # # # # # # # # # # # + + ",
"# # # # # # # # # # # # # # # # + + ",
"# # # # # # # # # # # # # # # # + + ",
"# # # # # # # # # # # # # # # # + + ",
"# # # # # # # # # # # # # # # # + + ",
"# # # # # # # # # # # # # # # # + + ",
"@ # # # # # # # # # # # # # # # + + ",
"+ + + + + + + + + + + + + + + + + + ",
"+ + + + + + + + + + + + + + + + + + "
};
