/* XPM */
static char * image_name[]={
"21 16 12 2",
"  	c #73DE78",
". 	c #509F69",
"X 	c #5E5E5E",
"o 	c #595959",
"O 	c #545454",
"+ 	c #525252",
"@ 	c #575757",
"# 	c #5DF370",
"$ 	c #BFBFBF",
"% 	c #616161",
"& 	c #5C5C5C",
"* 	c #78D54B",
"    . . . . . . X o O + + O @ . # # # $ $ ",
"      . . . . . % & @ + + O O X   # # $ $ ",
"        . . . . . X @ O O + O o . # # $ $ ",
"          . . . . . & @ O + O @ %   # $ $ ",
"          * . . . . % o O O O @ & . # $ $ ",
"            . . . . . & o O O O & .   $ $ ",
"              . . . . % & @ O O o . . $ $ ",
"              * . . . . & o O O @ X . $ $ ",
"                . . . . . & @ O @ & . $ $ ",
"                  . . . . % o @ @ & . $ $ ",
"                  . . . . . & @ @ o . $ $ ",
"                  * . . . . X o @ o % $ $ ",
"                    . . . . . & o @ & $ $ ",
"                    * . . . . % o o & $ $ ",
"$ $ $ $ $ $ $ $ $ $ $ $ $ $ $ $ $ $ $ $ $ ",
"$ $ $ $ $ $ $ $ $ $ $ $ $ $ $ $ $ $ $ $ $ "
};
