/* XPM */
static char * image_name[]={
"21 16 25 2",
"  	c #9C9C9C",
". 	c #B0B0B0",
"X 	c #C7C7C7",
"o 	c #DCDCDC",
"O 	c #E8E8E8",
"+ 	c #F0F8FF",
"@ 	c #F0FFFF",
"# 	c #FCFCFC",
"$ 	c #FFFFFF",
"% 	c #BFBFBF",
"& 	c #A3A3A3",
"* 	c #BABABA",
"= 	c #CCCCCC",
"- 	c #E0E0E0",
"; 	c #EBEBEB",
": 	c #ABABAB",
"> 	c #B6E2CE",
", 	c #D6D6D6",
"< 	c #F0F0F0",
"1 	c #D1D1D1",
"2 	c #E3E3E3",
"3 	c #D9D9D9",
"4 	c #D4D4D4",
"5 	c #DBDBDB",
"6 	c #F2F2F2",
"  . X o O + @ # # @ # $ # $ # # # $ # % % ",
"& * = - ; @ @ # # $ $ $ $ $ # $ $ $ # % % ",
": > , ; + @ # $ $ $ $ $ $ $ $ $ $ $ $ % % ",
". = o < + @ # $ $ $ $ $ $ $ $ $ $ # # % % ",
"* 1 2 < + @ # $ $ $ $ $ $ $ $ $ $ @ @ % % ",
"X 3 O < @ # # $ $ $ $ $ $ $ # # # @ @ % % ",
"= o < + # # $ $ # $ $ $ $ $ # # @ @ @ % % ",
"4 2 + @ # # $ $ $ $ $ $ # # # # @ @ @ % % ",
"5 ; @ @ # $ # $ $ $ $ $ # # @ # @ @ @ % % ",
"2 6 @ # # # # # # # # # @ @ @ @ @ @ @ % % ",
"O + @ # # # # # # # # @ + + @ @ @ @ @ % % ",
"< @ # $ # # # @ @ # # @ + @ @ @ @ @ @ % % ",
"< + # # # # $ # @ # @ @ @ @ # @ @ 6 < % % ",
"+ @ # # @ @ # # @ @ + + @ @ @ @ + 6 + % % ",
"% % % % % % % % % % % % % % % % % % % % % ",
"% % % % % % % % % % % % % % % % % % % % % "
};
