/* XPM */
static char * image_name[]={
"17 17 6 2",
"  	c #EFDF84",
". 	c #EEE8AA",
"X 	c #BFBFBF",
"o 	c #FFA07A",
"O 	c #D1C166",
"+ 	c #EEDD82",
"              .               X X ",
"            .                 X X ",
"            .                 X X ",
"                o             X X ",
"          .     o O           X X ",
"          .   O o o           X X ",
"              O o o           X X ",
"              o o o           X X ",
"              O o o           X X ",
"              O o o           X X ",
"              + o o           X X ",
"              + o o           X X ",
"        .       O o           X X ",
"        .       + o   . .     X X ",
"        .         o   . .     X X ",
"X X X X X X X X X X X X X X X X X ",
"X X X X X X X X X X X X X X X X X "
};
