/* XPM */
static char * image_name[]={
"14 13 16 2",
"  	c #FFFFFF",
". 	c #BFBFBF",
"X 	c #FCFCFC",
"o 	c #F0FFFF",
"O 	c #F0F8FF",
"+ 	c #F2F2F2",
"@ 	c #EDEDED",
"# 	c #E3E3E3",
"$ 	c #DCDCDC",
"% 	c #F0F0F0",
"& 	c #EBEBEB",
"* 	c #D1D1D1",
"= 	c #B6E2CE",
"- 	c #ADADAD",
"; 	c #9C9C9C",
": 	c #8F8F8F",
"                        . . ",
"                        . . ",
"                        . . ",
"                        . . ",
"                        . . ",
"                        . . ",
"                        . . ",
"                  X o o . . ",
"      X X X X X o o o O . . ",
"X o o o o O O O + @ # $ . . ",
"O O % % & # $ * = - ; : . . ",
". . . . . . . . . . . . . . ",
". . . . . . . . . . . . . . "
};
