/* XPM */
static char * image_name[]={
"17 17 9 2",
"  	c #F08080",
". 	c #BFBFBF",
"X 	c #FF7256",
"o 	c #9B7071",
"O 	c #91535D",
"+ 	c #616161",
"@ 	c #636363",
"# 	c #696969",
"$ 	c #666666",
"                              . . ",
"                              . . ",
"                X             . . ",
"                o X           . . ",
"                O o           . . ",
"              X + o           . . ",
"              o + o           . . ",
"              o @ O           . . ",
"              o # $           . . ",
"              o O #           . . ",
"              X o O           . . ",
"              X o O           . . ",
"                o +           . . ",
"                X O           . . ",
"                  o           . . ",
". . . . . . . . . . . . . . . . . ",
". . . . . . . . . . . . . . . . . "
};
