/* XPM */
static char * image_name[]={
"20 17 3 2",
"  	c #EEE8AA",
". 	c #EFDF84",
"X 	c #BFBFBF",
"                . .   .             X X ",
"          . . . . . . .             X X ",
"              . . . . . . .         X X ",
"                . .   .             X X ",
"                                    X X ",
"                                    X X ",
"                                    X X ",
"                                    X X ",
"                                    X X ",
"                                    X X ",
"                                    X X ",
". . . .                           . X X ",
". . . . . . . . . . . . . . . . . . X X ",
". . . . . . . . . . . . . . . . . . X X ",
". . . . . . . . . . . . . . . . . . X X ",
"X X X X X X X X X X X X X X X X X X X X ",
"X X X X X X X X X X X X X X X X X X X X "
};
