/* XPM */
static char * image_name[]={
"35 17 2 2",
"  	c #EFDF84",
". 	c #BFBFBF",
"                                                                  . . ",
"                                                                  . . ",
"                                                                  . . ",
"                                                                  . . ",
"                                                                  . . ",
"                                                                  . . ",
"                                                                  . . ",
"                                                                  . . ",
"                                                                  . . ",
"                                                                  . . ",
"                                                                  . . ",
"                                                                  . . ",
"                                                                  . . ",
"                                                                  . . ",
"                                                                  . . ",
". . . . . . . . . . . . . . . . . . . . . . . . . . . . . . . . . . . ",
". . . . . . . . . . . . . . . . . . . . . . . . . . . . . . . . . . . "
};
