/* XPM */
static char * image_name[]={
"38 29 8 2",
"  	c #73DE78",
". 	c #509F69",
"X 	c #78D54B",
"o 	c #5DF370",
"O 	c #BFBFBF",
"+ 	c #5E5E5E",
"@ 	c #616161",
"# 	c #5C5C5C",
"            . . X                                             o o       O O ",
"          . .                     o o o         o o o       o o o     o O O ",
"        . . X               o o o o o o o o o o o o o o o o o o o o o o O O ",
"      . . .             o o o               o o o o o o o o o o o o o o O O ",
"  o   . .             o o o o o o               o o o o o o o o o o o o O O ",
"    . .             o o o   o o o                   o o o o o o o o o o O O ",
"o . . .           o o o o o                         o o o o o o o o o o O O ",
"  . .           o o o o o o                           o o o o o o o o o O O ",
". . .         o o o o o o     . . . . .                 o o o o o o o o O O ",
". . .         o o o o o o   . . . + + @ .               o o o o o o o o O O ",
". . X         o o o o o   . . . . . . + @ .             o o o o o o o o O O ",
". .           o o o o o   . . . . . . . + . .             o o o o o o o O O ",
". . X       o o o o o o . . . . . . . . @ @ .             o o o o o o o O O ",
". .         o o o o o o . . . . . . . . . @ .             o o o o o o o O O ",
". .         o o o o o o . . . . . . . . @ @ .             o o o o o o o O O ",
". .           o o o o o   . . . . . . . + . .             o o o o o o o O O ",
". . X         o o o o o   . . . . . . @ + .               o o o o o o o O O ",
". . X         o o o o o o   . . @ + # @ . .               o o o o o o o O O ",
". . X           o o o o o o   . . . . .                 o o o o o o o o O O ",
". . . X         o o o o o o                           o o o o o o o o o O O ",
". . . X           o o o o o o                         o o o o o o o o o O O ",
". . . .             o o o o                         o o o o o o o o o o O O ",
"  . . . X             o o o o o                 o o o o o o o o o o o o O O ",
"o   . . . X             o o o o             o o o o o   o o o o         O O ",
"o o   . . . X               o o o o o o o o o o     o     o             O O ",
"o o o   . . . X                     o o o     o         o             o O O ",
"o o o o   . . . X                                                       O O ",
"O O O O O O O O O O O O O O O O O O O O O O O O O O O O O O O O O O O O O O ",
"O O O O O O O O O O O O O O O O O O O O O O O O O O O O O O O O O O O O O O "
};
