/* XPM */
static char * image_name[]={
"17 17 8 2",
"  	c #EFDF84",
". 	c #FFA07A",
"X 	c #FF7256",
"o 	c #BFBFBF",
"O 	c #D1C166",
"+ 	c #EEDD82",
"@ 	c #EEE8AA",
"# 	c #E9967A",
"            . X X X X .       o o ",
"            . X X X . O       o o ",
"            . O               o o ",
"            +   @ @           o o ",
"  @ @       .   @ @           o o ",
"  @ @   @ + . +   @           o o ",
"        @ . . O   @           o o ",
"      @   . . O   @           o o ",
"  @ @ @   . X .   @ @         o o ",
"  @ @ @   . X .   @ @         o o ",
"  @ @ @   . X X   @ @         o o ",
"  @ @ @   . X X . @ @         o o ",
"  @ @ @   X # . .   @         o o ",
"  @ @ @   . .     @ @         o o ",
"@ @ @ @ @ . #     @ @         o o ",
"o o o o o o o o o o o o o o o o o ",
"o o o o o o o o o o o o o o o o o "
};
