/* XPM */
static char * image_name[]={
"28 23 5 2",
"  	c #73DE78",
". 	c #BFBFBF",
"X 	c #78D54B",
"o 	c #5DF370",
"O 	c #509F69",
"                                                    . . ",
"                                                    . . ",
"                                                    . . ",
"                                                    . . ",
"                X X X X X X X X                     . . ",
"              X X o o o o o o X X                   . . ",
"              X o o o o o o o o X X                 . . ",
"            X X o o o o o o o o o X X               . . ",
"            X o o o o o o o o o o o X               . . ",
"            X o o o o o o o o o o o X               . . ",
"            X o o o o o o o o o o o X               . . ",
"            X X o o o o o o o o o o X               . . ",
"              X o o o o o o o o o X X               . . ",
"              X X o o o o o o o o X                 . . ",
"                X X X o o o o X O X                 . . ",
"                    X X X X X X                     . . ",
"                                                    . . ",
"                                                    . . ",
"                                                    . . ",
"                                                    . . ",
"                                                    . . ",
". . . . . . . . . . . . . . . . . . . . . . . . . . . . ",
". . . . . . . . . . . . . . . . . . . . . . . . . . . . "
};
