/* XPM */
static char * image_name[]={
"12 16 3 2",
"  	c #DEB887",
". 	c #F08080",
"X 	c #BFBFBF",
"  . . . . . . . . . X X ",
"    . . . . . . . . X X ",
"      . . . . . . . X X ",
"        . . . . . . X X ",
"      . . . . . . . X X ",
". . . . . . . . . . X X ",
". . . . . . . . . . X X ",
". . . . . . . . . . X X ",
". . . . . . . . . . X X ",
". . . . . . . . . . X X ",
". . . . . . . . . . X X ",
". . . . . . . .   . X X ",
". . . . . . . . .   X X ",
". . . . . . . . .   X X ",
"X X X X X X X X X X X X ",
"X X X X X X X X X X X X "
};
