/* XPM */
static char * image_name[]={
"44 12 13 2",
"  	c #F0FFFF",
". 	c #F0F8FF",
"X 	c #EDEDED",
"o 	c #EBEBEB",
"O 	c #F2F2F2",
"+ 	c #FCFCFC",
"@ 	c #FFFFFF",
"# 	c #BFBFBF",
"$ 	c #F0F0F0",
"% 	c #E8E8E8",
"& 	c #E0E0E0",
"* 	c #E3E3E3",
"= 	c #DCDCDC",
"  . . . . . . X o o X O .     + @ @ @ @ @ @ +     + @ @ @ @ @ +     . .   @ @ @ @ @ # # ",
"  . O . $ $ $ . . X o o o $ .       + @ @ @ @ @ @ + + @ + @     .   .   @ @ @ @ @ @ # # ",
"  . . $ o % % % $   . o % % $ $ O $ O                       . .   .   @ @ @ @ @ @ @ # # ",
"    . . $ O o % % % $ . $ % % % o $ X $ . . . . .       . . . .   + @ @ @ @ @ @ @ @ # # ",
"    .   . $ X % % & & * X X $ o o o X X o . . . . . .   . .   @ @ @ @ + @ @ @ @ @ @ # # ",
"  +     . $ $ X o % & & & & % O . $ . $ X $ . . . .   + @ @ @ @ + + + + @ @ @ @ @ @ # # ",
"        .   . . $ X % & & & = & & % X O . .   .     + + + + + +   + + @ @ @ @ @ @ @ # # ",
"+             . . $ $ o % % & & & * * & & % o $ O . .   .   +     @ @ @ @ @ @ @ @ @ # # ",
"+ + +             . O $ X $ % % % % * % % % o o X . . . .   + +   + @ @ @ @ @ @ @ @ # # ",
"+ + + @ +           . . . . $ $ X X o X o o o X O . .       + + + @ @ @ @ @ @ @ @ @ # # ",
"# # # # # # # # # # # # # # # # # # # # # # # # # # # # # # # # # # # # # # # # # # # # ",
"# # # # # # # # # # # # # # # # # # # # # # # # # # # # # # # # # # # # # # # # # # # # "
};
