/* XPM */
static char * image_name[]={
"28 23 4 2",
"  	c #EFDF84",
". 	c #BFBFBF",
"X 	c #D7F46E",
"o 	c #FFA07A",
"                                                    . . ",
"                                                    . . ",
"                                                    . . ",
"                                                    . . ",
"                X X X X X X X X                     . . ",
"              X X X X X X X X X X                   . . ",
"              X X X X X X X X X X X                 . . ",
"            X X X X X X X X X X X X X               . . ",
"            X X X X X X X X X X X X X               . . ",
"            X X X X X X X X X X X X X               . . ",
"            X X X X X X X X X X X X X               . . ",
"            X X X X X X X X X X X X X               . . ",
"              X X X X X X X X X X X X               . . ",
"              X X X X X X X X X X X                 . . ",
"                X X X X X X X X o X                 . . ",
"                    X X X X X X                     . . ",
"                                                    . . ",
"                                                    . . ",
"                                                    . . ",
"                                                    . . ",
"                                                    . . ",
". . . . . . . . . . . . . . . . . . . . . . . . . . . . ",
". . . . . . . . . . . . . . . . . . . . . . . . . . . . "
};
