/* XPM */
static char * image_name[]={
"102 19 6 2",
"  	c #F08080",
". 	c #FF7256",
"X 	c #DEB887",
"o 	c #BFBFBF",
"O 	c #9B7071",
"+ 	c #91535D",
"            .                                     X X X X X X X X X X X X X X X X X X X X X X X X X X X X X X X X X X X X X X X X X X X X X X X X X X X X X X X                                         o o ",
"                .                               X X     X X X X X X X X X X X X X X X X X X X X X X X X X X X X X X X X X X X X X X X X X X X X X X X X X X X                                           o o ",
"                  . .                             X     X X X X X X X X X X X X X X X X X X X X X X X X X X X X X X X X X X X X X X X X X X X X X X X X X                                               o o ",
"                      .                                         X X X X X X X X X X X X X X X X X X X X X X X X X X X X X X X X X X X X X X X X X X X X X X                                             o o ",
"                        .                                         X X   X X X X X X X X X X X X X X X X X X X X X X X X X X X X X X X X X X X         X                                                 o o ",
"                                                                          X X X X     X X X X X X X     X   X X     X X     X X   X                                                                     o o ",
"                                                                                                        X     X                                                                                         o o ",
"                                                                                                                                                                                                        o o ",
"                                                                                                                                                                                                        o o ",
"                                                                                                                                                                                                        o o ",
"                                                                                                                                                                                                        o o ",
"                                            .                                                                                                                                                           o o ",
"                                                                                                                                                                                                        o o ",
"                                                    . .                                                                                                                                                 o o ",
"                                                    . O . . .                                                                                 . . .                                                     o o ",
"                                                    O O O O O . . . .                                                                   . . O O O O                                                     o o ",
"                                                  . + + + + + + O O O O . . . . .                                         . . . . O O O O + + + + + O                                                   o o ",
"o o o o o o o o o o o o o o o o o o o o o o o o o o o o o o o o o o o o o o o o o o o o o o o o o o o o o o o o o o o o o o o o o o o o o o o o o o o o o o o o o o o o o o o o o o o o o o o o o o o o o o ",
"o o o o o o o o o o o o o o o o o o o o o o o o o o o o o o o o o o o o o o o o o o o o o o o o o o o o o o o o o o o o o o o o o o o o o o o o o o o o o o o o o o o o o o o o o o o o o o o o o o o o o o "
};
