/* XPM */
static char * image_name[]={
"17 17 3 2",
"  	c #5DF370",
". 	c #BFBFBF",
"X 	c #73DE78",
"                              . . ",
"                              . . ",
"                              . . ",
"                              . . ",
"                              . . ",
"                              . . ",
"                              . . ",
"                              . . ",
"X                             . . ",
"X X X                         . . ",
"X X X                         . . ",
"X X X X X X                   . . ",
"X X X X X X X X               . . ",
"X X X X X X X X               . . ",
"X X X X X X X X   X X         . . ",
". . . . . . . . . . . . . . . . . ",
". . . . . . . . . . . . . . . . . "
};
