/* XPM */
static char * image_name[]={
"17 17 5 2",
"  	c #FFFFFF",
". 	c #BFBFBF",
"X 	c #FCFCFC",
"o 	c #F0FFFF",
"O 	c #F0F8FF",
"                              . . ",
"                              . . ",
"                              . . ",
"                              . . ",
"                              . . ",
"                              . . ",
"                              . . ",
"                              . . ",
"                              . . ",
"                              . . ",
"                            X . . ",
"                          X o . . ",
"                      X o o o . . ",
"                  X   o o o o . . ",
"                o o X X o o O . . ",
". . . . . . . . . . . . . . . . . ",
". . . . . . . . . . . . . . . . . "
};
