/* XPM */
static char * image_name[]={
"20 17 8 2",
"  	c #FFFFFF",
". 	c #BFBFBF",
"X 	c #FCFCFC",
"o 	c #F0FFFF",
"O 	c #F2F2F2",
"+ 	c #F0F8FF",
"@ 	c #E8E8E8",
"# 	c #EBEBEB",
"                                    . . ",
"                X X                 . . ",
"                X X X               . . ",
"                                    . . ",
"                                    . . ",
"                                    . . ",
"                                    . . ",
"                                    . . ",
"                                    . . ",
"                                    . . ",
"                                    . . ",
"X                                   . . ",
"o o o X o o o o X X X   X X o X X X . . ",
"O O + + + + + + o + o o o o + o + o . . ",
"@ @ @ @ @ @ @ @ # # @ # # # # # # # . . ",
". . . . . . . . . . . . . . . . . . . . ",
". . . . . . . . . . . . . . . . . . . . "
};
