/* XPM */
static char * image_name[]={
"17 17 9 2",
"  	c #73DE78",
". 	c #5DF370",
"X 	c #509F69",
"o 	c #78D54B",
"O 	c #BFBFBF",
"+ 	c #5C5C5C",
"@ 	c #575757",
"# 	c #595959",
"$ 	c #616161",
"            . .   X o         O O ",
"            . .   o           O O ",
"            .   X X           O O ",
"                X X           O O ",
"          .   X + X           O O ",
"          .   X @ X           O O ",
"              X @ X           O O ",
"              X # +           O O ",
"              X + #           O O ",
"        .     X X +           O O ",
"        .     X X $           O O ",
"        .     X X +           O O ",
"        . .   X X @   . .     O O ",
"        . .     X X   . .     O O ",
"        . .     X X   . .     O O ",
"O O O O O O O O O O O O O O O O O ",
"O O O O O O O O O O O O O O O O O "
};
