/* XPM */
static char * image_name[]={
"21 16 14 2",
"  	c #F08080",
". 	c #FF7256",
"X 	c #9B7071",
"o 	c #91535D",
"O 	c #636363",
"+ 	c #5C5C5C",
"@ 	c #575757",
"# 	c #595959",
"$ 	c #5E5E5E",
"% 	c #DEB887",
"& 	c #BFBFBF",
"* 	c #666666",
"= 	c #616161",
"- 	c #696969",
"      . . X X o o O + @ # # $ X   % % & & ",
"        . . X X o * $ # # # + o   % % & & ",
"          . X X X o = + # # + * X   % & & ",
"          . . X X o o = + # # = o   % & & ",
"            . . X X o O + + # = o X   & & ",
"              . X X o o O + # + - X   & & ",
"                . X X o * $ # + * o X & & ",
"                . X X X o O + # = o X & & ",
"                  . X X o * $ + = - X & & ",
"                  . . X X o * $ = - X & & ",
"                    . X X o - $ $ * o & & ",
"                    . . X X o O = O o & & ",
"                      . X X o - O = o & & ",
"                      . . X X o * O o & & ",
"& & & & & & & & & & & & & & & & & & & & & ",
"& & & & & & & & & & & & & & & & & & & & & "
};
