/* XPM */
static char * image_name[]={
"21 16 6 2",
"  	c #FFA07A",
". 	c #D1C166",
"X 	c #EFDF84",
"o 	c #BFBFBF",
"O 	c #EEDD82",
"+ 	c #EEE8AA",
"  . X X X X X X X X X X X X X X X X X o o ",
"  . X X X X X X X X X X X X X X X X X o o ",
"  O X X X X X X X X X X X + + + X X X o o ",
". X X X X X X X X X X X + + + + X X X o o ",
"O X X X X X X X X X X X + X X X X X X o o ",
"X X X X X X X X X X X X + + X X X X X o o ",
"X X X X X X X X X X X X X X X X X X X o o ",
"X X X X X X X + X X X X X X X X X X X o o ",
"X X X X X X X X X X X X X X X X X X X o o ",
"X X X X X X X X X X X X X X X X X X X o o ",
"X X X X X X X X X X X X X X X X X X X o o ",
"X X X X X X X X X X X X X X X X X X X o o ",
"X X X X X X X X X X X X X X X X X X X o o ",
"X X X X X X X X X X X X X X X X X X X o o ",
"o o o o o o o o o o o o o o o o o o o o o ",
"o o o o o o o o o o o o o o o o o o o o o "
};
