/* XPM */
static char * image_name[]={
"18 16 6 2",
"  	c #DEB887",
". 	c #BFBFBF",
"X 	c #F08080",
"o 	c #9B7071",
"O 	c #91535D",
"+ 	c #FF7256",
"                                . . ",
"                                . . ",
"X X                             . . ",
"X X X X X X X                   . . ",
"X X X X X X X X X               . . ",
"X X X X X X X X X X             . . ",
"X X o o O O O + X X             . . ",
"o O O O o o o X X               . . ",
"o + + X X X X X X               . . ",
"X X X X X X X X                 . . ",
"X X X X X X                     . . ",
"X X                             . . ",
"                                . . ",
"                                . . ",
". . . . . . . . . . . . . . . . . . ",
". . . . . . . . . . . . . . . . . . "
};
