/* XPM */
static char * image_name[]={
"38 29 6 2",
"  	c #EFDF84",
". 	c #D1C166",
"X 	c #EEDD82",
"o 	c #BFBFBF",
"O 	c #EEE8AA",
"+ 	c #FFA07A",
"            . X                                                         o o ",
"          . X                                               O O         o o ",
"        X .                       O     O O O       O       O O       O o o ",
"        .                                     O O O O O   O O O   O O O o o ",
"      +               O                           O O O O O O O O   O O o o ",
"    . X             O O                             O O O O O O O O O O o o ",
"    +             O O O O                             O O O O O O O O O o o ",
"  + X           O O O O O                               O O O O O O O O o o ",
"  +             O O O O O       . + + X                 O O O O O O O O o o ",
". .           O O O O O O   . + + + + + +               O O O O O O O O o o ",
"+ X           O O O O O   . + + . + + + + +               O O O O O O O o o ",
"+ X           O O O O O   + . X X X . + + + X             O O O O O O O o o ",
"+             O O O O O   . X       X + + + +             O O O O O O O o o ",
".             O O O O O X .           . + + +             O O O O O O O o o ",
".             O O O O O   .         X + + + +             O O O O O O O o o ",
".             O O O O O   + .     X . + + + X             O O O O O O O o o ",
".             O O O O O   . + + . + + + + +               O O O O O O O o o ",
".             O O O O O O   . + + + + + +                 O O O O O O O o o ",
". X             O O O O O O     . + + X                 O O O O O O O O o o ",
"+ X             O O O O O O                             O O O O O O O O o o ",
"+ .               O O O O                             O O O O O O O O O o o ",
". + .               O O O                           O O O O O O O O   O o o ",
"  X + X               O O                         O O O O O     O O     o o ",
"O   X + X               O O O                 O O O                     o o ",
"O O     + X                   O           O O                           o o ",
"O O O     + .                                                           o o ",
"O O O O     + .                                                         o o ",
"o o o o o o o o o o o o o o o o o o o o o o o o o o o o o o o o o o o o o o ",
"o o o o o o o o o o o o o o o o o o o o o o o o o o o o o o o o o o o o o o "
};
