/* XPM */
static char * image_name[]={
"30 29 6 2",
"  	c #EFDF84",
". 	c #BFBFBF",
"X 	c #EEDD82",
"o 	c #D7F46E",
"O 	c #EEE8AA",
"+ 	c #D1C166",
"                                                        . . ",
"                                                        . . ",
"                                                        . . ",
"                                                        . . ",
"                                                        . . ",
"                                                        . . ",
"                      X o o o o o o                     . . ",
"                  o o o o o o o o o o o                 . . ",
"                o o o o o o o o o o o o o               . . ",
"              o o o o o o o o o o o o o o o             . . ",
"            o o o o o o o o o o o o o o o o o           . . ",
"            o o o o o o o o o o o o o o o o o           . . ",
"          o o o o o o o o o o o o o o o o o o           . . ",
"O         o o o o o o o o o o o o o o o o o o           . . ",
"O         o o o o o o o o o o o o o o o o o o           . . ",
"O         + o o o o o o o o o o o o o o o o o           . . ",
"O         o o o o o o o o o o o o o o o o o +           . . ",
"O O         o o o o o o o o o o o o o o o o o           . . ",
"O O         o o o o o o o o o o o o o o o +             . . ",
"  O           o o o o o o o o o o o o o o o             . . ",
"  O             o o o o o o o o o o o + o               . . ",
"  O               o + + o o o o + + o                   . . ",
"  O                     o + + o                         . . ",
"  O                                                     . . ",
"  O                                                     . . ",
"  O O                                                   . . ",
"  O O                                                   . . ",
". . . . . . . . . . . . . . . . . . . . . . . . . . . . . . ",
". . . . . . . . . . . . . . . . . . . . . . . . . . . . . . "
};
