/* XPM */
static char * image_name[]={
"102 19 6 2",
"  	c #73DE78",
". 	c #509F69",
"X 	c #78D54B",
"o 	c #5DF370",
"O 	c #BFBFBF",
"+ 	c #616161",
"            . . X                   o o o o o o o o o o o o o o o o o o o o o o o o o o o o o o o o o o o o o o o o o o o o o o o o o o o o o o o o o o o o o o o o o o o o o                           O O ",
"              . . X                   o o o o o o o o o o o o o o o o o o o o o o o o o o o o o o o o o o o o o o o o o o o o o o o o o o o o o o o o o o o o o o o o o o o                             O O ",
"                  . .                   o o o o o o o o o o o o o o o o o o o o o o o o o o o o o o o o o o o o o o o o o o o o o o o o o o o o o o o o o o o o o o o o o                               O O ",
"                    . . X                     o o o o o o o o o o o o o o o o o o o o o o o o o o o o o o o o o o o o o o o o o o o o o o o o o o o o o o o o o o o o   o                               O O ",
"                        . .                   o o o o o o o o o o o o o o o o o o o o o o o o o o o o o o o o o o o o o o o o o o o o o o o o o o o o o o o o o o                                       O O ",
"                          X . X                     o o o o o o o o o o o o o o o o o o o o o o o o o o o o o o o o o o o o o o o o o o o o o o o o o o o o o o                                         O O ",
"                              . X                     o o o o o o o o o o o o o o o o o o o o o o o o o o o o o o o o o o o o o o o o o o o o o o o o o o                                               O O ",
"                                . .                         o o o o o o o o o o o o o o o o o o o o o o o o o o o o o o o o o o o o o o o o o o   o o   o                                               O O ",
"                                    . X                       o o o o o o o o o o o o o o o o o o o o o o o o o o o o o o o o o o o o o o                                                               O O ",
"                                      . X                                 o o o     o o o o o o   o o o o o o o o o o o o o o o                                                                         O O ",
"                                        X . X                                                                     o   o                                                                                 O O ",
"                                            . . X                                                                                                                                                       O O ",
"                                              X . . . X                                                                                                                                                 O O ",
"                                                  . . . . X                                                                                     X X                                                     O O ",
"                                                    . . . . . . . X X                                                                     X . . . .                                                     O O ",
"                                                    . . . . . . . . . . . . X X                                                 X X . . . . . . . .                                                     O O ",
"                                                  . . . . . . . . . . . . . . . . . . . . . X X X X X X X X X X X . . . . . . . . . . . . . + . + . .                                                   O O ",
"O O O O O O O O O O O O O O O O O O O O O O O O O O O O O O O O O O O O O O O O O O O O O O O O O O O O O O O O O O O O O O O O O O O O O O O O O O O O O O O O O O O O O O O O O O O O O O O O O O O O O O ",
"O O O O O O O O O O O O O O O O O O O O O O O O O O O O O O O O O O O O O O O O O O O O O O O O O O O O O O O O O O O O O O O O O O O O O O O O O O O O O O O O O O O O O O O O O O O O O O O O O O O O O O "
};
