/* XPM */
static char * image_name[]={
"17 17 3 2",
"  	c #F08080",
". 	c #DEB887",
"X 	c #BFBFBF",
"  .                           X X ",
"                              X X ",
"                              X X ",
"                              X X ",
"                              X X ",
"                              X X ",
"                              X X ",
"                              X X ",
"                              X X ",
"                              X X ",
"                              X X ",
"                              X X ",
"                              X X ",
"                              X X ",
"                              X X ",
"X X X X X X X X X X X X X X X X X ",
"X X X X X X X X X X X X X X X X X "
};
