/* XPM */
static char * image_name[]={
"17 17 19 2",
"  	c #F08080",
". 	c #9B7071",
"X 	c #454545",
"o 	c #474747",
"O 	c #4A4A4A",
"+ 	c #91535D",
"@ 	c #BFBFBF",
"# 	c #575757",
"$ 	c #636363",
"% 	c #FF7256",
"& 	c #DEB887",
"* 	c #666666",
"= 	c #616161",
"- 	c #545454",
"; 	c #5C5C5C",
": 	c #4D4D4D",
"> 	c #525252",
", 	c #595959",
"< 	c #5E5E5E",
"            . X o o O +       @ @ ",
"            + o O # $ .       @ @ ",
"            . %               @ @ ",
"            %   &             @ @ ",
"          % .     &           @ @ ",
"          % * %   &           @ @ ",
"          . $ .   &           @ @ ",
"          + = .   &           @ @ ",
"          $ - .               @ @ ",
"          $ o .               @ @ ",
"      &   $ X #               @ @ ",
"    & &   ; O : .             @ @ ",
"  & & &   > , . +   &         @ @ ",
"  &   &   < *       &         @ @ ",
"      &   * ,       &         @ @ ",
"@ @ @ @ @ @ @ @ @ @ @ @ @ @ @ @ @ ",
"@ @ @ @ @ @ @ @ @ @ @ @ @ @ @ @ @ "
};
