/* XPM */
static char * image_name[]={
"18 16 29 2",
"  	c #FFFFFF",
". 	c #BFBFBF",
"X 	c #F0FFFF",
"o 	c #F0F8FF",
"O 	c #F0F0F0",
"+ 	c #EBEBEB",
"@ 	c #E8E8E8",
"# 	c #DCDCDC",
"$ 	c #D4D4D4",
"% 	c #CCCCCC",
"& 	c #D9D9D9",
"* 	c #B3B3B3",
"= 	c #999999",
"- 	c #8A8A8A",
"; 	c #708090",
": 	c #8C8C8C",
"> 	c #C7C7C7",
", 	c #949494",
"< 	c #878787",
"1 	c #9C9C9C",
"2 	c #ADADAD",
"3 	c #D1D1D1",
"4 	c #FCFCFC",
"5 	c #BABABA",
"6 	c #B6E2CE",
"7 	c #CFCFCF",
"8 	c #E3E3E3",
"9 	c #E0E0E0",
"0 	c #EDEDED",
"                                . . ",
"                                . . ",
"                                . . ",
"                                . . ",
"X X o o O o o X                 . . ",
"O + @ # $ % % # X               . . ",
"& % * = - ; : > X               . . ",
", - < - , 1 2 3 4               . . ",
"2 5 6 % 7 & 8 o                 . . ",
"9 @ + 0 o X                     . . ",
"X 4                             . . ",
"                                . . ",
"                                . . ",
"                                . . ",
". . . . . . . . . . . . . . . . . . ",
". . . . . . . . . . . . . . . . . . "
};
