/* XPM */
static char * image_name[]={
"44 12 3 2",
"  	c #F08080",
". 	c #BFBFBF",
"X 	c #FF7256",
"                                                                                    . . ",
"                                                                                    . . ",
"                                                                                    . . ",
"                                                                                    . . ",
"                                                                                    . . ",
"                                                                                    . . ",
"                                                                                    . . ",
"                                                                                    . . ",
"                                                                                    . . ",
"                                X X X X X X X                                       . . ",
". . . . . . . . . . . . . . . . . . . . . . . . . . . . . . . . . . . . . . . . . . . . ",
". . . . . . . . . . . . . . . . . . . . . . . . . . . . . . . . . . . . . . . . . . . . "
};
