/* XPM */
static char * image_name[]={
"14 13 6 2",
"  	c #EEE8AA",
". 	c #BFBFBF",
"X 	c #EFDF84",
"o 	c #EEDD82",
"O 	c #D1C166",
"+ 	c #FFA07A",
"                        . . ",
"                        . . ",
"                        . . ",
"                        . . ",
"                        . . ",
"                        . . ",
"            X X X X X X . . ",
"    X X   X X X X X X X . . ",
"X X X X X X X X X X X X . . ",
"X X X X X X X X X X X X . . ",
"X X X X X X X X o O + + . . ",
". . . . . . . . . . . . . . ",
". . . . . . . . . . . . . . "
};
