/* XPM */
static char * image_name[]={
"28 18 2 2",
"  	c #EEE8AA",
". 	c #BFBFBF",
"                                                    . . ",
"                                                    . . ",
"                                                    . . ",
"                                                    . . ",
"                                                    . . ",
"                                                    . . ",
"                                                    . . ",
"                                                    . . ",
"                                                    . . ",
"                                                    . . ",
"                                                    . . ",
"                                                    . . ",
"                                                    . . ",
"                                                    . . ",
"                                                    . . ",
"                                                    . . ",
". . . . . . . . . . . . . . . . . . . . . . . . . . . . ",
". . . . . . . . . . . . . . . . . . . . . . . . . . . . "
};
