/* XPM */
static char * image_name[]={
"24 18 2 2",
"  	c #5DF370",
". 	c #BFBFBF",
"                                            . . ",
"                                            . . ",
"                                            . . ",
"                                            . . ",
"                                            . . ",
"                                            . . ",
"                                            . . ",
"                                            . . ",
"                                            . . ",
"                                            . . ",
"                                            . . ",
"                                            . . ",
"                                            . . ",
"                                            . . ",
"                                            . . ",
"                                            . . ",
". . . . . . . . . . . . . . . . . . . . . . . . ",
". . . . . . . . . . . . . . . . . . . . . . . . "
};
