/* XPM */
static char * image_name[]={
"18 15 3 2",
"  	c #EEE8AA",
". 	c #EFDF84",
"X 	c #BFBFBF",
"          . . . . . . . . . . . X X ",
"                                X X ",
"                                X X ",
"                                X X ",
"                                X X ",
"                                X X ",
"                                X X ",
"                                X X ",
"                                X X ",
"                                X X ",
"                                X X ",
"                                X X ",
"                                X X ",
"X X X X X X X X X X X X X X X X X X ",
"X X X X X X X X X X X X X X X X X X "
};
